M48
; DRILL file {KiCad 9.0.0-rc3-101-g1c85751bf0} date 2025-12-24T13:29:24+0800
; FORMAT={-:-/ absolute / metric / decimal}
; #@! TF.CreationDate,2025-12-24T13:29:24+08:00
; #@! TF.GenerationSoftware,Kicad,Pcbnew,9.0.0-rc3-101-g1c85751bf0
; #@! TF.FileFunction,Plated,1,4,PTH
FMAT,2
METRIC
; #@! TA.AperFunction,Plated,PTH,ViaDrill
T1C0.300
; #@! TA.AperFunction,Plated,PTH,ViaDrill
T2C0.305
; #@! TA.AperFunction,Plated,PTH,ViaDrill
T3C0.350
; #@! TA.AperFunction,Plated,PTH,ComponentDrill
T4C0.800
; #@! TA.AperFunction,Plated,PTH,ViaDrill
T5C2.000
; #@! TA.AperFunction,Plated,PTH,ComponentDrill
T6C2.000
%
G90
G05
T1
X162.12Y-115.35
X166.01Y-94.875
X166.645Y-94.24
X166.645Y-94.875
X166.645Y-95.51
X167.28Y-94.24
X167.28Y-94.875
X167.28Y-95.51
X167.5Y-122.24
X167.915Y-94.24
X167.915Y-94.875
X167.915Y-95.51
X168.55Y-94.24
X168.55Y-94.875
X168.55Y-95.51
X169.185Y-94.24
X169.185Y-94.875
X169.185Y-95.51
X169.82Y-94.24
X169.82Y-94.875
X169.82Y-95.51
X170.455Y-94.24
X170.455Y-94.875
X170.455Y-95.51
X171.09Y-94.24
X171.09Y-94.875
X171.09Y-95.51
X171.725Y-94.875
X177.4Y-94.875
X178.035Y-94.24
X178.035Y-94.875
X178.035Y-95.51
X178.67Y-94.24
X178.67Y-94.875
X178.67Y-95.51
X179.305Y-94.24
X179.305Y-94.875
X179.305Y-95.51
X179.94Y-94.24
X179.94Y-94.875
X179.94Y-95.51
X180.05Y-118.04
X180.575Y-94.24
X180.575Y-94.875
X180.575Y-95.51
X181.21Y-94.24
X181.21Y-94.875
X181.21Y-95.51
X181.845Y-94.24
X181.845Y-94.875
X181.845Y-95.51
X182.48Y-94.24
X182.48Y-94.875
X182.48Y-95.51
X183.115Y-94.875
X188.775Y-94.875
X189.41Y-94.24
X189.41Y-94.875
X189.41Y-95.51
X190.045Y-94.24
X190.045Y-94.875
X190.045Y-95.51
X190.68Y-94.24
X190.68Y-94.875
X190.68Y-95.51
X191.315Y-94.24
X191.315Y-94.875
X191.315Y-95.51
X191.95Y-94.24
X191.95Y-94.875
X191.95Y-95.51
X192.585Y-94.24
X192.585Y-94.875
X192.585Y-95.51
X193.22Y-94.24
X193.22Y-94.875
X193.22Y-95.51
X193.855Y-94.24
X193.855Y-94.875
X193.855Y-95.51
X194.49Y-94.875
T2
X158.89Y-131.275
X158.89Y-131.91
X159.525Y-131.275
X159.525Y-131.91
X160.925Y-107.5
X160.925Y-108.135
X160.925Y-108.77
X160.925Y-111.245
X160.925Y-111.88
X160.925Y-112.515
X161.56Y-107.5
X161.56Y-108.135
X161.56Y-108.77
X161.56Y-111.245
X161.56Y-111.88
X161.56Y-112.515
X162.195Y-107.5
X162.195Y-108.135
X162.195Y-108.77
X162.195Y-111.245
X162.195Y-111.88
X162.195Y-112.515
X162.35Y-126.05
X164.975Y-110.175
X164.975Y-137.95
X165.0Y-134.9
X165.49Y-130.5
X165.49Y-131.135
X166.125Y-130.5
X166.125Y-131.135
X166.575Y-110.175
X167.5Y-138.0
X167.825Y-133.03
X167.83Y-119.62
X168.45Y-108.976
X168.575Y-138.0
X169.3Y-108.976
X170.4Y-135.95
X171.77Y-125.27
X171.879Y-136.583
X172.77Y-118.78
X172.925Y-127.475
X172.97Y-115.799
X172.972Y-123.783
X172.99Y-124.491
X173.025Y-129.0
X173.028Y-129.778
X173.393Y-118.181
X173.549Y-122.351
X173.575Y-123.151
X173.625Y-130.875
X173.675Y-116.4
X174.15Y-121.75
X174.675Y-137.575
X174.7Y-135.675
X175.311Y-125.161
X175.311Y-126.177
X175.311Y-127.193
X175.311Y-128.209
X175.311Y-129.225
X175.635Y-115.255
X175.8Y-137.975
X176.327Y-125.161
X176.327Y-126.177
X176.327Y-127.193
X176.327Y-128.209
X176.327Y-129.225
X176.47Y-114.65
X176.625Y-110.2
X177.343Y-125.161
X177.343Y-126.177
X177.343Y-127.193
X177.343Y-128.209
X177.343Y-129.225
X178.175Y-110.2
X178.359Y-125.161
X178.359Y-126.177
X178.359Y-127.193
X178.359Y-128.209
X178.359Y-129.225
X179.075Y-113.775
X179.375Y-125.161
X179.375Y-126.177
X179.375Y-127.193
X179.375Y-128.209
X179.375Y-129.225
X179.74Y-108.976
X179.75Y-132.85
X179.752Y-131.56
X180.225Y-132.15
X180.25Y-122.275
X180.59Y-108.976
X180.6Y-115.55
X181.425Y-115.55
X181.775Y-129.005
X181.8Y-128.125
X181.825Y-129.825
X181.825Y-130.575
X181.95Y-124.725
X181.974Y-135.699
X182.576Y-136.301
X183.275Y-113.88
X184.125Y-113.88
X184.65Y-121.95
X185.225Y-111.675
X185.94Y-116.075
X185.94Y-116.71
X186.575Y-116.075
X186.575Y-116.71
X186.95Y-133.999
X188.25Y-110.2
X188.405Y-113.89
X188.5Y-136.422
X189.255Y-113.89
X189.75Y-134.55
X189.775Y-122.0
X189.8Y-110.2
X190.725Y-127.4
X190.725Y-128.25
X191.05Y-134.527
X191.065Y-116.025
X191.065Y-116.66
X191.23Y-108.976
X191.7Y-116.025
X191.7Y-116.66
X192.08Y-108.976
X193.49Y-113.9
X194.34Y-113.9
X194.875Y-121.925
X196.1Y-134.9
X197.15Y-134.875
X199.0Y-118.725
X199.05Y-114.925
X199.05Y-116.175
X199.05Y-117.45
X199.875Y-119.9
T3
X158.88Y-117.415
X158.88Y-118.05
X158.88Y-118.685
X158.88Y-119.32
X158.89Y-127.725
X158.89Y-128.36
X158.89Y-128.995
X158.89Y-129.63
X159.515Y-117.415
X159.515Y-118.05
X159.515Y-118.685
X159.515Y-119.32
X159.525Y-127.725
X159.525Y-128.36
X159.525Y-128.995
X159.525Y-129.63
X164.325Y-99.275
X164.325Y-99.925
X164.325Y-100.575
X164.325Y-101.225
X164.325Y-101.875
X164.325Y-102.525
X164.975Y-99.275
X164.975Y-99.925
X164.975Y-100.575
X164.975Y-101.225
X164.975Y-101.875
X164.975Y-102.525
X165.264Y-105.122
X165.264Y-105.814
X165.264Y-106.525
X165.264Y-107.236
X165.264Y-107.947
X165.625Y-99.275
X165.625Y-99.925
X165.625Y-100.575
X165.625Y-101.225
X165.625Y-101.875
X165.625Y-102.525
X165.975Y-105.122
X165.975Y-105.814
X165.975Y-106.525
X165.975Y-107.236
X165.975Y-107.947
X166.275Y-99.275
X166.275Y-99.925
X166.275Y-100.575
X166.275Y-101.225
X166.275Y-101.875
X166.275Y-102.525
X166.686Y-105.122
X166.686Y-107.947
X166.925Y-99.275
X166.925Y-99.925
X166.925Y-100.575
X166.925Y-101.225
X166.925Y-101.875
X166.925Y-102.525
X167.575Y-99.275
X167.575Y-99.925
X167.575Y-100.575
X167.575Y-101.225
X167.575Y-101.875
X167.575Y-102.525
X175.725Y-99.275
X175.725Y-99.925
X175.725Y-100.575
X175.725Y-101.225
X175.725Y-101.875
X175.725Y-102.525
X176.375Y-99.275
X176.375Y-99.925
X176.375Y-100.575
X176.375Y-101.225
X176.375Y-101.875
X176.375Y-102.525
X176.55Y-105.15
X176.55Y-105.841
X176.55Y-106.553
X176.55Y-107.264
X176.55Y-107.975
X177.025Y-99.275
X177.025Y-99.925
X177.025Y-100.575
X177.025Y-101.225
X177.025Y-101.875
X177.025Y-102.525
X177.261Y-105.15
X177.261Y-105.841
X177.261Y-106.553
X177.261Y-107.264
X177.261Y-107.975
X177.675Y-99.275
X177.675Y-99.925
X177.675Y-100.575
X177.675Y-101.225
X177.675Y-101.875
X177.675Y-102.525
X177.972Y-105.15
X177.972Y-107.975
X178.325Y-99.275
X178.325Y-99.925
X178.325Y-100.575
X178.325Y-101.225
X178.325Y-101.875
X178.325Y-102.525
X178.975Y-99.275
X178.975Y-99.925
X178.975Y-100.575
X178.975Y-101.225
X178.975Y-101.875
X178.975Y-102.525
X187.175Y-99.275
X187.175Y-99.925
X187.175Y-100.575
X187.175Y-101.225
X187.175Y-101.875
X187.175Y-102.525
X187.825Y-99.275
X187.825Y-99.925
X187.825Y-100.575
X187.825Y-101.225
X187.825Y-101.875
X187.825Y-102.525
X188.025Y-105.175
X188.025Y-105.866
X188.025Y-106.578
X188.025Y-107.289
X188.025Y-108.0
X188.475Y-99.275
X188.475Y-99.925
X188.475Y-100.575
X188.475Y-101.225
X188.475Y-101.875
X188.475Y-102.525
X188.736Y-105.175
X188.736Y-105.866
X188.736Y-106.578
X188.736Y-107.289
X188.736Y-108.0
X189.125Y-99.275
X189.125Y-99.925
X189.125Y-100.575
X189.125Y-101.225
X189.125Y-101.875
X189.125Y-102.525
X189.447Y-105.175
X189.447Y-108.0
X189.775Y-99.275
X189.775Y-99.925
X189.775Y-100.575
X189.775Y-101.225
X189.775Y-101.875
X189.775Y-102.525
X190.425Y-99.275
X190.425Y-99.925
X190.425Y-100.575
X190.425Y-101.225
X190.425Y-101.875
X190.425Y-102.525
T5
X159.932Y-136.25
X159.932Y-95.714
X200.468Y-95.714
X200.468Y-136.25
T4
G00X195.338Y-123.695
M15
G01X196.137Y-123.695
M16
G05
G00X195.337Y-132.355
M15
G01X196.138Y-132.355
M16
G05
G00X199.618Y-123.695
M15
G01X200.217Y-123.695
M16
G05
G00X199.618Y-132.355
M15
G01X200.217Y-132.355
M16
G05
T6
G00X200.375Y-100.8
M15
G01X200.375Y-101.3
M16
G05
G00X200.375Y-106.35
M15
G01X200.375Y-106.85
M16
G05
G00X200.4Y-106.35
M15
G01X200.4Y-106.85
M16
G05
M30
