%TF.GenerationSoftware,KiCad,Pcbnew,9.0.0-rc3-101-g1c85751bf0*%
%TF.CreationDate,2025-12-24T13:29:29+08:00*%
%TF.ProjectId,M4310_Drv,4d343331-305f-4447-9276-2e6b69636164,rev?*%
%TF.SameCoordinates,Original*%
%TF.FileFunction,Legend,Bot*%
%TF.FilePolarity,Positive*%
%FSLAX46Y46*%
G04 Gerber Fmt 4.6, Leading zero omitted, Abs format (unit mm)*
G04 Created by KiCad (PCBNEW 9.0.0-rc3-101-g1c85751bf0) date 2025-12-24 13:29:29*
%MOMM*%
%LPD*%
G01*
G04 APERTURE LIST*
%ADD10C,0.127000*%
%ADD11C,0.150000*%
G04 APERTURE END LIST*
D10*
X177730000Y-118730000D02*
X182730000Y-118730000D01*
X182730000Y-123730000D01*
X177730000Y-123730000D01*
X177730000Y-118730000D01*
G36*
X177730000Y-118730000D02*
G01*
X182730000Y-118730000D01*
X182730000Y-123730000D01*
X177730000Y-123730000D01*
X177730000Y-118730000D01*
G37*
D11*
%TO.C,C40*%
X168163571Y-102845000D02*
X168163571Y-101365000D01*
X168163571Y-104705000D02*
X168163571Y-106185000D01*
X168313571Y-101215000D02*
X170193571Y-101215000D01*
X168313571Y-106335000D02*
X170193571Y-106335000D01*
X170343571Y-101365000D02*
X170343571Y-102845000D01*
X170343571Y-106185000D02*
X170343571Y-104705000D01*
%TO.C,C28*%
X185877857Y-102845000D02*
X185877857Y-101365000D01*
X185877857Y-104705000D02*
X185877857Y-106185000D01*
X186027857Y-101215000D02*
X187907857Y-101215000D01*
X186027857Y-106335000D02*
X187907857Y-106335000D01*
X188057857Y-101365000D02*
X188057857Y-102845000D01*
X188057857Y-106185000D02*
X188057857Y-104705000D01*
%TO.C,C36*%
X190306429Y-102845000D02*
X190306429Y-101365000D01*
X190306429Y-104705000D02*
X190306429Y-106185000D01*
X190456429Y-101215000D02*
X192336429Y-101215000D01*
X190456429Y-106335000D02*
X192336429Y-106335000D01*
X192486429Y-101365000D02*
X192486429Y-102845000D01*
X192486429Y-106185000D02*
X192486429Y-104705000D01*
%TO.C,C38*%
X177020714Y-102845000D02*
X177020714Y-101365000D01*
X177020714Y-104705000D02*
X177020714Y-106185000D01*
X177170714Y-101215000D02*
X179050714Y-101215000D01*
X177170714Y-106335000D02*
X179050714Y-106335000D01*
X179200714Y-101365000D02*
X179200714Y-102845000D01*
X179200714Y-106185000D02*
X179200714Y-104705000D01*
%TO.C,C37*%
X181449286Y-102845000D02*
X181449286Y-101365000D01*
X181449286Y-104705000D02*
X181449286Y-106185000D01*
X181599286Y-101215000D02*
X183479286Y-101215000D01*
X181599286Y-106335000D02*
X183479286Y-106335000D01*
X183629286Y-101365000D02*
X183629286Y-102845000D01*
X183629286Y-106185000D02*
X183629286Y-104705000D01*
%TO.C,C39*%
X172592143Y-102845000D02*
X172592143Y-101365000D01*
X172592143Y-104705000D02*
X172592143Y-106185000D01*
X172742143Y-101215000D02*
X174622143Y-101215000D01*
X172742143Y-106335000D02*
X174622143Y-106335000D01*
X174772143Y-101365000D02*
X174772143Y-102845000D01*
X174772143Y-106185000D02*
X174772143Y-104705000D01*
%TO.C,C32*%
X194735000Y-102845000D02*
X194735000Y-101365000D01*
X194735000Y-104705000D02*
X194735000Y-106185000D01*
X194885000Y-101215000D02*
X196765000Y-101215000D01*
X194885000Y-106335000D02*
X196765000Y-106335000D01*
X196915000Y-101365000D02*
X196915000Y-102845000D01*
X196915000Y-106185000D02*
X196915000Y-104705000D01*
%TO.C,C41*%
X163735000Y-102845000D02*
X163735000Y-101365000D01*
X163735000Y-104705000D02*
X163735000Y-106185000D01*
X163885000Y-101215000D02*
X165765000Y-101215000D01*
X163885000Y-106335000D02*
X165765000Y-106335000D01*
X165915000Y-101365000D02*
X165915000Y-102845000D01*
X165915000Y-106185000D02*
X165915000Y-104705000D01*
%TD*%
M02*
