%TF.GenerationSoftware,KiCad,Pcbnew,9.0.0-rc3-101-g1c85751bf0*%
%TF.CreationDate,2025-12-24T13:29:29+08:00*%
%TF.ProjectId,M4310_Drv,4d343331-305f-4447-9276-2e6b69636164,rev?*%
%TF.SameCoordinates,Original*%
%TF.FileFunction,Copper,L4,Bot*%
%TF.FilePolarity,Positive*%
%FSLAX46Y46*%
G04 Gerber Fmt 4.6, Leading zero omitted, Abs format (unit mm)*
G04 Created by KiCad (PCBNEW 9.0.0-rc3-101-g1c85751bf0) date 2025-12-24 13:29:29*
%MOMM*%
%LPD*%
G01*
G04 APERTURE LIST*
G04 Aperture macros list*
%AMRoundRect*
0 Rectangle with rounded corners*
0 $1 Rounding radius*
0 $2 $3 $4 $5 $6 $7 $8 $9 X,Y pos of 4 corners*
0 Add a 4 corners polygon primitive as box body*
4,1,4,$2,$3,$4,$5,$6,$7,$8,$9,$2,$3,0*
0 Add four circle primitives for the rounded corners*
1,1,$1+$1,$2,$3*
1,1,$1+$1,$4,$5*
1,1,$1+$1,$6,$7*
1,1,$1+$1,$8,$9*
0 Add four rect primitives between the rounded corners*
20,1,$1+$1,$2,$3,$4,$5,0*
20,1,$1+$1,$4,$5,$6,$7,0*
20,1,$1+$1,$6,$7,$8,$9,0*
20,1,$1+$1,$8,$9,$2,$3,0*%
G04 Aperture macros list end*
%TA.AperFunction,ComponentPad*%
%ADD10RoundRect,0.500000X-1.000000X-1.500000X1.000000X-1.500000X1.000000X1.500000X-1.000000X1.500000X0*%
%TD*%
%TA.AperFunction,ComponentPad*%
%ADD11O,2.000000X1.200000*%
%TD*%
%TA.AperFunction,ComponentPad*%
%ADD12O,1.800000X1.200000*%
%TD*%
%TA.AperFunction,SMDPad,CuDef*%
%ADD13R,1.730000X1.490000*%
%TD*%
%TA.AperFunction,ViaPad*%
%ADD14C,0.600000*%
%TD*%
%TA.AperFunction,ViaPad*%
%ADD15C,0.700000*%
%TD*%
%TA.AperFunction,ViaPad*%
%ADD16C,2.500000*%
%TD*%
%TA.AperFunction,ViaPad*%
%ADD17C,0.508000*%
%TD*%
%TA.AperFunction,Conductor*%
%ADD18C,0.203200*%
%TD*%
%TA.AperFunction,Conductor*%
%ADD19C,0.254000*%
%TD*%
%TA.AperFunction,Conductor*%
%ADD20C,0.200000*%
%TD*%
%TA.AperFunction,Conductor*%
%ADD21C,0.152400*%
%TD*%
%TA.AperFunction,Conductor*%
%ADD22C,0.304800*%
%TD*%
G04 APERTURE END LIST*
D10*
%TO.P,REF\u002A\u002A,1*%
%TO.N,PGND*%
X200375001Y-106600000D03*
%TD*%
%TO.P,REF\u002A\u002A,1*%
%TO.N,DCBUS*%
X200375001Y-101050000D03*
%TD*%
%TO.P,,1*%
%TO.N,PGND*%
X200400000Y-106600000D03*
%TD*%
D11*
%TO.P,USBC1,1,EH*%
%TO.N,GND*%
X195737500Y-123695000D03*
D12*
%TO.P,USBC1,2,EH*%
X199917500Y-123695000D03*
%TO.P,USBC1,3,EH*%
X199917500Y-132355000D03*
D11*
%TO.P,USBC1,4,EH*%
X195737500Y-132355000D03*
%TD*%
D13*
%TO.P,C40,1*%
%TO.N,PGND*%
X169253571Y-105365000D03*
%TO.P,C40,2*%
%TO.N,DCBUS*%
X169253571Y-102185000D03*
%TD*%
%TO.P,C28,1*%
%TO.N,PGND*%
X186967857Y-105365000D03*
%TO.P,C28,2*%
%TO.N,DCBUS*%
X186967857Y-102185000D03*
%TD*%
%TO.P,C36,1*%
%TO.N,PGND*%
X191396429Y-105365000D03*
%TO.P,C36,2*%
%TO.N,DCBUS*%
X191396429Y-102185000D03*
%TD*%
%TO.P,C38,1*%
%TO.N,PGND*%
X178110714Y-105365000D03*
%TO.P,C38,2*%
%TO.N,DCBUS*%
X178110714Y-102185000D03*
%TD*%
%TO.P,C37,1*%
%TO.N,PGND*%
X182539286Y-105365000D03*
%TO.P,C37,2*%
%TO.N,DCBUS*%
X182539286Y-102185000D03*
%TD*%
%TO.P,C39,1*%
%TO.N,PGND*%
X173682143Y-105365000D03*
%TO.P,C39,2*%
%TO.N,DCBUS*%
X173682143Y-102185000D03*
%TD*%
%TO.P,C32,1*%
%TO.N,PGND*%
X195825000Y-105365000D03*
%TO.P,C32,2*%
%TO.N,DCBUS*%
X195825000Y-102185000D03*
%TD*%
%TO.P,C41,1*%
%TO.N,PGND*%
X164825000Y-105365000D03*
%TO.P,C41,2*%
%TO.N,DCBUS*%
X164825000Y-102185000D03*
%TD*%
D14*
%TO.N,GND*%
X162195000Y-111245000D03*
X160925000Y-112515000D03*
X161560000Y-111880000D03*
X161560000Y-112515000D03*
X161560000Y-111245000D03*
X160925000Y-111880000D03*
X162195000Y-111880000D03*
X162195000Y-112515000D03*
X160925000Y-111245000D03*
D15*
%TO.N,DCBUS*%
X158890000Y-128995000D03*
X159525000Y-128995000D03*
X159525000Y-128360000D03*
X158890000Y-129630000D03*
X158890000Y-128360000D03*
X159525000Y-127725000D03*
X158890000Y-127725000D03*
X159525000Y-129630000D03*
D14*
%TO.N,+12V*%
X167500000Y-122240000D03*
D15*
%TO.N,DCBUS*%
X158880000Y-119320000D03*
X159515000Y-118685000D03*
X158880000Y-118685000D03*
X159515000Y-118050000D03*
X158880000Y-118050000D03*
X159515000Y-117415000D03*
X158880000Y-117415000D03*
X159515000Y-119320000D03*
D16*
%TO.N,*%
X159932233Y-95714434D03*
X200467767Y-95714482D03*
X159932232Y-136250013D03*
X200467767Y-136250001D03*
D14*
%TO.N,GND*%
X176327000Y-127193000D03*
X179375000Y-128209000D03*
X175311000Y-126177000D03*
X179375000Y-129225000D03*
X175311000Y-129225000D03*
X177343000Y-128209000D03*
X181425000Y-115550000D03*
X176327000Y-126177000D03*
X158890000Y-131910000D03*
X191065000Y-116025000D03*
X185940000Y-116075000D03*
X179375000Y-126177000D03*
X178359000Y-127193000D03*
X176327000Y-129225000D03*
X186575000Y-116075000D03*
X175311000Y-127193000D03*
X178359000Y-125161000D03*
X185225000Y-111675000D03*
X175311000Y-128209000D03*
X175311000Y-125161000D03*
X170400000Y-135950000D03*
X185940000Y-116710000D03*
X177343000Y-126177000D03*
X176327000Y-128209000D03*
X177343000Y-127193000D03*
X178359000Y-128209000D03*
X176327000Y-125161000D03*
X159525000Y-131275000D03*
X191700000Y-116025000D03*
X186575000Y-116710000D03*
X191065000Y-116660000D03*
X179075000Y-113775000D03*
X179375000Y-125161000D03*
X178359000Y-129225000D03*
X179375000Y-127193000D03*
X165490000Y-131135000D03*
X180600000Y-115550000D03*
X158890000Y-131275000D03*
X165490000Y-130500000D03*
X177343000Y-125161000D03*
X166125000Y-131135000D03*
X178359000Y-126177000D03*
X166125000Y-130500000D03*
X191700000Y-116660000D03*
X159525000Y-131910000D03*
X177343000Y-129225000D03*
X180250000Y-122275000D03*
D15*
%TO.N,DCBUS*%
X176375000Y-102525000D03*
X166275000Y-102525000D03*
X166275000Y-99275000D03*
X165625000Y-100575000D03*
X187825000Y-99275000D03*
X188475000Y-102525000D03*
X189125000Y-99925000D03*
X176375000Y-101225000D03*
X164975000Y-102525000D03*
X190425000Y-101225000D03*
X188475000Y-100575000D03*
X176375000Y-99275000D03*
X188475000Y-101875000D03*
X166275000Y-101875000D03*
X165625000Y-99275000D03*
X189775000Y-100575000D03*
X189125000Y-101225000D03*
X175725000Y-99275000D03*
X177025000Y-99275000D03*
X176375000Y-99925000D03*
X175725000Y-101225000D03*
X189125000Y-100575000D03*
X164975000Y-101875000D03*
X166925000Y-101875000D03*
X177025000Y-101875000D03*
X187825000Y-99925000D03*
X178325000Y-101875000D03*
X166275000Y-99925000D03*
X188475000Y-99925000D03*
X165625000Y-101225000D03*
X187175000Y-99925000D03*
X164975000Y-99275000D03*
X164325000Y-101875000D03*
X165625000Y-101875000D03*
X164325000Y-100575000D03*
X177675000Y-99275000D03*
X166275000Y-100575000D03*
X190425000Y-100575000D03*
X187175000Y-100575000D03*
X176375000Y-100575000D03*
X189775000Y-101225000D03*
X167575000Y-102525000D03*
X189775000Y-99925000D03*
X165625000Y-102525000D03*
X188475000Y-101225000D03*
X177675000Y-102525000D03*
X188475000Y-99275000D03*
X166925000Y-102525000D03*
X178975000Y-102525000D03*
X166925000Y-99275000D03*
X189125000Y-99275000D03*
X187175000Y-101225000D03*
X189125000Y-101875000D03*
X189775000Y-101875000D03*
X167575000Y-100575000D03*
X187825000Y-101875000D03*
X189125000Y-102525000D03*
X178975000Y-101875000D03*
X175725000Y-102525000D03*
X178975000Y-99925000D03*
X187175000Y-102525000D03*
X177025000Y-102525000D03*
X178325000Y-101225000D03*
X189775000Y-99275000D03*
X178325000Y-102525000D03*
X178975000Y-101225000D03*
X177675000Y-100575000D03*
X178975000Y-100575000D03*
X166275000Y-101225000D03*
X164325000Y-102525000D03*
X190425000Y-102525000D03*
X190425000Y-99925000D03*
X190425000Y-101875000D03*
X175725000Y-101875000D03*
X189775000Y-102525000D03*
X178325000Y-99275000D03*
X164325000Y-101225000D03*
X178325000Y-100575000D03*
X178975000Y-99275000D03*
X177025000Y-99925000D03*
X187825000Y-102525000D03*
X167575000Y-101875000D03*
X167575000Y-101225000D03*
X166925000Y-100575000D03*
X164975000Y-99925000D03*
X177025000Y-101225000D03*
X166925000Y-99925000D03*
X164325000Y-99275000D03*
X164975000Y-100575000D03*
X165625000Y-99925000D03*
X177675000Y-101875000D03*
X187825000Y-101225000D03*
X177675000Y-99925000D03*
X167575000Y-99275000D03*
X178325000Y-99925000D03*
X166925000Y-101225000D03*
X177025000Y-100575000D03*
X164325000Y-99925000D03*
X176375000Y-101875000D03*
X187825000Y-100575000D03*
X167575000Y-99925000D03*
X164975000Y-101225000D03*
X177675000Y-101225000D03*
X175725000Y-100575000D03*
X190425000Y-99275000D03*
X187175000Y-99275000D03*
X175725000Y-99925000D03*
X187175000Y-101875000D03*
D14*
%TO.N,+12V*%
X167830000Y-119620000D03*
X162120000Y-115350000D03*
X180050000Y-118040000D03*
%TO.N,+5V*%
X168575000Y-138000000D03*
X167825000Y-133030000D03*
X196100000Y-134900000D03*
X162350000Y-126050000D03*
X186950000Y-133998800D03*
%TO.N,VCC*%
X175800000Y-137975000D03*
X173625000Y-130875000D03*
D17*
X167500000Y-138000000D03*
X171878730Y-136583367D03*
D14*
X171770000Y-125270000D03*
X199875000Y-119900000D03*
X188500000Y-136421600D03*
X181950000Y-124725000D03*
D17*
X173575020Y-123150618D03*
D14*
%TO.N,/SH_A*%
X190045000Y-95510000D03*
X191950000Y-94240000D03*
X193220000Y-94875000D03*
X193855000Y-94240000D03*
X190045000Y-94240000D03*
X193855000Y-95510000D03*
X191315000Y-94240000D03*
X191315000Y-95510000D03*
X188250000Y-110200000D03*
X191315000Y-94875000D03*
X190680000Y-94240000D03*
X192585000Y-95510000D03*
X176470000Y-114650000D03*
X193220000Y-94240000D03*
X190680000Y-94875000D03*
X190045000Y-94875000D03*
X192585000Y-94240000D03*
X191950000Y-94875000D03*
X188775000Y-94875000D03*
X193855000Y-94875000D03*
X189410000Y-94875000D03*
X192585000Y-94875000D03*
X189410000Y-94240000D03*
X189410000Y-95510000D03*
X190680000Y-95510000D03*
X191950000Y-95510000D03*
X193220000Y-95510000D03*
X194490000Y-94875000D03*
%TO.N,/SH_B*%
X172970000Y-115799000D03*
X177400000Y-94875000D03*
X180575000Y-95510000D03*
X176625000Y-110200000D03*
X181845000Y-94875000D03*
X178035000Y-94240000D03*
X179305000Y-94875000D03*
X181210000Y-94875000D03*
X182480000Y-94875000D03*
X181845000Y-94240000D03*
X178670000Y-94875000D03*
X181210000Y-94240000D03*
X178670000Y-95510000D03*
X179305000Y-94240000D03*
X178035000Y-95510000D03*
X179940000Y-95510000D03*
X180575000Y-94875000D03*
X182480000Y-95510000D03*
X178670000Y-94240000D03*
X183115000Y-94875000D03*
X179940000Y-94875000D03*
X182480000Y-94240000D03*
X178035000Y-94875000D03*
X181210000Y-95510000D03*
X181845000Y-95510000D03*
X179940000Y-94240000D03*
X180575000Y-94240000D03*
X179305000Y-95510000D03*
%TO.N,/SH_C*%
X166645000Y-94875000D03*
X171090000Y-95510000D03*
X168550000Y-94240000D03*
X167915000Y-95510000D03*
X169185000Y-94875000D03*
X164975000Y-110175000D03*
X167280000Y-94240000D03*
X167280000Y-94875000D03*
X171090000Y-94875000D03*
X170455000Y-95510000D03*
X166645000Y-94240000D03*
X169185000Y-94240000D03*
X169185000Y-95510000D03*
X166645000Y-95510000D03*
X171725000Y-94875000D03*
X170455000Y-94875000D03*
X166010000Y-94875000D03*
X172770000Y-118780000D03*
X169820000Y-94240000D03*
X170455000Y-94240000D03*
X168550000Y-95510000D03*
X167915000Y-94875000D03*
X167280000Y-95510000D03*
X168550000Y-94875000D03*
X169820000Y-94875000D03*
X169820000Y-95510000D03*
X171090000Y-94240000D03*
X167915000Y-94240000D03*
%TO.N,/CAN-*%
X182575521Y-136300521D03*
X174675000Y-137575000D03*
%TO.N,/CAN+*%
X174700000Y-135675000D03*
X181974479Y-135699479D03*
%TO.N,/GH_A*%
X189800000Y-110200000D03*
X175635000Y-115255000D03*
%TO.N,IA+*%
X192080000Y-108975520D03*
X194340152Y-113900000D03*
%TO.N,/GH_B*%
X178175000Y-110200000D03*
X173675000Y-116400000D03*
%TO.N,IB+*%
X189255000Y-113890000D03*
X180590000Y-108975520D03*
%TO.N,/GH_C*%
X166575000Y-110175000D03*
X173392652Y-118180878D03*
%TO.N,/USB_DN*%
X174150000Y-121750000D03*
X190725000Y-128250000D03*
%TO.N,/SPI1_MOSI*%
X199050000Y-116175000D03*
D17*
X181775000Y-129005200D03*
D14*
%TO.N,/E_CS*%
X199050000Y-114925000D03*
D17*
X181800000Y-128125000D03*
%TO.N,/SPI1_MISO*%
X181825000Y-129825000D03*
D14*
X199000000Y-118725000D03*
D17*
%TO.N,/SPI1_SCK*%
X181825000Y-130575000D03*
D14*
X199050000Y-117450000D03*
%TO.N,/USB_DP*%
X173548960Y-122351040D03*
X190725000Y-127400000D03*
D17*
%TO.N,/SW_DIO*%
X172971870Y-123782861D03*
D14*
X191050000Y-134527400D03*
D17*
%TO.N,/FDCAN_TX*%
X173025000Y-129000000D03*
X165000000Y-134900000D03*
%TO.N,/FDCAN_RX*%
X173027600Y-129777600D03*
X164975000Y-137950000D03*
%TO.N,/IB*%
X180225000Y-132150000D03*
X189775000Y-122000000D03*
%TO.N,/IC*%
X184650000Y-121950000D03*
X179752240Y-131560213D03*
D14*
%TO.N,/SPI3_MOSI*%
X197150000Y-134875000D03*
D17*
X172925000Y-127475000D03*
%TO.N,/IA*%
X194875000Y-121925000D03*
X179750000Y-132850000D03*
D14*
%TO.N,/SW_SCK*%
X189750000Y-134550000D03*
D17*
X172990156Y-124490628D03*
D14*
%TO.N,/IC+*%
X169300000Y-108975520D03*
X184125000Y-113880000D03*
D15*
%TO.N,PGND*%
X188736200Y-106577600D03*
X188025000Y-105175000D03*
X165975000Y-105813800D03*
D14*
X179740000Y-108975520D03*
X160925000Y-107500000D03*
D15*
X177261200Y-107263800D03*
D14*
X183275000Y-113880000D03*
D15*
X189447400Y-105175000D03*
X165975000Y-107236200D03*
X176550000Y-107975000D03*
X176550000Y-105841400D03*
X166686200Y-105122400D03*
X165975000Y-105122400D03*
X165263800Y-107236200D03*
X176550000Y-107263800D03*
X189447400Y-108000000D03*
X188025000Y-105866400D03*
X188025000Y-107288800D03*
X177261200Y-105150000D03*
D14*
X162195000Y-108135000D03*
D15*
X177261200Y-105841400D03*
X177972400Y-105150000D03*
X165263800Y-105122400D03*
X176550000Y-105150000D03*
X188736200Y-105866400D03*
D14*
X162195000Y-108770000D03*
X168450000Y-108975520D03*
D15*
X166686200Y-107947400D03*
X188025000Y-108000000D03*
X165263800Y-105813800D03*
D14*
X160925000Y-108770000D03*
D15*
X165263800Y-106525000D03*
D14*
X160925000Y-108135000D03*
D15*
X177261200Y-106552600D03*
X165975000Y-106525000D03*
D14*
X162195000Y-107500000D03*
D15*
X177261200Y-107975000D03*
D14*
X193490152Y-113900000D03*
D15*
X177972400Y-107975000D03*
D14*
X188405000Y-113890000D03*
D15*
X188736200Y-108000000D03*
X165975000Y-107947400D03*
D14*
X161560000Y-108770000D03*
X161560000Y-108135000D03*
X191230000Y-108975520D03*
D15*
X188025000Y-106577600D03*
X188736200Y-107288800D03*
X188736200Y-105175000D03*
D14*
X161560000Y-107500000D03*
D15*
X176550000Y-106552600D03*
X165263800Y-107947400D03*
%TD*%
D18*
%TO.N,GND*%
X181818691Y-120550000D02*
X181840413Y-120528278D01*
X182025000Y-120550000D02*
X181818691Y-120550000D01*
D19*
%TO.N,+12V*%
X175080000Y-118040000D02*
X180050000Y-118040000D01*
D20*
X163560000Y-115350000D02*
X162120000Y-115350000D01*
D19*
X173610000Y-119510000D02*
X175080000Y-118040000D01*
D20*
X167830000Y-119620000D02*
X163560000Y-115350000D01*
D19*
X167940000Y-119510000D02*
X173610000Y-119510000D01*
X167830000Y-119620000D02*
X167940000Y-119510000D01*
D21*
%TO.N,+5V*%
X166550000Y-126050000D02*
X162400000Y-126050000D01*
X167825000Y-133030000D02*
X167825000Y-127325000D01*
X167825000Y-127325000D02*
X167750000Y-127250000D01*
D22*
X167825000Y-133030000D02*
X167825000Y-137250000D01*
X167825000Y-137250000D02*
X168575000Y-138000000D01*
D21*
X162400000Y-126050000D02*
X162350000Y-126050000D01*
X167750000Y-127250000D02*
X166550000Y-126050000D01*
D20*
%TO.N,VCC*%
X172499382Y-123150618D02*
X173575020Y-123150618D01*
D19*
X188528400Y-136496600D02*
X188528400Y-136450000D01*
X182675000Y-137275000D02*
X183528400Y-136421600D01*
X171878730Y-131671270D02*
X172675000Y-130875000D01*
X175800000Y-137975000D02*
X176500000Y-137275000D01*
D20*
X201250000Y-128825000D02*
X201250000Y-121275000D01*
X181950000Y-124000000D02*
X181950000Y-124725000D01*
X193653400Y-136421600D02*
X201250000Y-128825000D01*
X181100618Y-123150618D02*
X181950000Y-124000000D01*
D19*
X171878730Y-136583367D02*
X171878730Y-131671270D01*
D20*
X175599000Y-138176000D02*
X175800000Y-137975000D01*
X171770000Y-123880000D02*
X172499382Y-123150618D01*
D19*
X171878730Y-136583367D02*
X173471363Y-138176000D01*
X173471363Y-138176000D02*
X175599000Y-138176000D01*
X183528400Y-136421600D02*
X188500000Y-136421600D01*
X171770000Y-129970000D02*
X171770000Y-125270000D01*
X173625000Y-130875000D02*
X172675000Y-130875000D01*
D20*
X173575020Y-123150618D02*
X181100618Y-123150618D01*
D19*
X172675000Y-130875000D02*
X171770000Y-129970000D01*
D20*
X188500000Y-136421600D02*
X188500000Y-136550000D01*
X171770000Y-125270000D02*
X171770000Y-123880000D01*
X201250000Y-121275000D02*
X199875000Y-119900000D01*
D19*
X176500000Y-137275000D02*
X182675000Y-137275000D01*
D20*
X188500000Y-136421600D02*
X193653400Y-136421600D01*
D19*
X188528400Y-136450000D02*
X188500000Y-136421600D01*
D20*
%TO.N,/SH_A*%
X186161000Y-112289000D02*
X188250000Y-110200000D01*
X176470000Y-114000000D02*
X178181000Y-112289000D01*
X176470000Y-114650000D02*
X176470000Y-114000000D01*
X178181000Y-112289000D02*
X186161000Y-112289000D01*
%TO.N,/SH_B*%
X176625000Y-112144000D02*
X172970000Y-115799000D01*
X176625000Y-110200000D02*
X176625000Y-112144000D01*
%TO.N,/SH_C*%
X166150000Y-115150000D02*
X169780000Y-118780000D01*
X169975000Y-118780000D02*
X172770000Y-118780000D01*
X166150000Y-111350000D02*
X166150000Y-115150000D01*
X169780000Y-118780000D02*
X169975000Y-118780000D01*
X164975000Y-110175000D02*
X166150000Y-111350000D01*
%TO.N,/CAN-*%
X174675000Y-137575000D02*
X175412499Y-136837501D01*
X175412499Y-136837501D02*
X181755698Y-136837501D01*
X181755698Y-136837501D02*
X182292678Y-136300521D01*
X182292678Y-136300521D02*
X182575521Y-136300521D01*
%TO.N,/CAN+*%
X174700000Y-135675000D02*
X175412499Y-136387499D01*
X181569302Y-136387499D02*
X181974479Y-135982322D01*
X181974479Y-135982322D02*
X181974479Y-135699479D01*
X175412499Y-136387499D02*
X181569302Y-136387499D01*
%TO.N,/GH_A*%
X176835000Y-115255000D02*
X177190000Y-114900000D01*
X175635000Y-115255000D02*
X176835000Y-115255000D01*
X187310000Y-112690000D02*
X189800000Y-110200000D01*
X178560000Y-112690000D02*
X187310000Y-112690000D01*
X177190000Y-114900000D02*
X177190000Y-114060000D01*
X177190000Y-114060000D02*
X178560000Y-112690000D01*
%TO.N,/GH_B*%
X177025000Y-111350000D02*
X177025000Y-112300000D01*
X178175000Y-110200000D02*
X177025000Y-111350000D01*
X177025000Y-112300000D02*
X173675000Y-115650000D01*
X173675000Y-115650000D02*
X173675000Y-116400000D01*
%TO.N,/GH_C*%
X169600000Y-118125000D02*
X173336774Y-118125000D01*
X166575000Y-115100000D02*
X169600000Y-118125000D01*
X166575000Y-110175000D02*
X166575000Y-115100000D01*
D21*
%TO.N,/USB_DN*%
X173726200Y-121048757D02*
X173979272Y-120795685D01*
X187316660Y-128026200D02*
X190501200Y-128026200D01*
X190501200Y-128026200D02*
X190725000Y-128250000D01*
X173979272Y-120795685D02*
X180086145Y-120795685D01*
X173726200Y-121642700D02*
X173726200Y-121048757D01*
X180086145Y-120795685D02*
X187316660Y-128026200D01*
X174150000Y-121750000D02*
X173833500Y-121750000D01*
X173833500Y-121750000D02*
X173726200Y-121642700D01*
%TO.N,/SPI1_MOSI*%
X183125000Y-129750000D02*
X195375000Y-129750000D01*
X181775000Y-129005200D02*
X182380200Y-129005200D01*
X195375000Y-129750000D02*
X197727200Y-127397800D01*
X198616285Y-116175000D02*
X199050000Y-116175000D01*
X182380200Y-129005200D02*
X183125000Y-129750000D01*
X197727200Y-127397800D02*
X197727200Y-117064085D01*
X197727200Y-117064085D02*
X198616285Y-116175000D01*
%TO.N,/E_CS*%
X197350000Y-127225000D02*
X197350000Y-116650000D01*
X181800000Y-128125000D02*
X182054600Y-128379600D01*
X195175000Y-129400000D02*
X197350000Y-127225000D01*
X183550000Y-129400000D02*
X195175000Y-129400000D01*
X199050000Y-114950000D02*
X199050000Y-114925000D01*
X197350000Y-116650000D02*
X199050000Y-114950000D01*
X182529600Y-128379600D02*
X183550000Y-129400000D01*
X181800000Y-128125000D02*
X181800000Y-128250000D01*
X182054600Y-128379600D02*
X182529600Y-128379600D01*
%TO.N,/SPI1_MISO*%
X198080600Y-127544183D02*
X198080600Y-119644400D01*
X181825000Y-129825000D02*
X182150000Y-130150000D01*
X182150000Y-130150000D02*
X195474783Y-130150000D01*
X198080600Y-119644400D02*
X199000000Y-118725000D01*
X195474783Y-130150000D02*
X198080600Y-127544183D01*
%TO.N,/SPI1_SCK*%
X198434000Y-120291000D02*
X199800000Y-118925000D01*
X195549567Y-130575000D02*
X198434000Y-127690566D01*
X198434000Y-127690566D02*
X198434000Y-120291000D01*
X199275000Y-117450000D02*
X199050000Y-117450000D01*
X199800000Y-117975000D02*
X199275000Y-117450000D01*
X181825000Y-130575000D02*
X195549567Y-130575000D01*
X199800000Y-118925000D02*
X199800000Y-117975000D01*
%TO.N,/USB_DP*%
X190501200Y-127623800D02*
X190725000Y-127400000D01*
X173812592Y-120393285D02*
X180252825Y-120393285D01*
X173548960Y-122034540D02*
X173323800Y-121809380D01*
X173323800Y-120882077D02*
X173812592Y-120393285D01*
X187483340Y-127623800D02*
X190501200Y-127623800D01*
X173323800Y-121809380D02*
X173323800Y-120882077D01*
X173548960Y-122351040D02*
X173548960Y-122034540D01*
X180252825Y-120393285D02*
X187483340Y-127623800D01*
%TO.N,/SW_DIO*%
X172750000Y-133570000D02*
X172750000Y-132600216D01*
X174200000Y-126700000D02*
X172435156Y-124935156D01*
X172435156Y-124935156D02*
X172435156Y-124260739D01*
X191050000Y-134527400D02*
X191050000Y-134790000D01*
X191050000Y-134790000D02*
X190700000Y-135140000D01*
X172913034Y-123782861D02*
X172971870Y-123782861D01*
X172435156Y-124260739D02*
X172913034Y-123782861D01*
X174200000Y-129325000D02*
X174200000Y-126700000D01*
X172750000Y-132600216D02*
X174202200Y-131148016D01*
X174202200Y-129327200D02*
X174200000Y-129325000D01*
X184300000Y-134420000D02*
X173600000Y-134420000D01*
X190700000Y-135140000D02*
X185020000Y-135140000D01*
X174202200Y-131148016D02*
X174202200Y-129327200D01*
X185020000Y-135140000D02*
X184300000Y-134420000D01*
X173600000Y-134420000D02*
X172750000Y-133570000D01*
%TO.N,/SW_SCK*%
X174600000Y-131250000D02*
X174600000Y-126100472D01*
X174600000Y-126100472D02*
X172990156Y-124490628D01*
X189500000Y-134800000D02*
X185250000Y-134800000D01*
X173103400Y-132746600D02*
X174600000Y-131250000D01*
X173650000Y-134020000D02*
X173103400Y-133473400D01*
X173103400Y-133473400D02*
X173103400Y-132746600D01*
X189750000Y-134550000D02*
X189500000Y-134800000D01*
X185250000Y-134800000D02*
X184470000Y-134020000D01*
X184470000Y-134020000D02*
X173650000Y-134020000D01*
%TD*%
%TA.AperFunction,Conductor*%
%TO.N,DCBUS*%
G36*
X201715677Y-98919685D02*
G01*
X201736319Y-98936319D01*
X201863681Y-99063681D01*
X201897166Y-99125004D01*
X201900000Y-99151362D01*
X201900000Y-102898638D01*
X201891355Y-102928078D01*
X201884832Y-102958065D01*
X201881077Y-102963080D01*
X201880315Y-102965677D01*
X201863681Y-102986319D01*
X201736319Y-103113681D01*
X201674996Y-103147166D01*
X201648638Y-103150000D01*
X163901362Y-103150000D01*
X163834323Y-103130315D01*
X163813681Y-103113681D01*
X163686319Y-102986319D01*
X163652834Y-102924996D01*
X163650000Y-102898638D01*
X163650000Y-100929999D01*
X163650000Y-99000000D01*
X163659976Y-98990023D01*
X163669685Y-98956961D01*
X163722489Y-98911206D01*
X163774000Y-98900000D01*
X201648638Y-98900000D01*
X201715677Y-98919685D01*
G37*
%TD.AperFunction*%
%TD*%
%TA.AperFunction,Conductor*%
%TO.N,PGND*%
G36*
X201715677Y-104519685D02*
G01*
X201736319Y-104536319D01*
X201863681Y-104663681D01*
X201897166Y-104725004D01*
X201900000Y-104751362D01*
X201900000Y-108098638D01*
X201891355Y-108128078D01*
X201884832Y-108158065D01*
X201881077Y-108163080D01*
X201880315Y-108165677D01*
X201863681Y-108186319D01*
X201736319Y-108313681D01*
X201674996Y-108347166D01*
X201648638Y-108350000D01*
X164190000Y-108350000D01*
X163582500Y-108687500D01*
X163582499Y-108687500D01*
X163163647Y-108920193D01*
X163163646Y-108920195D01*
X162975001Y-109024998D01*
X162974999Y-109025001D01*
X162979959Y-109223376D01*
X162979959Y-109223389D01*
X162997448Y-109922901D01*
X162979445Y-109990411D01*
X162927802Y-110037472D01*
X162873487Y-110050000D01*
X160651362Y-110050000D01*
X160621921Y-110041355D01*
X160591935Y-110034832D01*
X160586919Y-110031077D01*
X160584323Y-110030315D01*
X160563681Y-110013681D01*
X160436319Y-109886319D01*
X160402834Y-109824996D01*
X160400000Y-109798638D01*
X160400000Y-107452501D01*
X160411628Y-107400075D01*
X160541631Y-107121418D01*
X160574328Y-107078832D01*
X163479998Y-104642539D01*
X163517276Y-104621030D01*
X163750156Y-104536319D01*
X163829465Y-104507470D01*
X163871853Y-104500000D01*
X201648638Y-104500000D01*
X201715677Y-104519685D01*
G37*
%TD.AperFunction*%
%TD*%
%TA.AperFunction,Conductor*%
%TO.N,GND*%
G36*
X164900595Y-110677901D02*
G01*
X164900630Y-110677639D01*
X164908686Y-110678699D01*
X164908687Y-110678700D01*
X164955584Y-110678700D01*
X164961674Y-110679818D01*
X164965204Y-110679074D01*
X164999643Y-110686792D01*
X165061629Y-110710354D01*
X165065408Y-110711791D01*
X165067813Y-110712705D01*
X165111435Y-110740932D01*
X165809981Y-111439478D01*
X165843466Y-111500801D01*
X165846300Y-111527159D01*
X165846300Y-115189986D01*
X165866994Y-115267221D01*
X165866996Y-115267224D01*
X165906979Y-115336476D01*
X165906980Y-115336477D01*
X165906981Y-115336478D01*
X169532638Y-118962134D01*
X169532654Y-118962150D01*
X169538137Y-118967635D01*
X169539214Y-118969608D01*
X169540216Y-118970432D01*
X169540226Y-118970444D01*
X169539843Y-118970762D01*
X169555167Y-118998837D01*
X169571606Y-119028942D01*
X169571605Y-119028953D01*
X169571611Y-119028964D01*
X169569098Y-119064009D01*
X169566622Y-119098634D01*
X169566614Y-119098643D01*
X169566614Y-119098655D01*
X169545396Y-119126987D01*
X169524750Y-119154567D01*
X169524739Y-119154570D01*
X169524732Y-119154581D01*
X169489376Y-119167760D01*
X169459286Y-119178984D01*
X169459267Y-119178984D01*
X169459264Y-119178986D01*
X169459259Y-119178984D01*
X169450440Y-119179300D01*
X168248710Y-119179300D01*
X168224441Y-119176902D01*
X168211364Y-119174292D01*
X168211361Y-119174291D01*
X168098418Y-119174215D01*
X168036504Y-119157603D01*
X168024421Y-119150627D01*
X167896313Y-119116300D01*
X167896310Y-119116300D01*
X167849414Y-119116300D01*
X167843322Y-119115181D01*
X167839792Y-119115926D01*
X167805354Y-119108208D01*
X167737181Y-119082293D01*
X167693564Y-119054067D01*
X163746478Y-115106981D01*
X163746476Y-115106979D01*
X163677224Y-115066996D01*
X163677221Y-115066994D01*
X163599986Y-115046300D01*
X163599983Y-115046300D01*
X162580001Y-115046300D01*
X162512962Y-115026615D01*
X162492320Y-115009981D01*
X162429280Y-114946941D01*
X162429275Y-114946937D01*
X162314423Y-114880628D01*
X162314422Y-114880627D01*
X162282394Y-114872045D01*
X162186313Y-114846300D01*
X162053687Y-114846300D01*
X161976822Y-114866896D01*
X161925577Y-114880627D01*
X161925576Y-114880628D01*
X161810724Y-114946937D01*
X161810719Y-114946941D01*
X161716941Y-115040719D01*
X161716937Y-115040724D01*
X161650628Y-115155576D01*
X161650627Y-115155577D01*
X161633463Y-115219633D01*
X161616300Y-115283687D01*
X161616300Y-115283689D01*
X161616300Y-115416310D01*
X161616299Y-115416310D01*
X161650627Y-115544422D01*
X161650628Y-115544423D01*
X161716937Y-115659275D01*
X161716939Y-115659278D01*
X161716940Y-115659279D01*
X161810721Y-115753060D01*
X161810722Y-115753061D01*
X161810724Y-115753062D01*
X161822946Y-115760118D01*
X161925579Y-115819373D01*
X162053687Y-115853700D01*
X162053690Y-115853700D01*
X162186310Y-115853700D01*
X162186313Y-115853700D01*
X162314421Y-115819373D01*
X162429279Y-115753060D01*
X162492320Y-115690019D01*
X162553643Y-115656534D01*
X162580001Y-115653700D01*
X163382841Y-115653700D01*
X163449880Y-115673385D01*
X163470522Y-115690019D01*
X167264067Y-119483564D01*
X167269689Y-119492252D01*
X167275185Y-119496313D01*
X167292292Y-119527181D01*
X167316448Y-119590724D01*
X167318208Y-119595352D01*
X167326300Y-119639414D01*
X167326300Y-119686310D01*
X167326299Y-119686310D01*
X167360627Y-119814422D01*
X167360628Y-119814423D01*
X167426937Y-119929275D01*
X167426939Y-119929278D01*
X167426940Y-119929279D01*
X167520721Y-120023060D01*
X167520722Y-120023061D01*
X167520724Y-120023062D01*
X167528834Y-120027744D01*
X167635579Y-120089373D01*
X167763687Y-120123700D01*
X167763690Y-120123700D01*
X167896310Y-120123700D01*
X167896313Y-120123700D01*
X168024421Y-120089373D01*
X168139279Y-120023060D01*
X168233060Y-119929279D01*
X168248404Y-119902702D01*
X168298970Y-119854485D01*
X168355792Y-119840700D01*
X173653535Y-119840700D01*
X173653537Y-119840700D01*
X173653538Y-119840700D01*
X173737646Y-119818164D01*
X173813055Y-119774626D01*
X173874626Y-119713055D01*
X173874626Y-119713053D01*
X173884830Y-119702850D01*
X173884833Y-119702845D01*
X175180661Y-118407019D01*
X175241984Y-118373534D01*
X175268342Y-118370700D01*
X179616999Y-118370700D01*
X179684038Y-118390385D01*
X179704680Y-118407019D01*
X179740721Y-118443060D01*
X179855579Y-118509373D01*
X179983687Y-118543700D01*
X179983690Y-118543700D01*
X180116310Y-118543700D01*
X180116313Y-118543700D01*
X180244421Y-118509373D01*
X180359279Y-118443060D01*
X180453060Y-118349279D01*
X180519373Y-118234421D01*
X180553700Y-118106313D01*
X180553700Y-117973687D01*
X180519373Y-117845579D01*
X180480077Y-117777516D01*
X180453062Y-117730724D01*
X180453058Y-117730719D01*
X180359280Y-117636941D01*
X180359275Y-117636937D01*
X180244423Y-117570628D01*
X180244422Y-117570627D01*
X180212394Y-117562045D01*
X180116313Y-117536300D01*
X179983687Y-117536300D01*
X179906822Y-117556896D01*
X179855577Y-117570627D01*
X179855576Y-117570628D01*
X179740724Y-117636937D01*
X179740719Y-117636941D01*
X179704680Y-117672981D01*
X179643357Y-117706466D01*
X179616999Y-117709300D01*
X175036460Y-117709300D01*
X174952353Y-117731836D01*
X174876945Y-117775374D01*
X174876942Y-117775376D01*
X174834964Y-117817355D01*
X174815374Y-117836945D01*
X174815372Y-117836947D01*
X174162162Y-118490158D01*
X173509339Y-119142981D01*
X173448016Y-119176466D01*
X173421658Y-119179300D01*
X173335860Y-119179300D01*
X173268821Y-119159615D01*
X173223066Y-119106811D01*
X173213122Y-119037653D01*
X173228471Y-118993302D01*
X173239373Y-118974421D01*
X173273700Y-118846313D01*
X173273700Y-118808578D01*
X173293385Y-118741539D01*
X173346189Y-118695784D01*
X173397700Y-118684578D01*
X173458962Y-118684578D01*
X173458965Y-118684578D01*
X173587073Y-118650251D01*
X173701931Y-118583938D01*
X173795712Y-118490157D01*
X173862025Y-118375299D01*
X173896352Y-118247191D01*
X173896352Y-118114565D01*
X173862025Y-117986457D01*
X173822762Y-117918451D01*
X173795714Y-117871602D01*
X173795710Y-117871597D01*
X173701932Y-117777819D01*
X173701927Y-117777815D01*
X173587075Y-117711506D01*
X173587074Y-117711505D01*
X173555046Y-117702923D01*
X173458965Y-117677178D01*
X173326339Y-117677178D01*
X173249474Y-117697774D01*
X173198229Y-117711505D01*
X173198224Y-117711508D01*
X173083894Y-117777516D01*
X173052924Y-117790184D01*
X172947797Y-117817355D01*
X172916768Y-117821300D01*
X169777159Y-117821300D01*
X169710120Y-117801615D01*
X169689478Y-117784981D01*
X166915019Y-115010522D01*
X166881534Y-114949199D01*
X166878700Y-114922841D01*
X166878700Y-110799000D01*
X166898385Y-110731961D01*
X166951189Y-110686206D01*
X167002700Y-110675000D01*
X176197300Y-110675000D01*
X176264339Y-110694685D01*
X176310094Y-110747489D01*
X176321300Y-110799000D01*
X176321300Y-111966840D01*
X176301615Y-112033879D01*
X176284981Y-112054521D01*
X173106436Y-115233065D01*
X173097747Y-115238687D01*
X173093688Y-115244182D01*
X173062818Y-115261291D01*
X172994647Y-115287207D01*
X172950584Y-115295300D01*
X172903687Y-115295300D01*
X172826822Y-115315896D01*
X172775577Y-115329627D01*
X172775576Y-115329628D01*
X172660724Y-115395937D01*
X172660719Y-115395941D01*
X172566941Y-115489719D01*
X172566937Y-115489724D01*
X172500628Y-115604576D01*
X172500627Y-115604577D01*
X172486296Y-115658062D01*
X172466300Y-115732687D01*
X172466300Y-115732689D01*
X172466300Y-115865310D01*
X172466299Y-115865310D01*
X172500627Y-115993422D01*
X172500628Y-115993423D01*
X172566937Y-116108275D01*
X172566939Y-116108278D01*
X172566940Y-116108279D01*
X172660721Y-116202060D01*
X172660722Y-116202061D01*
X172660724Y-116202062D01*
X172666816Y-116205579D01*
X172775579Y-116268373D01*
X172903687Y-116302700D01*
X172903690Y-116302700D01*
X173044441Y-116302700D01*
X173044441Y-116305466D01*
X173100127Y-116314139D01*
X173152392Y-116360508D01*
X173171300Y-116426323D01*
X173171300Y-116466310D01*
X173171299Y-116466310D01*
X173205627Y-116594422D01*
X173205628Y-116594423D01*
X173271937Y-116709275D01*
X173271939Y-116709278D01*
X173271940Y-116709279D01*
X173365721Y-116803060D01*
X173480579Y-116869373D01*
X173608687Y-116903700D01*
X173608690Y-116903700D01*
X173741310Y-116903700D01*
X173741313Y-116903700D01*
X173869421Y-116869373D01*
X173984279Y-116803060D01*
X174078060Y-116709279D01*
X174144373Y-116594421D01*
X174178700Y-116466313D01*
X174178700Y-116333687D01*
X174144373Y-116205579D01*
X174078060Y-116090721D01*
X174044900Y-116057561D01*
X174041384Y-116052463D01*
X174038360Y-116050493D01*
X174019465Y-116020682D01*
X173989584Y-115954149D01*
X173978700Y-115903347D01*
X173978700Y-115827157D01*
X173998385Y-115760118D01*
X174015014Y-115739481D01*
X175975167Y-113779328D01*
X176036487Y-113745845D01*
X176106179Y-113750829D01*
X176162112Y-113792701D01*
X176186529Y-113858165D01*
X176182621Y-113899101D01*
X176170144Y-113945670D01*
X176167293Y-113956313D01*
X176166300Y-113960018D01*
X176166300Y-114153346D01*
X176164131Y-114163467D01*
X176165146Y-114170223D01*
X176155415Y-114204149D01*
X176125533Y-114270682D01*
X176100100Y-114307559D01*
X176066940Y-114340719D01*
X176000628Y-114455576D01*
X176000627Y-114455577D01*
X175983463Y-114519633D01*
X175966300Y-114583687D01*
X175966300Y-114583689D01*
X175966300Y-114660703D01*
X175946615Y-114727742D01*
X175893811Y-114773497D01*
X175824653Y-114783441D01*
X175810207Y-114780478D01*
X175737448Y-114760982D01*
X175701313Y-114751300D01*
X175568687Y-114751300D01*
X175491822Y-114771896D01*
X175440577Y-114785627D01*
X175440576Y-114785628D01*
X175325724Y-114851937D01*
X175325719Y-114851941D01*
X175231941Y-114945719D01*
X175231937Y-114945724D01*
X175165628Y-115060576D01*
X175165627Y-115060577D01*
X175148463Y-115124633D01*
X175131300Y-115188687D01*
X175131300Y-115188689D01*
X175131300Y-115321310D01*
X175131299Y-115321310D01*
X175165627Y-115449422D01*
X175165628Y-115449423D01*
X175231937Y-115564275D01*
X175231939Y-115564278D01*
X175231940Y-115564279D01*
X175325721Y-115658060D01*
X175440579Y-115724373D01*
X175568687Y-115758700D01*
X175568690Y-115758700D01*
X175701310Y-115758700D01*
X175701313Y-115758700D01*
X175829421Y-115724373D01*
X175944279Y-115658060D01*
X175977441Y-115624897D01*
X175982539Y-115621381D01*
X175984511Y-115618355D01*
X176014322Y-115599461D01*
X176080847Y-115569584D01*
X176131648Y-115558700D01*
X176874980Y-115558700D01*
X176874983Y-115558700D01*
X176928275Y-115544421D01*
X176952221Y-115538005D01*
X176952221Y-115538004D01*
X176952224Y-115538004D01*
X177021476Y-115498021D01*
X177433021Y-115086476D01*
X177473004Y-115017224D01*
X177493700Y-114939983D01*
X177493700Y-114860017D01*
X177493700Y-114237159D01*
X177513385Y-114170120D01*
X177530019Y-114149478D01*
X177733187Y-113946310D01*
X182771299Y-113946310D01*
X182805627Y-114074422D01*
X182805628Y-114074423D01*
X182871937Y-114189275D01*
X182871939Y-114189278D01*
X182871940Y-114189279D01*
X182965721Y-114283060D01*
X182965722Y-114283061D01*
X182965724Y-114283062D01*
X183008155Y-114307559D01*
X183080579Y-114349373D01*
X183208687Y-114383700D01*
X183208690Y-114383700D01*
X183341310Y-114383700D01*
X183341313Y-114383700D01*
X183469421Y-114349373D01*
X183584279Y-114283060D01*
X183612319Y-114255020D01*
X183673642Y-114221535D01*
X183743334Y-114226519D01*
X183787681Y-114255020D01*
X183815721Y-114283060D01*
X183815722Y-114283061D01*
X183815724Y-114283062D01*
X183858155Y-114307559D01*
X183930579Y-114349373D01*
X184058687Y-114383700D01*
X184058690Y-114383700D01*
X184191310Y-114383700D01*
X184191313Y-114383700D01*
X184319421Y-114349373D01*
X184434279Y-114283060D01*
X184528060Y-114189279D01*
X184594373Y-114074421D01*
X184626021Y-113956310D01*
X187901299Y-113956310D01*
X187935627Y-114084422D01*
X187935628Y-114084423D01*
X188001937Y-114199275D01*
X188001939Y-114199278D01*
X188001940Y-114199279D01*
X188095721Y-114293060D01*
X188095722Y-114293061D01*
X188095724Y-114293062D01*
X188113045Y-114303062D01*
X188210579Y-114359373D01*
X188338687Y-114393700D01*
X188338690Y-114393700D01*
X188471310Y-114393700D01*
X188471313Y-114393700D01*
X188599421Y-114359373D01*
X188714279Y-114293060D01*
X188742319Y-114265020D01*
X188803642Y-114231535D01*
X188873334Y-114236519D01*
X188917681Y-114265020D01*
X188945721Y-114293060D01*
X188945722Y-114293061D01*
X188945724Y-114293062D01*
X188963045Y-114303062D01*
X189060579Y-114359373D01*
X189188687Y-114393700D01*
X189188690Y-114393700D01*
X189321310Y-114393700D01*
X189321313Y-114393700D01*
X189449421Y-114359373D01*
X189564279Y-114293060D01*
X189658060Y-114199279D01*
X189724373Y-114084421D01*
X189756021Y-113966310D01*
X192986451Y-113966310D01*
X193020779Y-114094422D01*
X193020780Y-114094423D01*
X193087089Y-114209275D01*
X193087091Y-114209278D01*
X193087092Y-114209279D01*
X193180873Y-114303060D01*
X193180874Y-114303061D01*
X193180876Y-114303062D01*
X193238302Y-114336216D01*
X193295731Y-114369373D01*
X193423839Y-114403700D01*
X193423842Y-114403700D01*
X193556462Y-114403700D01*
X193556465Y-114403700D01*
X193684573Y-114369373D01*
X193799431Y-114303060D01*
X193827471Y-114275020D01*
X193888794Y-114241535D01*
X193958486Y-114246519D01*
X194002833Y-114275020D01*
X194030873Y-114303060D01*
X194030874Y-114303061D01*
X194030876Y-114303062D01*
X194088302Y-114336216D01*
X194145731Y-114369373D01*
X194273839Y-114403700D01*
X194273842Y-114403700D01*
X194406462Y-114403700D01*
X194406465Y-114403700D01*
X194534573Y-114369373D01*
X194649431Y-114303060D01*
X194743212Y-114209279D01*
X194809525Y-114094421D01*
X194843852Y-113966313D01*
X194843852Y-113833687D01*
X194809525Y-113705579D01*
X194743212Y-113590721D01*
X194649431Y-113496940D01*
X194649430Y-113496939D01*
X194649427Y-113496937D01*
X194534575Y-113430628D01*
X194534574Y-113430627D01*
X194497253Y-113420627D01*
X194406465Y-113396300D01*
X194273839Y-113396300D01*
X194196974Y-113416896D01*
X194145729Y-113430627D01*
X194145728Y-113430628D01*
X194030876Y-113496937D01*
X194030871Y-113496941D01*
X194002833Y-113524980D01*
X193941510Y-113558465D01*
X193871818Y-113553481D01*
X193827471Y-113524980D01*
X193799432Y-113496941D01*
X193799427Y-113496937D01*
X193684575Y-113430628D01*
X193684574Y-113430627D01*
X193647253Y-113420627D01*
X193556465Y-113396300D01*
X193423839Y-113396300D01*
X193346974Y-113416896D01*
X193295729Y-113430627D01*
X193295728Y-113430628D01*
X193180876Y-113496937D01*
X193180871Y-113496941D01*
X193087093Y-113590719D01*
X193087089Y-113590724D01*
X193020780Y-113705576D01*
X193020779Y-113705577D01*
X193008654Y-113750829D01*
X192986452Y-113833687D01*
X192986452Y-113833689D01*
X192986452Y-113966310D01*
X192986451Y-113966310D01*
X189756021Y-113966310D01*
X189758700Y-113956313D01*
X189758700Y-113823687D01*
X189724373Y-113695579D01*
X189663835Y-113590724D01*
X189658062Y-113580724D01*
X189658058Y-113580719D01*
X189564280Y-113486941D01*
X189564275Y-113486937D01*
X189449423Y-113420628D01*
X189449422Y-113420627D01*
X189412101Y-113410627D01*
X189321313Y-113386300D01*
X189188687Y-113386300D01*
X189111822Y-113406896D01*
X189060577Y-113420627D01*
X189060576Y-113420628D01*
X188945724Y-113486937D01*
X188945719Y-113486941D01*
X188917681Y-113514980D01*
X188856358Y-113548465D01*
X188786666Y-113543481D01*
X188742319Y-113514980D01*
X188714280Y-113486941D01*
X188714275Y-113486937D01*
X188599423Y-113420628D01*
X188599422Y-113420627D01*
X188562101Y-113410627D01*
X188471313Y-113386300D01*
X188338687Y-113386300D01*
X188261822Y-113406896D01*
X188210577Y-113420627D01*
X188210576Y-113420628D01*
X188095724Y-113486937D01*
X188095719Y-113486941D01*
X188001941Y-113580719D01*
X188001937Y-113580724D01*
X187935628Y-113695576D01*
X187935627Y-113695577D01*
X187919175Y-113756978D01*
X187901300Y-113823687D01*
X187901300Y-113823689D01*
X187901300Y-113956310D01*
X187901299Y-113956310D01*
X184626021Y-113956310D01*
X184628700Y-113946313D01*
X184628700Y-113813687D01*
X184594373Y-113685579D01*
X184533835Y-113580724D01*
X184528062Y-113570724D01*
X184528058Y-113570719D01*
X184434280Y-113476941D01*
X184434275Y-113476937D01*
X184319423Y-113410628D01*
X184319422Y-113410627D01*
X184287394Y-113402045D01*
X184191313Y-113376300D01*
X184058687Y-113376300D01*
X183984047Y-113396300D01*
X183930577Y-113410627D01*
X183930576Y-113410628D01*
X183815724Y-113476937D01*
X183815719Y-113476941D01*
X183787681Y-113504980D01*
X183726358Y-113538465D01*
X183656666Y-113533481D01*
X183612319Y-113504980D01*
X183584280Y-113476941D01*
X183584275Y-113476937D01*
X183469423Y-113410628D01*
X183469422Y-113410627D01*
X183437394Y-113402045D01*
X183341313Y-113376300D01*
X183208687Y-113376300D01*
X183134047Y-113396300D01*
X183080577Y-113410627D01*
X183080576Y-113410628D01*
X182965724Y-113476937D01*
X182965719Y-113476941D01*
X182871941Y-113570719D01*
X182871937Y-113570724D01*
X182805628Y-113685576D01*
X182805627Y-113685577D01*
X182788463Y-113749633D01*
X182771300Y-113813687D01*
X182771300Y-113813689D01*
X182771300Y-113946310D01*
X182771299Y-113946310D01*
X177733187Y-113946310D01*
X178649478Y-113030019D01*
X178710801Y-112996534D01*
X178737159Y-112993700D01*
X187349980Y-112993700D01*
X187349983Y-112993700D01*
X187388603Y-112983352D01*
X187427221Y-112973005D01*
X187427221Y-112973004D01*
X187427224Y-112973004D01*
X187496476Y-112933021D01*
X189663566Y-110765929D01*
X189672255Y-110760306D01*
X189676316Y-110754811D01*
X189707177Y-110737707D01*
X189775358Y-110711790D01*
X189819414Y-110703700D01*
X189866311Y-110703700D01*
X189866313Y-110703700D01*
X189957653Y-110679224D01*
X189989747Y-110675000D01*
X202475500Y-110675000D01*
X202542539Y-110694685D01*
X202588294Y-110747489D01*
X202599500Y-110799000D01*
X202599500Y-135978479D01*
X202599274Y-135985968D01*
X202582453Y-136263977D01*
X202580648Y-136278840D01*
X202531120Y-136549099D01*
X202527536Y-136563638D01*
X202445796Y-136825948D01*
X202440487Y-136839948D01*
X202327721Y-137090505D01*
X202320762Y-137103763D01*
X202178619Y-137338899D01*
X202170115Y-137351219D01*
X202147116Y-137380577D01*
X202000673Y-137567500D01*
X201990745Y-137578707D01*
X201796457Y-137773001D01*
X201785251Y-137782929D01*
X201592827Y-137933689D01*
X201568968Y-137952382D01*
X201556645Y-137960887D01*
X201321520Y-138103032D01*
X201308262Y-138109991D01*
X201057711Y-138222762D01*
X201043711Y-138228072D01*
X200781398Y-138309821D01*
X200766860Y-138313405D01*
X200496599Y-138362942D01*
X200481735Y-138364747D01*
X200204836Y-138381507D01*
X200197344Y-138381734D01*
X176361568Y-138381734D01*
X176294529Y-138362049D01*
X176248774Y-138309245D01*
X176238830Y-138240087D01*
X176242039Y-138224736D01*
X176246255Y-138209461D01*
X176269373Y-138169421D01*
X176303700Y-138041313D01*
X176303700Y-138001383D01*
X176308171Y-137985188D01*
X176314745Y-137974583D01*
X176318654Y-137959153D01*
X176351521Y-137898441D01*
X176372882Y-137869796D01*
X176556547Y-137686132D01*
X176600663Y-137642018D01*
X176661987Y-137608534D01*
X176688344Y-137605700D01*
X182718535Y-137605700D01*
X182718537Y-137605700D01*
X182718538Y-137605700D01*
X182802646Y-137583164D01*
X182878055Y-137539626D01*
X182939626Y-137478055D01*
X182939626Y-137478053D01*
X182949830Y-137467850D01*
X182949833Y-137467845D01*
X183629061Y-136788619D01*
X183690384Y-136755134D01*
X183716742Y-136752300D01*
X188020514Y-136752300D01*
X188020813Y-136752343D01*
X188020961Y-136752301D01*
X188055877Y-136757450D01*
X188122052Y-136777140D01*
X188174370Y-136808309D01*
X188190721Y-136824660D01*
X188190722Y-136824661D01*
X188190724Y-136824662D01*
X188248150Y-136857816D01*
X188305579Y-136890973D01*
X188433687Y-136925300D01*
X188433690Y-136925300D01*
X188566310Y-136925300D01*
X188566313Y-136925300D01*
X188694421Y-136890973D01*
X188809279Y-136824660D01*
X188842441Y-136791497D01*
X188847539Y-136787981D01*
X188849511Y-136784955D01*
X188879322Y-136766061D01*
X188945847Y-136736184D01*
X188996648Y-136725300D01*
X193693380Y-136725300D01*
X193693383Y-136725300D01*
X193732003Y-136714952D01*
X193770621Y-136704605D01*
X193770621Y-136704604D01*
X193770624Y-136704604D01*
X193839876Y-136664621D01*
X194368905Y-136135592D01*
X199014067Y-136135592D01*
X199014067Y-136364410D01*
X199022297Y-136416373D01*
X199049862Y-136590411D01*
X199120568Y-136808025D01*
X199120569Y-136808028D01*
X199207665Y-136978962D01*
X199224451Y-137011906D01*
X199358947Y-137197023D01*
X199520745Y-137358821D01*
X199705862Y-137493317D01*
X199796743Y-137539623D01*
X199909739Y-137597198D01*
X199909742Y-137597199D01*
X199954782Y-137611833D01*
X200127358Y-137667906D01*
X200353358Y-137703701D01*
X200353359Y-137703701D01*
X200582175Y-137703701D01*
X200582176Y-137703701D01*
X200808176Y-137667906D01*
X201025794Y-137597198D01*
X201229672Y-137493317D01*
X201414789Y-137358821D01*
X201576587Y-137197023D01*
X201711083Y-137011906D01*
X201814964Y-136808028D01*
X201885672Y-136590410D01*
X201921467Y-136364410D01*
X201921467Y-136135592D01*
X201885672Y-135909592D01*
X201842635Y-135777136D01*
X201814965Y-135691976D01*
X201814964Y-135691973D01*
X201762033Y-135588092D01*
X201711083Y-135488096D01*
X201576587Y-135302979D01*
X201414789Y-135141181D01*
X201229672Y-135006685D01*
X201201238Y-134992197D01*
X201025794Y-134902803D01*
X201025791Y-134902802D01*
X200808177Y-134832096D01*
X200660378Y-134808687D01*
X200582176Y-134796301D01*
X200353358Y-134796301D01*
X200278024Y-134808232D01*
X200127356Y-134832096D01*
X199909742Y-134902802D01*
X199909739Y-134902803D01*
X199705861Y-135006685D01*
X199620279Y-135068865D01*
X199520745Y-135141181D01*
X199520743Y-135141183D01*
X199520742Y-135141183D01*
X199358949Y-135302976D01*
X199358949Y-135302977D01*
X199358947Y-135302979D01*
X199310709Y-135369373D01*
X199224451Y-135488095D01*
X199120569Y-135691973D01*
X199120568Y-135691976D01*
X199049862Y-135909590D01*
X199018992Y-136104494D01*
X199014067Y-136135592D01*
X194368905Y-136135592D01*
X195435633Y-135068863D01*
X195496954Y-135035380D01*
X195566645Y-135040364D01*
X195622579Y-135082236D01*
X195630699Y-135094546D01*
X195696937Y-135209275D01*
X195696939Y-135209278D01*
X195696940Y-135209279D01*
X195790721Y-135303060D01*
X195790722Y-135303061D01*
X195790724Y-135303062D01*
X195831334Y-135326508D01*
X195905579Y-135369373D01*
X196033687Y-135403700D01*
X196033690Y-135403700D01*
X196166310Y-135403700D01*
X196166313Y-135403700D01*
X196294421Y-135369373D01*
X196409279Y-135303060D01*
X196503060Y-135209279D01*
X196524831Y-135171571D01*
X196575393Y-135123358D01*
X196644000Y-135110133D01*
X196708865Y-135136099D01*
X196739603Y-135171571D01*
X196746940Y-135184279D01*
X196840721Y-135278060D01*
X196840722Y-135278061D01*
X196840724Y-135278062D01*
X196883877Y-135302976D01*
X196955579Y-135344373D01*
X197083687Y-135378700D01*
X197083690Y-135378700D01*
X197216310Y-135378700D01*
X197216313Y-135378700D01*
X197344421Y-135344373D01*
X197459279Y-135278060D01*
X197553060Y-135184279D01*
X197619373Y-135069421D01*
X197653700Y-134941313D01*
X197653700Y-134808687D01*
X197619373Y-134680579D01*
X197582267Y-134616310D01*
X197553062Y-134565724D01*
X197553058Y-134565719D01*
X197459280Y-134471941D01*
X197459275Y-134471937D01*
X197344423Y-134405628D01*
X197344422Y-134405627D01*
X197309613Y-134396300D01*
X197216313Y-134371300D01*
X197083687Y-134371300D01*
X197006822Y-134391896D01*
X196955577Y-134405627D01*
X196955576Y-134405628D01*
X196840724Y-134471937D01*
X196840719Y-134471941D01*
X196746941Y-134565719D01*
X196746937Y-134565724D01*
X196725170Y-134603427D01*
X196674603Y-134651643D01*
X196605996Y-134664866D01*
X196541131Y-134638898D01*
X196510395Y-134603426D01*
X196504787Y-134593713D01*
X196503060Y-134590721D01*
X196409279Y-134496940D01*
X196409278Y-134496939D01*
X196409275Y-134496937D01*
X196294546Y-134430699D01*
X196246331Y-134380132D01*
X196233107Y-134311525D01*
X196259075Y-134246661D01*
X196268857Y-134235639D01*
X201493021Y-129011476D01*
X201533004Y-128942224D01*
X201533669Y-128939744D01*
X201553699Y-128864986D01*
X201553700Y-128864983D01*
X201553700Y-128785016D01*
X201553700Y-121235017D01*
X201553699Y-121235013D01*
X201533005Y-121157778D01*
X201533004Y-121157776D01*
X201493021Y-121088524D01*
X201436476Y-121031979D01*
X200440932Y-120036435D01*
X200435308Y-120027744D01*
X200429813Y-120023684D01*
X200412705Y-119992813D01*
X200386792Y-119924643D01*
X200378700Y-119880584D01*
X200378700Y-119833689D01*
X200378700Y-119833687D01*
X200344373Y-119705579D01*
X200278060Y-119590721D01*
X200184279Y-119496940D01*
X200184278Y-119496939D01*
X200184275Y-119496937D01*
X200069423Y-119430628D01*
X200069422Y-119430627D01*
X200042413Y-119423390D01*
X199977800Y-119406076D01*
X199918142Y-119369713D01*
X199887613Y-119306866D01*
X199895908Y-119237490D01*
X199922211Y-119198626D01*
X200023976Y-119096862D01*
X200060825Y-119033037D01*
X200079900Y-118961850D01*
X200079900Y-118888150D01*
X200079900Y-117938150D01*
X200070609Y-117903477D01*
X200060825Y-117866962D01*
X200023976Y-117803138D01*
X199655893Y-117435055D01*
X199646608Y-117424663D01*
X199639469Y-117415707D01*
X199634742Y-117406817D01*
X199538910Y-117289546D01*
X199538427Y-117288939D01*
X199537898Y-117287644D01*
X199520831Y-117259101D01*
X199519374Y-117255585D01*
X199519373Y-117255579D01*
X199453060Y-117140721D01*
X199359279Y-117046940D01*
X199359278Y-117046939D01*
X199359275Y-117046937D01*
X199244423Y-116980628D01*
X199244422Y-116980627D01*
X199212394Y-116972045D01*
X199116313Y-116946300D01*
X198983687Y-116946300D01*
X198906822Y-116966896D01*
X198855577Y-116980627D01*
X198855576Y-116980628D01*
X198740724Y-117046937D01*
X198740719Y-117046941D01*
X198646941Y-117140719D01*
X198646937Y-117140724D01*
X198580628Y-117255576D01*
X198580627Y-117255577D01*
X198579683Y-117259101D01*
X198546300Y-117383687D01*
X198546300Y-117383689D01*
X198546300Y-117516310D01*
X198546299Y-117516310D01*
X198580627Y-117644422D01*
X198580628Y-117644423D01*
X198646937Y-117759275D01*
X198646939Y-117759278D01*
X198646940Y-117759279D01*
X198740721Y-117853060D01*
X198740722Y-117853061D01*
X198740724Y-117853062D01*
X198772837Y-117871602D01*
X198855579Y-117919373D01*
X198983687Y-117953700D01*
X198983690Y-117953700D01*
X199116310Y-117953700D01*
X199116313Y-117953700D01*
X199244421Y-117919373D01*
X199244422Y-117919372D01*
X199252272Y-117917269D01*
X199252834Y-117919369D01*
X199261359Y-117918451D01*
X199280100Y-117911462D01*
X199295388Y-117914787D01*
X199310942Y-117913113D01*
X199328828Y-117922062D01*
X199348373Y-117926314D01*
X199370637Y-117942981D01*
X199373427Y-117944377D01*
X199376627Y-117947465D01*
X199483781Y-118054619D01*
X199517266Y-118115942D01*
X199520100Y-118142300D01*
X199520100Y-118233399D01*
X199500415Y-118300438D01*
X199447611Y-118346193D01*
X199378453Y-118356137D01*
X199314897Y-118327112D01*
X199309642Y-118322219D01*
X199309275Y-118321937D01*
X199194423Y-118255628D01*
X199194422Y-118255627D01*
X199162394Y-118247045D01*
X199066313Y-118221300D01*
X198933687Y-118221300D01*
X198856822Y-118241896D01*
X198805577Y-118255627D01*
X198805576Y-118255628D01*
X198690724Y-118321937D01*
X198690719Y-118321941D01*
X198596941Y-118415719D01*
X198596937Y-118415724D01*
X198530628Y-118530576D01*
X198530627Y-118530577D01*
X198527111Y-118543700D01*
X198496300Y-118658687D01*
X198496300Y-118658689D01*
X198496300Y-118724457D01*
X198492203Y-118756068D01*
X198471781Y-118833531D01*
X198439559Y-118889601D01*
X198218781Y-119110380D01*
X198157458Y-119143865D01*
X198087767Y-119138881D01*
X198031833Y-119097010D01*
X198007416Y-119031545D01*
X198007100Y-119022699D01*
X198007100Y-117231384D01*
X198026785Y-117164345D01*
X198043415Y-117143707D01*
X198589974Y-116597147D01*
X198651295Y-116563664D01*
X198720986Y-116568648D01*
X198739653Y-116577443D01*
X198740720Y-116578059D01*
X198740721Y-116578060D01*
X198855579Y-116644373D01*
X198983687Y-116678700D01*
X198983690Y-116678700D01*
X199116310Y-116678700D01*
X199116313Y-116678700D01*
X199244421Y-116644373D01*
X199359279Y-116578060D01*
X199453060Y-116484279D01*
X199519373Y-116369421D01*
X199553700Y-116241313D01*
X199553700Y-116108687D01*
X199519373Y-115980579D01*
X199453060Y-115865721D01*
X199359279Y-115771940D01*
X199359278Y-115771939D01*
X199359275Y-115771937D01*
X199244423Y-115705628D01*
X199244422Y-115705627D01*
X199208416Y-115695979D01*
X199116313Y-115671300D01*
X199116310Y-115671300D01*
X199110619Y-115669775D01*
X199050959Y-115633410D01*
X199020430Y-115570563D01*
X199028725Y-115501187D01*
X199073210Y-115447309D01*
X199110619Y-115430225D01*
X199116310Y-115428700D01*
X199116313Y-115428700D01*
X199244421Y-115394373D01*
X199359279Y-115328060D01*
X199453060Y-115234279D01*
X199519373Y-115119421D01*
X199553700Y-114991313D01*
X199553700Y-114858687D01*
X199519373Y-114730579D01*
X199453060Y-114615721D01*
X199359279Y-114521940D01*
X199359278Y-114521939D01*
X199359275Y-114521937D01*
X199244423Y-114455628D01*
X199244422Y-114455627D01*
X199212394Y-114447045D01*
X199116313Y-114421300D01*
X198983687Y-114421300D01*
X198906822Y-114441896D01*
X198855577Y-114455627D01*
X198855576Y-114455628D01*
X198740724Y-114521937D01*
X198740719Y-114521941D01*
X198646941Y-114615719D01*
X198646937Y-114615724D01*
X198580628Y-114730576D01*
X198580627Y-114730577D01*
X198569127Y-114773497D01*
X198546300Y-114858687D01*
X198546300Y-114858689D01*
X198546300Y-114949653D01*
X198543818Y-114974339D01*
X198529326Y-115045676D01*
X198496689Y-115107455D01*
X198495489Y-115108671D01*
X197178138Y-116426024D01*
X197126025Y-116478136D01*
X197126023Y-116478139D01*
X197089175Y-116541962D01*
X197070100Y-116613151D01*
X197070100Y-127057699D01*
X197050415Y-127124738D01*
X197033781Y-127145380D01*
X195095381Y-129083781D01*
X195034058Y-129117266D01*
X195007700Y-129120100D01*
X183717300Y-129120100D01*
X183650261Y-129100415D01*
X183629619Y-129083781D01*
X182701463Y-128155625D01*
X182701462Y-128155624D01*
X182637637Y-128118775D01*
X182637638Y-128118775D01*
X182613908Y-128112416D01*
X182566450Y-128099700D01*
X182566448Y-128099700D01*
X182362215Y-128099700D01*
X182295176Y-128080015D01*
X182249421Y-128027211D01*
X182242442Y-128007801D01*
X182226508Y-127948335D01*
X182217481Y-127932700D01*
X182166255Y-127843972D01*
X182166249Y-127843964D01*
X182081035Y-127758750D01*
X182081027Y-127758744D01*
X181976671Y-127698495D01*
X181976666Y-127698492D01*
X181937862Y-127688094D01*
X181860257Y-127667300D01*
X181739743Y-127667300D01*
X181681539Y-127682896D01*
X181623333Y-127698492D01*
X181623328Y-127698495D01*
X181518972Y-127758744D01*
X181518964Y-127758750D01*
X181433750Y-127843964D01*
X181433744Y-127843972D01*
X181373495Y-127948328D01*
X181373492Y-127948333D01*
X181357559Y-128007795D01*
X181342300Y-128064743D01*
X181342300Y-128185257D01*
X181359695Y-128250174D01*
X181373492Y-128301666D01*
X181373495Y-128301671D01*
X181433744Y-128406027D01*
X181433750Y-128406035D01*
X181492634Y-128464919D01*
X181526119Y-128526242D01*
X181521135Y-128595934D01*
X181492634Y-128640281D01*
X181408750Y-128724164D01*
X181408744Y-128724172D01*
X181348495Y-128828528D01*
X181348492Y-128828533D01*
X181338725Y-128864986D01*
X181317300Y-128944943D01*
X181317300Y-129065457D01*
X181331942Y-129120100D01*
X181348492Y-129181866D01*
X181348495Y-129181871D01*
X181408744Y-129286227D01*
X181408750Y-129286235D01*
X181474933Y-129352418D01*
X181508418Y-129413741D01*
X181503434Y-129483433D01*
X181474937Y-129527776D01*
X181458752Y-129543962D01*
X181458744Y-129543972D01*
X181398495Y-129648328D01*
X181398492Y-129648333D01*
X181380001Y-129717343D01*
X181367300Y-129764743D01*
X181367300Y-129885257D01*
X181385791Y-129954265D01*
X181398492Y-130001666D01*
X181398495Y-130001671D01*
X181458744Y-130106027D01*
X181458748Y-130106033D01*
X181465037Y-130112322D01*
X181498519Y-130173647D01*
X181493532Y-130243338D01*
X181465037Y-130287678D01*
X181458748Y-130293966D01*
X181458744Y-130293972D01*
X181398495Y-130398328D01*
X181398492Y-130398333D01*
X181380623Y-130465023D01*
X181367300Y-130514743D01*
X181367300Y-130635257D01*
X181384117Y-130698019D01*
X181398492Y-130751666D01*
X181398495Y-130751671D01*
X181458744Y-130856027D01*
X181458748Y-130856032D01*
X181458749Y-130856034D01*
X181543966Y-130941251D01*
X181543968Y-130941252D01*
X181543972Y-130941255D01*
X181648328Y-131001504D01*
X181648331Y-131001506D01*
X181648335Y-131001508D01*
X181764743Y-131032700D01*
X181764745Y-131032700D01*
X181885255Y-131032700D01*
X181885257Y-131032700D01*
X182001665Y-131001508D01*
X182106034Y-130941251D01*
X182134473Y-130912810D01*
X182136604Y-130911268D01*
X182137318Y-130910055D01*
X182166232Y-130889819D01*
X182208971Y-130868224D01*
X182264890Y-130854900D01*
X195585600Y-130854900D01*
X195652639Y-130874585D01*
X195698394Y-130927389D01*
X195709600Y-130978900D01*
X195709600Y-130994499D01*
X195736582Y-131095196D01*
X195745576Y-131128763D01*
X195745577Y-131128764D01*
X195764199Y-131161018D01*
X195815075Y-131249138D01*
X195913362Y-131347425D01*
X196033738Y-131416924D01*
X196168001Y-131452900D01*
X196168004Y-131452900D01*
X196306996Y-131452900D01*
X196306999Y-131452900D01*
X196441262Y-131416924D01*
X196561638Y-131347425D01*
X196659925Y-131249138D01*
X196729424Y-131128762D01*
X196765400Y-130994499D01*
X196765400Y-130855501D01*
X196729424Y-130721238D01*
X196659925Y-130600862D01*
X196561638Y-130502575D01*
X196441262Y-130433076D01*
X196441261Y-130433075D01*
X196441257Y-130433074D01*
X196369577Y-130413867D01*
X196309917Y-130377502D01*
X196279389Y-130314655D01*
X196287684Y-130245279D01*
X196313988Y-130206415D01*
X198657976Y-127862428D01*
X198694825Y-127798603D01*
X198713900Y-127727416D01*
X198713900Y-127653716D01*
X198713900Y-120458299D01*
X198733585Y-120391260D01*
X198750215Y-120370622D01*
X199173622Y-119947214D01*
X199234945Y-119913730D01*
X199304637Y-119918714D01*
X199360570Y-119960586D01*
X199381076Y-120002799D01*
X199398390Y-120067413D01*
X199405627Y-120094422D01*
X199405628Y-120094423D01*
X199471937Y-120209275D01*
X199471939Y-120209278D01*
X199471940Y-120209279D01*
X199565721Y-120303060D01*
X199680579Y-120369373D01*
X199808687Y-120403700D01*
X199855584Y-120403700D01*
X199861674Y-120404818D01*
X199865204Y-120404074D01*
X199899643Y-120411792D01*
X199967813Y-120437705D01*
X200011435Y-120465932D01*
X200909981Y-121364478D01*
X200943466Y-121425801D01*
X200946300Y-121452159D01*
X200946300Y-128647841D01*
X200926615Y-128714880D01*
X200909981Y-128735522D01*
X193563922Y-136081581D01*
X193502599Y-136115066D01*
X193476241Y-136117900D01*
X188996649Y-136117900D01*
X188986527Y-136115731D01*
X188979771Y-136116746D01*
X188945848Y-136107015D01*
X188879316Y-136077134D01*
X188842440Y-136051701D01*
X188809280Y-136018541D01*
X188809275Y-136018537D01*
X188694423Y-135952228D01*
X188694422Y-135952227D01*
X188662394Y-135943645D01*
X188566313Y-135917900D01*
X188433687Y-135917900D01*
X188356822Y-135938496D01*
X188305577Y-135952227D01*
X188305576Y-135952228D01*
X188190725Y-136018537D01*
X188190716Y-136018543D01*
X188174366Y-136034893D01*
X188161720Y-136042426D01*
X188154105Y-136051280D01*
X188122054Y-136066058D01*
X188081713Y-136078062D01*
X188055874Y-136085750D01*
X188020511Y-136090900D01*
X183579549Y-136090900D01*
X183579533Y-136090899D01*
X183571937Y-136090899D01*
X183484863Y-136090899D01*
X183484862Y-136090899D01*
X183434123Y-136104494D01*
X183434123Y-136104495D01*
X183400754Y-136113436D01*
X183400753Y-136113436D01*
X183400751Y-136113437D01*
X183325345Y-136156973D01*
X183266779Y-136215540D01*
X183205455Y-136249024D01*
X183135764Y-136244039D01*
X183079830Y-136202168D01*
X183059324Y-136159955D01*
X183044894Y-136106100D01*
X182994342Y-136018541D01*
X182978583Y-135991245D01*
X182978579Y-135991240D01*
X182884801Y-135897462D01*
X182884796Y-135897458D01*
X182769944Y-135831149D01*
X182769943Y-135831148D01*
X182737915Y-135822566D01*
X182641834Y-135796821D01*
X182602179Y-135796821D01*
X182535140Y-135777136D01*
X182489385Y-135724332D01*
X182478179Y-135672821D01*
X182478179Y-135633168D01*
X182478179Y-135633166D01*
X182443852Y-135505058D01*
X182385333Y-135403700D01*
X182377541Y-135390203D01*
X182377537Y-135390198D01*
X182283759Y-135296420D01*
X182283754Y-135296416D01*
X182168902Y-135230107D01*
X182168901Y-135230106D01*
X182136873Y-135221524D01*
X182040792Y-135195779D01*
X181908166Y-135195779D01*
X181831301Y-135216375D01*
X181780056Y-135230106D01*
X181780055Y-135230107D01*
X181665203Y-135296416D01*
X181665198Y-135296420D01*
X181571420Y-135390198D01*
X181571416Y-135390203D01*
X181505107Y-135505055D01*
X181505106Y-135505056D01*
X181487942Y-135569112D01*
X181470779Y-135633166D01*
X181470779Y-135633168D01*
X181470779Y-135765789D01*
X181470778Y-135765789D01*
X181505107Y-135893904D01*
X181508218Y-135901414D01*
X181506722Y-135902033D01*
X181511054Y-135919891D01*
X181520787Y-135945977D01*
X181519177Y-135953378D01*
X181520963Y-135960738D01*
X181511856Y-135987047D01*
X181505942Y-136014252D01*
X181499430Y-136022952D01*
X181498111Y-136026764D01*
X181484794Y-136042508D01*
X181479832Y-136047471D01*
X181418512Y-136080963D01*
X181392142Y-136083799D01*
X175589658Y-136083799D01*
X175522619Y-136064114D01*
X175501977Y-136047480D01*
X175265932Y-135811435D01*
X175237705Y-135767813D01*
X175211792Y-135699643D01*
X175203700Y-135655584D01*
X175203700Y-135608689D01*
X175203700Y-135608687D01*
X175169373Y-135480579D01*
X175117192Y-135390198D01*
X175103062Y-135365724D01*
X175103058Y-135365719D01*
X175009280Y-135271941D01*
X175009275Y-135271937D01*
X174894423Y-135205628D01*
X174894422Y-135205627D01*
X174857668Y-135195779D01*
X174766313Y-135171300D01*
X174633687Y-135171300D01*
X174556822Y-135191896D01*
X174505577Y-135205627D01*
X174505576Y-135205628D01*
X174390724Y-135271937D01*
X174390719Y-135271941D01*
X174296941Y-135365719D01*
X174296937Y-135365724D01*
X174230628Y-135480576D01*
X174230627Y-135480577D01*
X174213463Y-135544633D01*
X174196300Y-135608687D01*
X174196300Y-135608689D01*
X174196300Y-135741310D01*
X174196299Y-135741310D01*
X174230627Y-135869422D01*
X174230628Y-135869423D01*
X174296937Y-135984275D01*
X174296939Y-135984278D01*
X174296940Y-135984279D01*
X174390721Y-136078060D01*
X174390722Y-136078061D01*
X174390724Y-136078062D01*
X174436506Y-136104494D01*
X174505579Y-136144373D01*
X174633687Y-136178700D01*
X174680584Y-136178700D01*
X174686674Y-136179818D01*
X174690204Y-136179074D01*
X174724643Y-136186792D01*
X174792813Y-136212705D01*
X174836435Y-136240932D01*
X175120321Y-136524818D01*
X175153806Y-136586141D01*
X175148822Y-136655833D01*
X175120321Y-136700180D01*
X174811436Y-137009065D01*
X174767818Y-137037291D01*
X174699647Y-137063207D01*
X174655584Y-137071300D01*
X174608687Y-137071300D01*
X174537014Y-137090505D01*
X174480577Y-137105627D01*
X174480576Y-137105628D01*
X174365724Y-137171937D01*
X174365719Y-137171941D01*
X174271941Y-137265719D01*
X174271937Y-137265724D01*
X174205628Y-137380576D01*
X174205627Y-137380577D01*
X174190090Y-137438563D01*
X174171300Y-137508687D01*
X174171300Y-137508689D01*
X174171300Y-137641310D01*
X174171299Y-137641310D01*
X174171300Y-137641313D01*
X174184133Y-137689209D01*
X174182471Y-137759055D01*
X174143309Y-137816918D01*
X174079081Y-137844423D01*
X174064359Y-137845300D01*
X173659705Y-137845300D01*
X173592666Y-137825615D01*
X173572024Y-137808981D01*
X172399617Y-136636574D01*
X172385709Y-136619996D01*
X172381487Y-136613965D01*
X172380824Y-136612487D01*
X172358435Y-136581029D01*
X172358115Y-136580571D01*
X172356628Y-136576159D01*
X172338820Y-136530882D01*
X172338533Y-136530960D01*
X172337853Y-136528422D01*
X172336765Y-136525656D01*
X172336430Y-136523118D01*
X172336430Y-136523110D01*
X172305238Y-136406702D01*
X172305234Y-136406695D01*
X172244986Y-136302340D01*
X172243419Y-136300298D01*
X172242172Y-136297467D01*
X172240918Y-136295294D01*
X172241155Y-136295156D01*
X172237843Y-136287634D01*
X172230716Y-136279925D01*
X172220261Y-136247699D01*
X172219688Y-136246398D01*
X172219605Y-136245930D01*
X172213174Y-136207743D01*
X172212491Y-136205695D01*
X172211324Y-136199089D01*
X172211682Y-136195863D01*
X172209430Y-136177501D01*
X172209430Y-131859612D01*
X172229115Y-131792573D01*
X172245749Y-131771931D01*
X172775661Y-131242019D01*
X172836984Y-131208534D01*
X172863342Y-131205700D01*
X173145514Y-131205700D01*
X173145813Y-131205743D01*
X173145961Y-131205701D01*
X173180877Y-131210850D01*
X173247052Y-131230540D01*
X173299370Y-131261709D01*
X173315721Y-131278060D01*
X173404382Y-131329248D01*
X173452596Y-131379813D01*
X173465820Y-131448420D01*
X173439852Y-131513285D01*
X173430062Y-131524315D01*
X172578138Y-132376240D01*
X172526025Y-132428352D01*
X172526023Y-132428355D01*
X172489175Y-132492178D01*
X172489175Y-132492179D01*
X172470100Y-132563366D01*
X172470100Y-133533150D01*
X172470100Y-133606850D01*
X172489175Y-133678037D01*
X172526024Y-133741862D01*
X173428138Y-134643976D01*
X173491963Y-134680825D01*
X173563150Y-134699900D01*
X173636850Y-134699900D01*
X184132700Y-134699900D01*
X184199739Y-134719585D01*
X184220381Y-134736219D01*
X184848138Y-135363976D01*
X184911963Y-135400825D01*
X184983150Y-135419900D01*
X184983152Y-135419900D01*
X190736848Y-135419900D01*
X190736850Y-135419900D01*
X190808037Y-135400825D01*
X190871862Y-135363976D01*
X191109323Y-135126513D01*
X191113750Y-135122303D01*
X191121779Y-135115034D01*
X191139097Y-135104144D01*
X191255731Y-134993784D01*
X191256752Y-134992861D01*
X191258126Y-134992197D01*
X191277963Y-134977406D01*
X191359279Y-134930460D01*
X191453060Y-134836679D01*
X191519373Y-134721821D01*
X191553700Y-134593713D01*
X191553700Y-134461087D01*
X191519373Y-134332979D01*
X191466107Y-134240719D01*
X191453062Y-134218124D01*
X191453058Y-134218119D01*
X191359280Y-134124341D01*
X191359275Y-134124337D01*
X191244423Y-134058028D01*
X191244422Y-134058027D01*
X191200656Y-134046300D01*
X191116313Y-134023700D01*
X190983687Y-134023700D01*
X190906822Y-134044296D01*
X190855577Y-134058027D01*
X190855576Y-134058028D01*
X190740724Y-134124337D01*
X190740719Y-134124341D01*
X190646941Y-134218119D01*
X190646937Y-134218124D01*
X190580628Y-134332976D01*
X190580627Y-134332977D01*
X190574571Y-134355579D01*
X190546300Y-134461087D01*
X190546300Y-134461089D01*
X190546300Y-134593710D01*
X190546299Y-134593710D01*
X190546300Y-134593713D01*
X190575853Y-134704008D01*
X190575258Y-134729001D01*
X190578817Y-134753747D01*
X190574441Y-134763327D01*
X190574191Y-134773856D01*
X190560178Y-134794560D01*
X190549792Y-134817303D01*
X190540932Y-134822996D01*
X190535029Y-134831719D01*
X190512045Y-134841561D01*
X190491014Y-134855077D01*
X190475159Y-134857356D01*
X190470801Y-134859223D01*
X190456079Y-134860100D01*
X190349977Y-134860100D01*
X190282938Y-134840415D01*
X190237183Y-134787611D01*
X190227239Y-134718453D01*
X190230202Y-134704006D01*
X190253700Y-134616313D01*
X190253700Y-134483687D01*
X190219373Y-134355579D01*
X190186216Y-134298150D01*
X190153062Y-134240724D01*
X190153058Y-134240719D01*
X190059280Y-134146941D01*
X190059275Y-134146937D01*
X189944423Y-134080628D01*
X189944422Y-134080627D01*
X189912394Y-134072045D01*
X189816313Y-134046300D01*
X189683687Y-134046300D01*
X189613477Y-134065113D01*
X189555577Y-134080627D01*
X189555576Y-134080628D01*
X189440724Y-134146937D01*
X189440719Y-134146941D01*
X189346941Y-134240719D01*
X189346937Y-134240724D01*
X189280628Y-134355576D01*
X189280627Y-134355577D01*
X189274498Y-134378453D01*
X189267217Y-134405627D01*
X189261170Y-134428194D01*
X189224804Y-134487854D01*
X189161957Y-134518383D01*
X189141395Y-134520100D01*
X187440401Y-134520100D01*
X187373362Y-134500415D01*
X187327607Y-134447611D01*
X187317663Y-134378453D01*
X187346688Y-134314897D01*
X187352720Y-134308419D01*
X187353060Y-134308079D01*
X187419373Y-134193221D01*
X187453700Y-134065113D01*
X187453700Y-133932487D01*
X187419373Y-133804379D01*
X187353060Y-133689521D01*
X187259279Y-133595740D01*
X187259278Y-133595739D01*
X187259275Y-133595737D01*
X187144423Y-133529428D01*
X187144422Y-133529427D01*
X187112394Y-133520845D01*
X187016313Y-133495100D01*
X186883687Y-133495100D01*
X186806822Y-133515696D01*
X186755577Y-133529427D01*
X186755576Y-133529428D01*
X186640724Y-133595737D01*
X186640719Y-133595741D01*
X186546941Y-133689519D01*
X186546937Y-133689524D01*
X186480628Y-133804376D01*
X186480627Y-133804377D01*
X186463463Y-133868433D01*
X186446300Y-133932487D01*
X186446300Y-133932489D01*
X186446300Y-134065110D01*
X186446299Y-134065110D01*
X186480627Y-134193222D01*
X186480628Y-134193223D01*
X186546937Y-134308075D01*
X186546941Y-134308080D01*
X186547280Y-134308419D01*
X186547474Y-134308774D01*
X186551886Y-134314524D01*
X186550989Y-134315212D01*
X186580765Y-134369742D01*
X186575781Y-134439434D01*
X186533909Y-134495367D01*
X186468445Y-134519784D01*
X186459599Y-134520100D01*
X185417300Y-134520100D01*
X185350261Y-134500415D01*
X185329619Y-134483781D01*
X184641863Y-133796025D01*
X184641862Y-133796024D01*
X184578037Y-133759175D01*
X184578038Y-133759175D01*
X184554308Y-133752816D01*
X184506850Y-133740100D01*
X184506848Y-133740100D01*
X173817300Y-133740100D01*
X173750261Y-133720415D01*
X173729619Y-133703781D01*
X173419619Y-133393781D01*
X173386134Y-133332458D01*
X173383300Y-133306100D01*
X173383300Y-132913900D01*
X173391944Y-132884459D01*
X173398468Y-132854473D01*
X173402222Y-132849457D01*
X173402985Y-132846861D01*
X173419619Y-132826219D01*
X173456095Y-132789743D01*
X179292300Y-132789743D01*
X179292300Y-132910257D01*
X179306617Y-132963687D01*
X179323492Y-133026666D01*
X179323495Y-133026671D01*
X179383744Y-133131027D01*
X179383748Y-133131032D01*
X179383749Y-133131034D01*
X179468966Y-133216251D01*
X179468968Y-133216252D01*
X179468972Y-133216255D01*
X179483120Y-133224423D01*
X179573335Y-133276508D01*
X179689743Y-133307700D01*
X179689745Y-133307700D01*
X179810255Y-133307700D01*
X179810257Y-133307700D01*
X179926665Y-133276508D01*
X180031034Y-133216251D01*
X180116251Y-133131034D01*
X180176508Y-133026665D01*
X180207700Y-132910257D01*
X180207700Y-132789743D01*
X180199478Y-132759058D01*
X180201139Y-132689209D01*
X180240301Y-132631346D01*
X180287153Y-132607191D01*
X180401665Y-132576508D01*
X180506034Y-132516251D01*
X180591251Y-132431034D01*
X180651508Y-132326665D01*
X180682700Y-132210257D01*
X180682700Y-132089743D01*
X180651508Y-131973335D01*
X180624446Y-131926462D01*
X180591255Y-131868972D01*
X180591249Y-131868964D01*
X180506035Y-131783750D01*
X180506027Y-131783744D01*
X180401671Y-131723495D01*
X180401667Y-131723493D01*
X180401665Y-131723492D01*
X180401663Y-131723491D01*
X180401660Y-131723490D01*
X180301845Y-131696744D01*
X180242185Y-131660379D01*
X180211657Y-131597532D01*
X180209940Y-131576970D01*
X180209940Y-131499957D01*
X180197331Y-131452900D01*
X180178748Y-131383548D01*
X180157893Y-131347425D01*
X180118495Y-131279185D01*
X180118489Y-131279177D01*
X180033275Y-131193963D01*
X180033267Y-131193957D01*
X179928911Y-131133708D01*
X179928906Y-131133705D01*
X179890102Y-131123307D01*
X179812497Y-131102513D01*
X179691983Y-131102513D01*
X179633779Y-131118109D01*
X179575573Y-131133705D01*
X179575568Y-131133708D01*
X179471212Y-131193957D01*
X179471204Y-131193963D01*
X179385990Y-131279177D01*
X179385984Y-131279185D01*
X179325735Y-131383541D01*
X179325732Y-131383546D01*
X179315465Y-131421863D01*
X179294540Y-131499956D01*
X179294540Y-131620470D01*
X179296486Y-131627732D01*
X179325732Y-131736879D01*
X179325735Y-131736884D01*
X179385984Y-131841240D01*
X179385988Y-131841245D01*
X179385989Y-131841247D01*
X179471206Y-131926464D01*
X179471208Y-131926465D01*
X179471212Y-131926468D01*
X179575568Y-131986717D01*
X179575575Y-131986721D01*
X179675396Y-132013468D01*
X179694633Y-132025194D01*
X179715871Y-132032697D01*
X179723887Y-132043025D01*
X179735054Y-132049832D01*
X179744898Y-132070096D01*
X179758710Y-132087893D01*
X179762012Y-132105329D01*
X179765583Y-132112679D01*
X179766811Y-132122245D01*
X179767300Y-132127736D01*
X179767300Y-132210257D01*
X179778304Y-132251324D01*
X179779258Y-132262037D01*
X179774444Y-132286178D01*
X179773859Y-132310790D01*
X179767733Y-132319840D01*
X179765597Y-132330558D01*
X179748495Y-132348264D01*
X179734697Y-132368653D01*
X179722962Y-132374702D01*
X179717059Y-132380815D01*
X179706085Y-132383402D01*
X179687842Y-132392808D01*
X179573339Y-132423490D01*
X179573328Y-132423495D01*
X179468972Y-132483744D01*
X179468964Y-132483750D01*
X179383750Y-132568964D01*
X179383744Y-132568972D01*
X179323495Y-132673328D01*
X179323492Y-132673333D01*
X179323256Y-132674214D01*
X179292300Y-132789743D01*
X173456095Y-132789743D01*
X173551904Y-132693934D01*
X174175742Y-132070096D01*
X174823976Y-131421862D01*
X174860825Y-131358037D01*
X174879900Y-131286850D01*
X174879900Y-131213150D01*
X174879900Y-126063622D01*
X174860825Y-125992435D01*
X174860825Y-125992434D01*
X174823976Y-125928610D01*
X173499125Y-124603759D01*
X173492219Y-124592532D01*
X173484684Y-124586413D01*
X173469005Y-124554793D01*
X173454055Y-124509303D01*
X173447856Y-124470588D01*
X173447856Y-124430372D01*
X173435045Y-124382561D01*
X173416664Y-124313963D01*
X173367234Y-124228347D01*
X173356411Y-124209600D01*
X173356408Y-124209597D01*
X173356407Y-124209594D01*
X173356404Y-124209591D01*
X173351461Y-124203149D01*
X173353220Y-124201798D01*
X173325279Y-124150628D01*
X173330263Y-124080936D01*
X173339050Y-124062285D01*
X173398378Y-123959526D01*
X173429570Y-123843118D01*
X173429570Y-123732318D01*
X173449255Y-123665279D01*
X173502059Y-123619524D01*
X173553570Y-123608318D01*
X173635275Y-123608318D01*
X173635277Y-123608318D01*
X173751685Y-123577126D01*
X173856054Y-123516869D01*
X173868277Y-123504645D01*
X173878598Y-123498175D01*
X173883910Y-123491405D01*
X173915253Y-123475198D01*
X173955586Y-123461185D01*
X173996278Y-123454318D01*
X180923459Y-123454318D01*
X180990498Y-123474003D01*
X181011140Y-123490637D01*
X181609981Y-124089478D01*
X181643466Y-124150801D01*
X181646300Y-124177159D01*
X181646300Y-124228346D01*
X181635415Y-124279149D01*
X181605533Y-124345682D01*
X181580100Y-124382559D01*
X181546940Y-124415719D01*
X181480628Y-124530576D01*
X181480627Y-124530577D01*
X181466617Y-124582865D01*
X181446300Y-124658687D01*
X181446300Y-124658689D01*
X181446300Y-124791310D01*
X181446299Y-124791310D01*
X181480627Y-124919422D01*
X181480628Y-124919423D01*
X181546937Y-125034275D01*
X181546939Y-125034278D01*
X181546940Y-125034279D01*
X181640721Y-125128060D01*
X181640722Y-125128061D01*
X181640724Y-125128062D01*
X181690913Y-125157038D01*
X181755579Y-125194373D01*
X181883687Y-125228700D01*
X181883690Y-125228700D01*
X182016310Y-125228700D01*
X182016313Y-125228700D01*
X182144421Y-125194373D01*
X182259279Y-125128060D01*
X182353060Y-125034279D01*
X182419373Y-124919421D01*
X182453700Y-124791313D01*
X182453700Y-124658687D01*
X182419373Y-124530579D01*
X182353060Y-124415721D01*
X182319900Y-124382561D01*
X182316384Y-124377463D01*
X182313360Y-124375493D01*
X182294465Y-124345682D01*
X182264584Y-124279149D01*
X182253700Y-124228347D01*
X182253700Y-124049986D01*
X182253701Y-124049973D01*
X182253701Y-123960019D01*
X182253701Y-123960017D01*
X182233004Y-123882776D01*
X182193021Y-123813524D01*
X181287094Y-122907597D01*
X181217842Y-122867614D01*
X181217839Y-122867612D01*
X181140604Y-122846918D01*
X181140601Y-122846918D01*
X174059062Y-122846918D01*
X173992023Y-122827233D01*
X173946268Y-122774429D01*
X173936324Y-122705271D01*
X173951674Y-122660919D01*
X173971010Y-122627426D01*
X174018333Y-122545461D01*
X174052660Y-122417353D01*
X174052660Y-122377700D01*
X174072345Y-122310661D01*
X174125149Y-122264906D01*
X174176660Y-122253700D01*
X174216310Y-122253700D01*
X174216313Y-122253700D01*
X174344421Y-122219373D01*
X174459279Y-122153060D01*
X174553060Y-122059279D01*
X174619373Y-121944421D01*
X174653700Y-121816313D01*
X174653700Y-121683687D01*
X174619373Y-121555579D01*
X174553060Y-121440721D01*
X174459279Y-121346940D01*
X174390052Y-121306971D01*
X174341837Y-121256406D01*
X174328613Y-121187799D01*
X174354581Y-121122934D01*
X174411495Y-121082405D01*
X174452052Y-121075585D01*
X179918845Y-121075585D01*
X179985884Y-121095270D01*
X180006525Y-121111903D01*
X187144797Y-128250176D01*
X187208622Y-128287025D01*
X187223666Y-128291055D01*
X187279810Y-128306100D01*
X190123416Y-128306100D01*
X190190455Y-128325785D01*
X190236210Y-128378589D01*
X190243187Y-128397998D01*
X190255627Y-128444420D01*
X190255628Y-128444423D01*
X190321937Y-128559275D01*
X190321939Y-128559278D01*
X190321940Y-128559279D01*
X190415721Y-128653060D01*
X190530579Y-128719373D01*
X190658687Y-128753700D01*
X190658690Y-128753700D01*
X190791310Y-128753700D01*
X190791313Y-128753700D01*
X190919421Y-128719373D01*
X191034279Y-128653060D01*
X191128060Y-128559279D01*
X191194373Y-128444421D01*
X191228700Y-128316313D01*
X191228700Y-128183687D01*
X191194373Y-128055579D01*
X191128060Y-127940721D01*
X191100020Y-127912681D01*
X191066535Y-127851358D01*
X191071519Y-127781666D01*
X191100020Y-127737319D01*
X191109925Y-127727414D01*
X191128060Y-127709279D01*
X191194373Y-127594421D01*
X191228700Y-127466313D01*
X191228700Y-127333687D01*
X191194373Y-127205579D01*
X191138469Y-127108750D01*
X191128062Y-127090724D01*
X191128058Y-127090719D01*
X191034280Y-126996941D01*
X191034275Y-126996937D01*
X190919423Y-126930628D01*
X190919422Y-126930627D01*
X190887394Y-126922045D01*
X190791313Y-126896300D01*
X190658687Y-126896300D01*
X190581822Y-126916896D01*
X190530577Y-126930627D01*
X190530576Y-126930628D01*
X190415724Y-126996937D01*
X190415719Y-126996941D01*
X190321941Y-127090719D01*
X190321937Y-127090724D01*
X190255628Y-127205576D01*
X190255628Y-127205577D01*
X190255627Y-127205579D01*
X190243189Y-127251995D01*
X190206826Y-127311654D01*
X190143979Y-127342183D01*
X190123416Y-127343900D01*
X187650641Y-127343900D01*
X187583602Y-127324215D01*
X187562960Y-127307581D01*
X185390434Y-125135055D01*
X185310880Y-125055501D01*
X195709600Y-125055501D01*
X195709600Y-125194499D01*
X195736582Y-125295196D01*
X195745576Y-125328763D01*
X195745577Y-125328764D01*
X195759325Y-125352576D01*
X195815075Y-125449138D01*
X195913362Y-125547425D01*
X196033738Y-125616924D01*
X196168001Y-125652900D01*
X196168004Y-125652900D01*
X196306996Y-125652900D01*
X196306999Y-125652900D01*
X196441262Y-125616924D01*
X196561638Y-125547425D01*
X196659925Y-125449138D01*
X196729424Y-125328762D01*
X196765400Y-125194499D01*
X196765400Y-125055501D01*
X196729424Y-124921238D01*
X196659925Y-124800862D01*
X196561638Y-124702575D01*
X196441264Y-124633077D01*
X196441263Y-124633076D01*
X196407696Y-124624082D01*
X196306999Y-124597100D01*
X196168001Y-124597100D01*
X196087443Y-124618685D01*
X196033736Y-124633076D01*
X196033735Y-124633077D01*
X195913360Y-124702576D01*
X195815076Y-124800860D01*
X195745577Y-124921235D01*
X195745576Y-124921236D01*
X195743882Y-124927559D01*
X195709600Y-125055501D01*
X185310880Y-125055501D01*
X182224674Y-121969296D01*
X182145121Y-121889743D01*
X184192300Y-121889743D01*
X184192300Y-122010257D01*
X184200507Y-122040885D01*
X184223492Y-122126666D01*
X184223495Y-122126671D01*
X184283744Y-122231027D01*
X184283748Y-122231032D01*
X184283749Y-122231034D01*
X184368966Y-122316251D01*
X184368968Y-122316252D01*
X184368972Y-122316255D01*
X184430033Y-122351508D01*
X184473335Y-122376508D01*
X184589743Y-122407700D01*
X184589745Y-122407700D01*
X184710255Y-122407700D01*
X184710257Y-122407700D01*
X184826665Y-122376508D01*
X184931034Y-122316251D01*
X185016251Y-122231034D01*
X185076508Y-122126665D01*
X185107700Y-122010257D01*
X185107700Y-121939743D01*
X189317300Y-121939743D01*
X189317300Y-122060257D01*
X189328396Y-122101666D01*
X189348492Y-122176666D01*
X189348495Y-122176671D01*
X189408744Y-122281027D01*
X189408748Y-122281032D01*
X189408749Y-122281034D01*
X189493966Y-122366251D01*
X189493968Y-122366252D01*
X189493972Y-122366255D01*
X189565758Y-122407700D01*
X189598335Y-122426508D01*
X189714743Y-122457700D01*
X189714745Y-122457700D01*
X189835255Y-122457700D01*
X189835257Y-122457700D01*
X189951665Y-122426508D01*
X190056034Y-122366251D01*
X190141251Y-122281034D01*
X190201508Y-122176665D01*
X190232700Y-122060257D01*
X190232700Y-121939743D01*
X190212603Y-121864743D01*
X194417300Y-121864743D01*
X194417300Y-121985257D01*
X194437135Y-122059280D01*
X194448492Y-122101666D01*
X194448495Y-122101671D01*
X194508744Y-122206027D01*
X194508748Y-122206032D01*
X194508749Y-122206034D01*
X194593966Y-122291251D01*
X194593968Y-122291252D01*
X194593972Y-122291255D01*
X194698328Y-122351504D01*
X194698335Y-122351508D01*
X194814743Y-122382700D01*
X194814745Y-122382700D01*
X194935255Y-122382700D01*
X194935257Y-122382700D01*
X195051665Y-122351508D01*
X195156034Y-122291251D01*
X195241251Y-122206034D01*
X195301508Y-122101665D01*
X195332700Y-121985257D01*
X195332700Y-121864743D01*
X195301508Y-121748335D01*
X195294560Y-121736300D01*
X195241255Y-121643972D01*
X195241249Y-121643964D01*
X195156035Y-121558750D01*
X195156027Y-121558744D01*
X195051671Y-121498495D01*
X195051666Y-121498492D01*
X195012862Y-121488094D01*
X194935257Y-121467300D01*
X194814743Y-121467300D01*
X194756539Y-121482896D01*
X194698333Y-121498492D01*
X194698328Y-121498495D01*
X194593972Y-121558744D01*
X194593964Y-121558750D01*
X194508750Y-121643964D01*
X194508744Y-121643972D01*
X194448495Y-121748328D01*
X194448492Y-121748333D01*
X194441793Y-121773335D01*
X194417300Y-121864743D01*
X190212603Y-121864743D01*
X190201508Y-121823335D01*
X190171078Y-121770628D01*
X190141255Y-121718972D01*
X190141249Y-121718964D01*
X190056035Y-121633750D01*
X190056027Y-121633744D01*
X189951671Y-121573495D01*
X189951666Y-121573492D01*
X189896644Y-121558749D01*
X189835257Y-121542300D01*
X189714743Y-121542300D01*
X189665186Y-121555579D01*
X189598333Y-121573492D01*
X189598328Y-121573495D01*
X189493972Y-121633744D01*
X189493964Y-121633750D01*
X189408750Y-121718964D01*
X189408744Y-121718972D01*
X189348495Y-121823328D01*
X189348492Y-121823333D01*
X189337396Y-121864744D01*
X189317300Y-121939743D01*
X185107700Y-121939743D01*
X185107700Y-121889743D01*
X185076508Y-121773335D01*
X185074945Y-121770627D01*
X185016255Y-121668972D01*
X185016249Y-121668964D01*
X184931035Y-121583750D01*
X184931027Y-121583744D01*
X184826671Y-121523495D01*
X184826666Y-121523492D01*
X184787862Y-121513094D01*
X184710257Y-121492300D01*
X184589743Y-121492300D01*
X184531539Y-121507896D01*
X184473333Y-121523492D01*
X184473328Y-121523495D01*
X184368972Y-121583744D01*
X184368964Y-121583750D01*
X184283750Y-121668964D01*
X184283744Y-121668972D01*
X184223495Y-121773328D01*
X184223492Y-121773333D01*
X184203960Y-121846228D01*
X184192300Y-121889743D01*
X182145121Y-121889743D01*
X180424688Y-120169310D01*
X180424687Y-120169309D01*
X180360862Y-120132460D01*
X180360863Y-120132460D01*
X180328170Y-120123700D01*
X180289675Y-120113385D01*
X173849442Y-120113385D01*
X173775742Y-120113385D01*
X173704554Y-120132460D01*
X173704552Y-120132460D01*
X173704552Y-120132461D01*
X173640730Y-120169309D01*
X173640727Y-120169311D01*
X173099825Y-120710213D01*
X173099823Y-120710216D01*
X173062975Y-120774039D01*
X173062975Y-120774040D01*
X173043900Y-120845227D01*
X173043900Y-121772530D01*
X173043900Y-121846230D01*
X173048861Y-121864743D01*
X173062975Y-121917417D01*
X173103888Y-121988281D01*
X173101077Y-121989903D01*
X173120807Y-122040885D01*
X173106793Y-122109335D01*
X173104629Y-122113243D01*
X173079589Y-122156614D01*
X173079587Y-122156617D01*
X173074215Y-122176666D01*
X173045260Y-122284727D01*
X173045260Y-122284729D01*
X173045260Y-122417350D01*
X173045259Y-122417350D01*
X173079587Y-122545461D01*
X173146246Y-122660919D01*
X173162718Y-122728819D01*
X173139865Y-122794846D01*
X173084943Y-122838036D01*
X173038858Y-122846918D01*
X172459395Y-122846918D01*
X172382160Y-122867612D01*
X172312906Y-122907597D01*
X172312903Y-122907599D01*
X171526981Y-123693521D01*
X171526979Y-123693524D01*
X171486994Y-123762778D01*
X171466300Y-123840013D01*
X171466300Y-124773346D01*
X171464131Y-124783467D01*
X171465146Y-124790223D01*
X171455415Y-124824149D01*
X171425533Y-124890682D01*
X171400100Y-124927559D01*
X171366940Y-124960719D01*
X171300628Y-125075576D01*
X171300627Y-125075577D01*
X171286564Y-125128062D01*
X171266300Y-125203687D01*
X171266300Y-125203689D01*
X171266300Y-125336310D01*
X171266299Y-125336310D01*
X171300627Y-125464422D01*
X171300628Y-125464423D01*
X171366937Y-125579275D01*
X171366941Y-125579280D01*
X171383289Y-125595628D01*
X171390822Y-125608272D01*
X171399681Y-125615893D01*
X171414458Y-125647945D01*
X171424689Y-125682329D01*
X171424695Y-125682349D01*
X171434150Y-125714123D01*
X171439300Y-125749486D01*
X171439300Y-130013538D01*
X171461836Y-130097646D01*
X171505374Y-130173055D01*
X171505376Y-130173057D01*
X171574010Y-130241691D01*
X171574016Y-130241696D01*
X172119638Y-130787318D01*
X172153123Y-130848641D01*
X172148139Y-130918333D01*
X172119638Y-130962680D01*
X171675677Y-131406642D01*
X171614106Y-131468212D01*
X171614104Y-131468215D01*
X171570566Y-131543623D01*
X171548030Y-131627730D01*
X171548030Y-136177422D01*
X171546142Y-136198979D01*
X171544862Y-136206228D01*
X171544287Y-136207742D01*
X171537881Y-136245767D01*
X171537776Y-136246368D01*
X171535707Y-136250539D01*
X171516284Y-136295145D01*
X171516542Y-136295294D01*
X171515233Y-136297560D01*
X171514045Y-136300290D01*
X171512479Y-136302330D01*
X171452225Y-136406695D01*
X171452222Y-136406700D01*
X171431427Y-136484307D01*
X171421030Y-136523110D01*
X171421030Y-136643624D01*
X171437013Y-136703271D01*
X171452222Y-136760033D01*
X171452225Y-136760038D01*
X171512474Y-136864394D01*
X171512478Y-136864399D01*
X171512479Y-136864401D01*
X171597696Y-136949618D01*
X171597698Y-136949619D01*
X171597702Y-136949622D01*
X171648544Y-136978975D01*
X171702065Y-137009875D01*
X171818473Y-137041067D01*
X171818475Y-137041067D01*
X171821018Y-137041402D01*
X171823889Y-137042518D01*
X171826323Y-137043170D01*
X171826251Y-137043435D01*
X171833912Y-137046412D01*
X171844401Y-137046824D01*
X171874582Y-137062217D01*
X171875906Y-137062732D01*
X171876371Y-137063057D01*
X171907850Y-137085461D01*
X171909781Y-137086427D01*
X171915272Y-137090268D01*
X171917302Y-137092805D01*
X171931879Y-137104196D01*
X172997736Y-138170053D01*
X173031221Y-138231376D01*
X173026237Y-138301068D01*
X172984365Y-138357001D01*
X172918901Y-138381418D01*
X172910055Y-138381734D01*
X169151002Y-138381734D01*
X169083963Y-138362049D01*
X169038208Y-138309245D01*
X169028264Y-138240087D01*
X169041444Y-138202006D01*
X169041262Y-138201931D01*
X169042528Y-138198873D01*
X169043615Y-138195734D01*
X169043663Y-138195650D01*
X169044373Y-138194421D01*
X169078700Y-138066313D01*
X169078700Y-137933687D01*
X169044373Y-137805579D01*
X168993700Y-137717810D01*
X168978062Y-137690724D01*
X168978058Y-137690719D01*
X168884280Y-137596941D01*
X168884275Y-137596937D01*
X168769423Y-137530628D01*
X168769422Y-137530627D01*
X168641310Y-137496299D01*
X168633253Y-137495239D01*
X168633481Y-137493506D01*
X168622884Y-137490394D01*
X168601952Y-137489310D01*
X168580202Y-137477861D01*
X168575957Y-137476615D01*
X168570649Y-137473007D01*
X168570191Y-137472678D01*
X168521180Y-137436818D01*
X168518016Y-137435196D01*
X168511229Y-137430320D01*
X168509396Y-137427969D01*
X168495895Y-137417294D01*
X168217419Y-137138817D01*
X168183934Y-137077494D01*
X168181100Y-137051136D01*
X168181100Y-133497815D01*
X168184328Y-133472319D01*
X168184241Y-133472306D01*
X168184726Y-133469170D01*
X168185013Y-133466910D01*
X168185171Y-133466290D01*
X168185174Y-133466284D01*
X168194392Y-133406784D01*
X168224108Y-133343551D01*
X168227753Y-133339677D01*
X168228056Y-133339282D01*
X168228060Y-133339279D01*
X168294373Y-133224421D01*
X168328700Y-133096313D01*
X168328700Y-132963687D01*
X168294373Y-132835579D01*
X168228060Y-132720721D01*
X168181552Y-132674213D01*
X168162097Y-132648964D01*
X168121763Y-132579747D01*
X168104900Y-132517316D01*
X168104900Y-127288151D01*
X168104900Y-127288150D01*
X168085825Y-127216963D01*
X168048976Y-127153138D01*
X167996862Y-127101024D01*
X167921862Y-127026024D01*
X166721862Y-125826024D01*
X166658037Y-125789175D01*
X166658038Y-125789175D01*
X166634308Y-125782816D01*
X166586850Y-125770100D01*
X166586848Y-125770100D01*
X162862682Y-125770100D01*
X162847031Y-125765872D01*
X162832962Y-125766486D01*
X162800251Y-125753237D01*
X162731031Y-125712899D01*
X162705785Y-125693446D01*
X162659280Y-125646941D01*
X162659275Y-125646937D01*
X162544423Y-125580628D01*
X162544422Y-125580627D01*
X162512394Y-125572045D01*
X162416313Y-125546300D01*
X162283687Y-125546300D01*
X162206822Y-125566896D01*
X162155577Y-125580627D01*
X162155576Y-125580628D01*
X162040724Y-125646937D01*
X162040719Y-125646941D01*
X161946941Y-125740719D01*
X161946937Y-125740724D01*
X161880628Y-125855576D01*
X161880627Y-125855577D01*
X161863463Y-125919633D01*
X161846300Y-125983687D01*
X161846300Y-125983689D01*
X161846300Y-126116310D01*
X161846299Y-126116310D01*
X161880627Y-126244422D01*
X161880628Y-126244423D01*
X161946937Y-126359275D01*
X161946939Y-126359278D01*
X161946940Y-126359279D01*
X162040721Y-126453060D01*
X162155579Y-126519373D01*
X162283687Y-126553700D01*
X162283690Y-126553700D01*
X162416310Y-126553700D01*
X162416313Y-126553700D01*
X162544421Y-126519373D01*
X162659279Y-126453060D01*
X162705791Y-126406546D01*
X162731031Y-126387098D01*
X162800252Y-126346762D01*
X162862682Y-126329900D01*
X166382700Y-126329900D01*
X166449739Y-126349585D01*
X166470381Y-126366219D01*
X167508781Y-127404619D01*
X167542266Y-127465942D01*
X167545100Y-127492300D01*
X167545100Y-132517317D01*
X167540871Y-132532970D01*
X167541485Y-132547038D01*
X167528238Y-132579747D01*
X167513937Y-132604286D01*
X167487900Y-132648967D01*
X167468446Y-132674213D01*
X167421940Y-132720719D01*
X167355628Y-132835576D01*
X167355627Y-132835577D01*
X167352604Y-132846861D01*
X167321300Y-132963687D01*
X167321300Y-132963689D01*
X167321300Y-133096310D01*
X167321299Y-133096310D01*
X167355627Y-133224422D01*
X167355628Y-133224423D01*
X167421937Y-133339275D01*
X167426886Y-133345724D01*
X167425499Y-133346788D01*
X167430791Y-133356480D01*
X167444828Y-133372050D01*
X167452113Y-133395527D01*
X167454233Y-133399410D01*
X167455434Y-133405713D01*
X167455545Y-133406391D01*
X167464826Y-133466285D01*
X167465915Y-133469666D01*
X167467267Y-133477913D01*
X167466901Y-133480866D01*
X167468900Y-133497968D01*
X167468900Y-137296884D01*
X167495270Y-137395302D01*
X167492813Y-137395960D01*
X167498921Y-137452787D01*
X167467644Y-137515265D01*
X167408987Y-137550540D01*
X167323339Y-137573490D01*
X167323328Y-137573495D01*
X167218972Y-137633744D01*
X167218964Y-137633750D01*
X167133750Y-137718964D01*
X167133744Y-137718972D01*
X167073495Y-137823328D01*
X167073492Y-137823333D01*
X167057622Y-137882561D01*
X167042300Y-137939743D01*
X167042300Y-138060257D01*
X167071551Y-138169421D01*
X167073492Y-138176665D01*
X167084502Y-138195735D01*
X167100973Y-138263636D01*
X167078120Y-138329662D01*
X167023199Y-138372852D01*
X166977114Y-138381734D01*
X165469019Y-138381734D01*
X165401980Y-138362049D01*
X165356225Y-138309245D01*
X165346281Y-138240087D01*
X165361631Y-138195735D01*
X165376823Y-138169421D01*
X165401508Y-138126665D01*
X165432700Y-138010257D01*
X165432700Y-137889743D01*
X165401508Y-137773335D01*
X165370122Y-137718972D01*
X165341255Y-137668972D01*
X165341249Y-137668964D01*
X165256035Y-137583750D01*
X165256027Y-137583744D01*
X165151671Y-137523495D01*
X165151666Y-137523492D01*
X165096413Y-137508687D01*
X165035257Y-137492300D01*
X164914743Y-137492300D01*
X164865007Y-137505627D01*
X164798333Y-137523492D01*
X164798328Y-137523495D01*
X164693972Y-137583744D01*
X164693964Y-137583750D01*
X164608750Y-137668964D01*
X164608744Y-137668972D01*
X164548495Y-137773328D01*
X164548492Y-137773333D01*
X164536814Y-137816918D01*
X164517300Y-137889743D01*
X164517300Y-138010257D01*
X164543072Y-138106437D01*
X164548492Y-138126665D01*
X164588369Y-138195735D01*
X164604840Y-138263635D01*
X164581988Y-138329662D01*
X164527066Y-138372852D01*
X164480981Y-138381734D01*
X160203750Y-138381734D01*
X160196263Y-138381508D01*
X159918260Y-138364691D01*
X159903395Y-138362886D01*
X159633141Y-138313359D01*
X159618602Y-138309775D01*
X159356294Y-138228035D01*
X159342293Y-138222725D01*
X159091748Y-138109962D01*
X159078489Y-138103003D01*
X158843364Y-137960861D01*
X158831041Y-137952355D01*
X158614765Y-137782910D01*
X158603557Y-137772980D01*
X158409278Y-137578696D01*
X158399348Y-137567487D01*
X158394940Y-137561861D01*
X158350886Y-137505628D01*
X158229906Y-137351202D01*
X158221400Y-137338879D01*
X158079268Y-137103754D01*
X158072309Y-137090495D01*
X157959549Y-136839940D01*
X157954240Y-136825939D01*
X157953842Y-136824662D01*
X157872503Y-136563617D01*
X157868925Y-136549100D01*
X157819404Y-136278834D01*
X157817600Y-136263983D01*
X157809838Y-136135604D01*
X158478532Y-136135604D01*
X158478532Y-136364422D01*
X158485228Y-136406700D01*
X158514327Y-136590423D01*
X158585033Y-136808037D01*
X158585034Y-136808040D01*
X158672124Y-136978962D01*
X158688916Y-137011918D01*
X158823412Y-137197035D01*
X158985210Y-137358833D01*
X159170327Y-137493329D01*
X159251169Y-137534520D01*
X159374204Y-137597210D01*
X159374207Y-137597211D01*
X159419210Y-137611833D01*
X159591823Y-137667918D01*
X159817823Y-137703713D01*
X159817824Y-137703713D01*
X160046640Y-137703713D01*
X160046641Y-137703713D01*
X160272641Y-137667918D01*
X160490259Y-137597210D01*
X160694137Y-137493329D01*
X160879254Y-137358833D01*
X161041052Y-137197035D01*
X161175548Y-137011918D01*
X161279429Y-136808040D01*
X161350137Y-136590422D01*
X161385932Y-136364422D01*
X161385932Y-136135604D01*
X161350137Y-135909604D01*
X161279429Y-135691986D01*
X161279429Y-135691985D01*
X161175547Y-135488107D01*
X161175539Y-135488096D01*
X161041052Y-135302991D01*
X160879254Y-135141193D01*
X160694137Y-135006697D01*
X160559807Y-134938252D01*
X160490259Y-134902815D01*
X160490256Y-134902814D01*
X160296140Y-134839743D01*
X164542300Y-134839743D01*
X164542300Y-134960257D01*
X164554741Y-135006685D01*
X164573492Y-135076666D01*
X164573495Y-135076671D01*
X164633744Y-135181027D01*
X164633748Y-135181032D01*
X164633749Y-135181034D01*
X164718966Y-135266251D01*
X164718968Y-135266252D01*
X164718972Y-135266255D01*
X164782725Y-135303062D01*
X164823335Y-135326508D01*
X164939743Y-135357700D01*
X164939745Y-135357700D01*
X165060255Y-135357700D01*
X165060257Y-135357700D01*
X165176665Y-135326508D01*
X165281034Y-135266251D01*
X165366251Y-135181034D01*
X165426508Y-135076665D01*
X165457700Y-134960257D01*
X165457700Y-134839743D01*
X165426508Y-134723335D01*
X165425635Y-134721823D01*
X165366255Y-134618972D01*
X165366249Y-134618964D01*
X165281035Y-134533750D01*
X165281027Y-134533744D01*
X165176671Y-134473495D01*
X165176666Y-134473492D01*
X165130370Y-134461087D01*
X165060257Y-134442300D01*
X164939743Y-134442300D01*
X164881539Y-134457896D01*
X164823333Y-134473492D01*
X164823328Y-134473495D01*
X164718972Y-134533744D01*
X164718964Y-134533750D01*
X164633750Y-134618964D01*
X164633744Y-134618972D01*
X164573495Y-134723328D01*
X164573492Y-134723333D01*
X164567842Y-134744421D01*
X164542300Y-134839743D01*
X160296140Y-134839743D01*
X160272642Y-134832108D01*
X160156885Y-134813774D01*
X160046641Y-134796313D01*
X159817823Y-134796313D01*
X159795561Y-134799839D01*
X159591821Y-134832108D01*
X159374207Y-134902814D01*
X159374204Y-134902815D01*
X159170326Y-135006697D01*
X159066357Y-135082236D01*
X158985210Y-135141193D01*
X158985208Y-135141195D01*
X158985207Y-135141195D01*
X158823414Y-135302988D01*
X158823414Y-135302989D01*
X158823412Y-135302991D01*
X158768406Y-135378700D01*
X158688916Y-135488107D01*
X158585034Y-135691985D01*
X158585033Y-135691988D01*
X158514327Y-135909602D01*
X158491888Y-136051280D01*
X158478532Y-136135604D01*
X157809838Y-136135604D01*
X157809395Y-136128270D01*
X157800726Y-135984878D01*
X157800500Y-135977394D01*
X157800500Y-130765058D01*
X157820185Y-130698019D01*
X157872989Y-130652264D01*
X157924360Y-130641058D01*
X157924871Y-130641057D01*
X157924876Y-130641058D01*
X159886471Y-130638839D01*
X159930634Y-130634062D01*
X159981919Y-130622896D01*
X159992065Y-130620419D01*
X160074068Y-130576803D01*
X160126907Y-130531089D01*
X160145156Y-130513236D01*
X160190560Y-130432210D01*
X160210296Y-130365185D01*
X160218795Y-130306394D01*
X160219567Y-129302418D01*
X160224943Y-122306310D01*
X166996299Y-122306310D01*
X167030627Y-122434422D01*
X167030628Y-122434423D01*
X167096937Y-122549275D01*
X167096939Y-122549278D01*
X167096940Y-122549279D01*
X167190721Y-122643060D01*
X167190722Y-122643061D01*
X167190724Y-122643062D01*
X167221654Y-122660919D01*
X167305579Y-122709373D01*
X167433687Y-122743700D01*
X167433690Y-122743700D01*
X167566310Y-122743700D01*
X167566313Y-122743700D01*
X167694421Y-122709373D01*
X167809279Y-122643060D01*
X167903060Y-122549279D01*
X167969373Y-122434421D01*
X168003700Y-122306313D01*
X168003700Y-122173687D01*
X167969373Y-122045579D01*
X167910970Y-121944421D01*
X167903062Y-121930724D01*
X167903058Y-121930719D01*
X167809280Y-121836941D01*
X167809275Y-121836937D01*
X167694423Y-121770628D01*
X167694422Y-121770627D01*
X167662394Y-121762045D01*
X167566313Y-121736300D01*
X167433687Y-121736300D01*
X167356822Y-121756896D01*
X167305577Y-121770627D01*
X167305576Y-121770628D01*
X167190724Y-121836937D01*
X167190719Y-121836941D01*
X167096941Y-121930719D01*
X167096937Y-121930724D01*
X167030628Y-122045576D01*
X167030627Y-122045577D01*
X167015598Y-122101666D01*
X166996300Y-122173687D01*
X166996300Y-122173689D01*
X166996300Y-122306310D01*
X166996299Y-122306310D01*
X160224943Y-122306310D01*
X160225051Y-122165464D01*
X160226853Y-119820263D01*
X160226853Y-119820086D01*
X160226850Y-119814423D01*
X160224621Y-114783441D01*
X160222855Y-110799055D01*
X160242510Y-110732007D01*
X160295294Y-110686228D01*
X160346855Y-110675000D01*
X164878554Y-110675000D01*
X164900595Y-110677901D01*
G37*
%TD.AperFunction*%
%TA.AperFunction,Conductor*%
G36*
X187113180Y-110694685D02*
G01*
X187158935Y-110747489D01*
X187168879Y-110816647D01*
X187139854Y-110880203D01*
X187133822Y-110886681D01*
X186071522Y-111948981D01*
X186010199Y-111982466D01*
X185983841Y-111985300D01*
X178141014Y-111985300D01*
X178099963Y-111996299D01*
X178099963Y-111996300D01*
X178063776Y-112005996D01*
X178063774Y-112005996D01*
X178063774Y-112005997D01*
X177994524Y-112045979D01*
X177994521Y-112045981D01*
X177937977Y-112102526D01*
X177519835Y-112520667D01*
X177458512Y-112554152D01*
X177388820Y-112549168D01*
X177332887Y-112507296D01*
X177308470Y-112441832D01*
X177312378Y-112400898D01*
X177328700Y-112339984D01*
X177328700Y-112260017D01*
X177328700Y-111527158D01*
X177348385Y-111460119D01*
X177365015Y-111439481D01*
X178038566Y-110765929D01*
X178047255Y-110760306D01*
X178051316Y-110754811D01*
X178082177Y-110737707D01*
X178150358Y-110711790D01*
X178194414Y-110703700D01*
X178241311Y-110703700D01*
X178241313Y-110703700D01*
X178332653Y-110679224D01*
X178364747Y-110675000D01*
X187046141Y-110675000D01*
X187113180Y-110694685D01*
G37*
%TD.AperFunction*%
%TD*%
%TA.AperFunction,Conductor*%
%TO.N,DCBUS*%
G36*
X163650000Y-100400000D02*
G01*
X163650000Y-100930000D01*
X162950000Y-100400000D01*
X161010000Y-100400000D01*
X160010000Y-101419999D01*
X160009999Y-101420000D01*
X160018153Y-119820000D01*
X160018153Y-119820150D01*
X160010095Y-130306234D01*
X159990359Y-130373259D01*
X159937520Y-130418973D01*
X159886235Y-130430139D01*
X157924640Y-130432358D01*
X157857579Y-130412749D01*
X157811764Y-130359997D01*
X157800500Y-130308358D01*
X157800500Y-101250862D01*
X157820185Y-101183823D01*
X157836819Y-101163181D01*
X159963681Y-99036319D01*
X160025004Y-99002834D01*
X160051362Y-99000000D01*
X163650000Y-99000000D01*
X163650000Y-100400000D01*
G37*
%TD.AperFunction*%
%TD*%
%TA.AperFunction,Conductor*%
%TO.N,+12V*%
G36*
X167614878Y-119259071D02*
G01*
X167640510Y-119268814D01*
X167783830Y-119323296D01*
X167790345Y-119329437D01*
X167791264Y-119332644D01*
X167828616Y-119605437D01*
X167826343Y-119614098D01*
X167818611Y-119618616D01*
X167815437Y-119618616D01*
X167542644Y-119581264D01*
X167534912Y-119576746D01*
X167533297Y-119573833D01*
X167469071Y-119404878D01*
X167469334Y-119395927D01*
X167471731Y-119392451D01*
X167602449Y-119261733D01*
X167610721Y-119258307D01*
X167614878Y-119259071D01*
G37*
%TD.AperFunction*%
%TD*%
%TA.AperFunction,Conductor*%
%TO.N,+12V*%
G36*
X168211223Y-119382992D02*
G01*
X168219494Y-119386424D01*
X168222915Y-119394692D01*
X168222915Y-119631275D01*
X168219488Y-119639548D01*
X168218397Y-119640512D01*
X168108044Y-119726314D01*
X168099409Y-119728686D01*
X168096484Y-119727927D01*
X167843196Y-119625728D01*
X167836806Y-119619455D01*
X167836724Y-119610500D01*
X167838251Y-119607809D01*
X168005456Y-119387485D01*
X168013185Y-119382968D01*
X168014769Y-119382860D01*
X168211223Y-119382992D01*
G37*
%TD.AperFunction*%
%TD*%
%TA.AperFunction,Conductor*%
%TO.N,+5V*%
G36*
X162592857Y-125873931D02*
G01*
X162594213Y-125874721D01*
X162758428Y-125970415D01*
X162763849Y-125977540D01*
X162764236Y-125980523D01*
X162764236Y-126119476D01*
X162760809Y-126127749D01*
X162758427Y-126129585D01*
X162592857Y-126226068D01*
X162583983Y-126227272D01*
X162579892Y-126225278D01*
X162440520Y-126119476D01*
X162361274Y-126059317D01*
X162356757Y-126051587D01*
X162359030Y-126042926D01*
X162361272Y-126040683D01*
X162579893Y-125874720D01*
X162588553Y-125872448D01*
X162592857Y-125873931D01*
G37*
%TD.AperFunction*%
%TD*%
%TA.AperFunction,Conductor*%
%TO.N,+5V*%
G36*
X167902749Y-132619191D02*
G01*
X167904585Y-132621573D01*
X168001068Y-132787142D01*
X168002272Y-132796016D01*
X168000278Y-132800107D01*
X167834319Y-133018724D01*
X167826587Y-133023242D01*
X167817926Y-133020969D01*
X167815681Y-133018724D01*
X167649721Y-132800107D01*
X167647448Y-132791446D01*
X167648931Y-132787142D01*
X167745415Y-132621573D01*
X167752541Y-132616151D01*
X167755524Y-132615764D01*
X167894476Y-132615764D01*
X167902749Y-132619191D01*
G37*
%TD.AperFunction*%
%TD*%
%TA.AperFunction,Conductor*%
%TO.N,+5V*%
G36*
X167832074Y-133039030D02*
G01*
X167834316Y-133041272D01*
X167978047Y-133230608D01*
X168001996Y-133262155D01*
X168004269Y-133270816D01*
X168004239Y-133271021D01*
X167978935Y-133434328D01*
X167974282Y-133441978D01*
X167967373Y-133444236D01*
X167682627Y-133444236D01*
X167674354Y-133440809D01*
X167671065Y-133434328D01*
X167664443Y-133391594D01*
X167645760Y-133271019D01*
X167647880Y-133262320D01*
X167647954Y-133262220D01*
X167815682Y-133041274D01*
X167823413Y-133036757D01*
X167832074Y-133039030D01*
G37*
%TD.AperFunction*%
%TD*%
%TA.AperFunction,Conductor*%
%TO.N,+5V*%
G36*
X168397944Y-137605248D02*
G01*
X168529704Y-137701653D01*
X168531312Y-137702830D01*
X168535965Y-137710480D01*
X168535995Y-137710685D01*
X168573616Y-137985437D01*
X168571343Y-137994098D01*
X168563611Y-137998616D01*
X168560437Y-137998616D01*
X168285685Y-137960995D01*
X168277953Y-137956477D01*
X168277830Y-137956312D01*
X168276653Y-137954704D01*
X168180248Y-137822944D01*
X168178129Y-137814245D01*
X168181416Y-137807766D01*
X168382765Y-137606417D01*
X168391037Y-137602991D01*
X168397944Y-137605248D01*
G37*
%TD.AperFunction*%
%TD*%
%TA.AperFunction,Conductor*%
%TO.N,VCC*%
G36*
X173378131Y-123000796D02*
G01*
X173380103Y-123002004D01*
X173563730Y-123141296D01*
X173568250Y-123149027D01*
X173565981Y-123157689D01*
X173563730Y-123159940D01*
X173380103Y-123299231D01*
X173371441Y-123301500D01*
X173369192Y-123300961D01*
X173232161Y-123253348D01*
X173225471Y-123247395D01*
X173224301Y-123242296D01*
X173224301Y-123058939D01*
X173227728Y-123050666D01*
X173232161Y-123047887D01*
X173369194Y-123000274D01*
X173378131Y-123000796D01*
G37*
%TD.AperFunction*%
%TD*%
%TA.AperFunction,Conductor*%
%TO.N,VCC*%
G36*
X176009276Y-137598458D02*
G01*
X176176541Y-137765723D01*
X176179968Y-137773996D01*
X176178557Y-137779566D01*
X176097060Y-137930104D01*
X176090108Y-137935748D01*
X176088358Y-137936126D01*
X175814562Y-137973616D01*
X175805901Y-137971343D01*
X175801383Y-137963611D01*
X175801383Y-137960443D01*
X175838873Y-137686640D01*
X175843391Y-137678909D01*
X175844888Y-137677943D01*
X175995436Y-137596441D01*
X176004340Y-137595517D01*
X176009276Y-137598458D01*
G37*
%TD.AperFunction*%
%TD*%
%TA.AperFunction,Conductor*%
%TO.N,VCC*%
G36*
X182050702Y-124314191D02*
G01*
X182053102Y-124317671D01*
X182127154Y-124482553D01*
X182127417Y-124491503D01*
X182125800Y-124494420D01*
X181959319Y-124713724D01*
X181951587Y-124718242D01*
X181942926Y-124715969D01*
X181940681Y-124713724D01*
X181906057Y-124668115D01*
X181774198Y-124494418D01*
X181771926Y-124485759D01*
X181772845Y-124482553D01*
X181846898Y-124317669D01*
X181853414Y-124311528D01*
X181857571Y-124310764D01*
X182042429Y-124310764D01*
X182050702Y-124314191D01*
G37*
%TD.AperFunction*%
%TD*%
%TA.AperFunction,Conductor*%
%TO.N,VCC*%
G36*
X172004108Y-136236075D02*
G01*
X172007373Y-136242405D01*
X172030290Y-136378473D01*
X172028284Y-136387200D01*
X172028074Y-136387487D01*
X171888052Y-136572077D01*
X171880321Y-136576597D01*
X171871659Y-136574328D01*
X171869408Y-136572077D01*
X171729385Y-136387487D01*
X171727116Y-136378825D01*
X171727170Y-136378473D01*
X171750088Y-136242405D01*
X171754841Y-136234816D01*
X171761625Y-136232648D01*
X171995835Y-136232648D01*
X172004108Y-136236075D01*
G37*
%TD.AperFunction*%
%TD*%
%TA.AperFunction,Conductor*%
%TO.N,VCC*%
G36*
X172122839Y-136616272D02*
G01*
X172130570Y-136620792D01*
X172130780Y-136621079D01*
X172210790Y-136733500D01*
X172212795Y-136742227D01*
X172209531Y-136748557D01*
X172043920Y-136914168D01*
X172035647Y-136917595D01*
X172028863Y-136915427D01*
X171916442Y-136835417D01*
X171911689Y-136827828D01*
X171911635Y-136827476D01*
X171900800Y-136748557D01*
X171880120Y-136597937D01*
X171882389Y-136589277D01*
X171890120Y-136584757D01*
X171893297Y-136584757D01*
X172122839Y-136616272D01*
G37*
%TD.AperFunction*%
%TD*%
%TA.AperFunction,Conductor*%
%TO.N,VCC*%
G36*
X175785833Y-137973295D02*
G01*
X175793670Y-137977624D01*
X175796152Y-137986229D01*
X175795413Y-137989204D01*
X175695399Y-138243520D01*
X175689182Y-138249965D01*
X175687194Y-138250626D01*
X175479271Y-138299611D01*
X175470432Y-138298173D01*
X175465200Y-138290906D01*
X175464888Y-138288223D01*
X175464888Y-138051155D01*
X175465656Y-138046986D01*
X175502534Y-137950292D01*
X175508683Y-137943785D01*
X175514771Y-137942836D01*
X175785833Y-137973295D01*
G37*
%TD.AperFunction*%
%TD*%
%TA.AperFunction,Conductor*%
%TO.N,VCC*%
G36*
X188267108Y-136244216D02*
G01*
X188268612Y-136245186D01*
X188488724Y-136412281D01*
X188493242Y-136420013D01*
X188490969Y-136428674D01*
X188488724Y-136430919D01*
X188268612Y-136598013D01*
X188259951Y-136600286D01*
X188258201Y-136599908D01*
X188251832Y-136598013D01*
X188213116Y-136586493D01*
X188094127Y-136551088D01*
X188087175Y-136545444D01*
X188085764Y-136539874D01*
X188085764Y-136303325D01*
X188089191Y-136295052D01*
X188094124Y-136292112D01*
X188258203Y-136243291D01*
X188267108Y-136244216D01*
G37*
%TD.AperFunction*%
%TD*%
%TA.AperFunction,Conductor*%
%TO.N,VCC*%
G36*
X171777074Y-125279030D02*
G01*
X171779316Y-125281272D01*
X171925715Y-125474122D01*
X171946413Y-125501387D01*
X171948686Y-125510048D01*
X171948308Y-125511798D01*
X171899488Y-125675873D01*
X171893844Y-125682825D01*
X171888274Y-125684236D01*
X171651726Y-125684236D01*
X171643453Y-125680809D01*
X171640512Y-125675873D01*
X171625539Y-125625555D01*
X171591691Y-125511795D01*
X171592616Y-125502891D01*
X171593580Y-125501394D01*
X171760682Y-125281274D01*
X171768413Y-125276757D01*
X171777074Y-125279030D01*
G37*
%TD.AperFunction*%
%TD*%
%TA.AperFunction,Conductor*%
%TO.N,VCC*%
G36*
X173392108Y-130697616D02*
G01*
X173393612Y-130698586D01*
X173613724Y-130865681D01*
X173618242Y-130873413D01*
X173615969Y-130882074D01*
X173613724Y-130884319D01*
X173393612Y-131051413D01*
X173384951Y-131053686D01*
X173383201Y-131053308D01*
X173376832Y-131051413D01*
X173338116Y-131039893D01*
X173219127Y-131004488D01*
X173212175Y-130998844D01*
X173210764Y-130993274D01*
X173210764Y-130756725D01*
X173214191Y-130748452D01*
X173219124Y-130745512D01*
X173383203Y-130696691D01*
X173392108Y-130697616D01*
G37*
%TD.AperFunction*%
%TD*%
%TA.AperFunction,Conductor*%
%TO.N,VCC*%
G36*
X173780841Y-123000272D02*
G01*
X173917879Y-123047887D01*
X173924569Y-123053839D01*
X173925739Y-123058939D01*
X173925739Y-123242296D01*
X173922312Y-123250569D01*
X173917879Y-123253348D01*
X173780847Y-123300961D01*
X173771907Y-123300439D01*
X173769936Y-123299231D01*
X173586309Y-123159940D01*
X173581789Y-123152209D01*
X173584058Y-123143547D01*
X173586309Y-123141296D01*
X173769937Y-123002003D01*
X173778598Y-122999735D01*
X173780841Y-123000272D01*
G37*
%TD.AperFunction*%
%TD*%
%TA.AperFunction,Conductor*%
%TO.N,VCC*%
G36*
X171870702Y-124859191D02*
G01*
X171873102Y-124862671D01*
X171947154Y-125027553D01*
X171947417Y-125036503D01*
X171945800Y-125039420D01*
X171779319Y-125258724D01*
X171771587Y-125263242D01*
X171762926Y-125260969D01*
X171760681Y-125258724D01*
X171726057Y-125213115D01*
X171594198Y-125039418D01*
X171591926Y-125030759D01*
X171592845Y-125027553D01*
X171666898Y-124862669D01*
X171673414Y-124856528D01*
X171677571Y-124855764D01*
X171862429Y-124855764D01*
X171870702Y-124859191D01*
G37*
%TD.AperFunction*%
%TD*%
%TA.AperFunction,Conductor*%
%TO.N,VCC*%
G36*
X200162356Y-119938736D02*
G01*
X200170087Y-119943253D01*
X200171704Y-119946170D01*
X200235928Y-120115121D01*
X200235665Y-120124072D01*
X200233265Y-120127551D01*
X200102551Y-120258265D01*
X200094278Y-120261692D01*
X200090121Y-120260928D01*
X199921170Y-120196704D01*
X199914654Y-120190562D01*
X199913736Y-120187360D01*
X199876383Y-119914560D01*
X199878656Y-119905901D01*
X199886388Y-119901383D01*
X199889557Y-119901383D01*
X200162356Y-119938736D01*
G37*
%TD.AperFunction*%
%TD*%
%TA.AperFunction,Conductor*%
%TO.N,VCC*%
G36*
X188742446Y-136244445D02*
G01*
X188907329Y-136318498D01*
X188913472Y-136325014D01*
X188914236Y-136329171D01*
X188914236Y-136514028D01*
X188910809Y-136522301D01*
X188907329Y-136524701D01*
X188742446Y-136598754D01*
X188733496Y-136599017D01*
X188730579Y-136597400D01*
X188511274Y-136430917D01*
X188506757Y-136423187D01*
X188509030Y-136414526D01*
X188511272Y-136412283D01*
X188730581Y-136245798D01*
X188739240Y-136243526D01*
X188742446Y-136244445D01*
G37*
%TD.AperFunction*%
%TD*%
%TA.AperFunction,Conductor*%
%TO.N,/SH_A*%
G36*
X188244098Y-110203656D02*
G01*
X188248616Y-110211388D01*
X188248616Y-110214562D01*
X188211265Y-110487355D01*
X188206747Y-110495087D01*
X188203830Y-110496704D01*
X188034878Y-110560928D01*
X188025927Y-110560665D01*
X188022448Y-110558265D01*
X187891734Y-110427551D01*
X187888307Y-110419278D01*
X187889071Y-110415121D01*
X187953296Y-110246167D01*
X187959437Y-110239654D01*
X187962637Y-110238736D01*
X188235439Y-110201383D01*
X188244098Y-110203656D01*
G37*
%TD.AperFunction*%
%TD*%
%TA.AperFunction,Conductor*%
%TO.N,/SH_A*%
G36*
X176570702Y-114239191D02*
G01*
X176573102Y-114242671D01*
X176647154Y-114407553D01*
X176647417Y-114416503D01*
X176645800Y-114419420D01*
X176479319Y-114638724D01*
X176471587Y-114643242D01*
X176462926Y-114640969D01*
X176460681Y-114638724D01*
X176426057Y-114593115D01*
X176294198Y-114419418D01*
X176291926Y-114410759D01*
X176292845Y-114407553D01*
X176366898Y-114242669D01*
X176373414Y-114236528D01*
X176377571Y-114235764D01*
X176562429Y-114235764D01*
X176570702Y-114239191D01*
G37*
%TD.AperFunction*%
%TD*%
%TA.AperFunction,Conductor*%
%TO.N,/SH_B*%
G36*
X173194072Y-115438334D02*
G01*
X173197551Y-115440734D01*
X173328265Y-115571448D01*
X173331692Y-115579721D01*
X173330928Y-115583878D01*
X173266704Y-115752829D01*
X173260562Y-115759345D01*
X173257355Y-115760264D01*
X172984562Y-115797616D01*
X172975901Y-115795343D01*
X172971383Y-115787611D01*
X172971383Y-115784443D01*
X173008737Y-115511641D01*
X173013254Y-115503912D01*
X173016164Y-115502298D01*
X173185121Y-115438071D01*
X173194072Y-115438334D01*
G37*
%TD.AperFunction*%
%TD*%
%TA.AperFunction,Conductor*%
%TO.N,/SH_B*%
G36*
X176632074Y-110209030D02*
G01*
X176634316Y-110211272D01*
X176800800Y-110430579D01*
X176803073Y-110439240D01*
X176802154Y-110442446D01*
X176728102Y-110607329D01*
X176721586Y-110613472D01*
X176717429Y-110614236D01*
X176532571Y-110614236D01*
X176524298Y-110610809D01*
X176521898Y-110607329D01*
X176447845Y-110442446D01*
X176447582Y-110433496D01*
X176449195Y-110430585D01*
X176615682Y-110211274D01*
X176623413Y-110206757D01*
X176632074Y-110209030D01*
G37*
%TD.AperFunction*%
%TD*%
%TA.AperFunction,Conductor*%
%TO.N,/SH_C*%
G36*
X172539417Y-118604197D02*
G01*
X172713115Y-118736057D01*
X172758724Y-118770681D01*
X172763242Y-118778413D01*
X172760969Y-118787074D01*
X172758724Y-118789319D01*
X172539420Y-118955800D01*
X172530759Y-118958073D01*
X172527552Y-118957154D01*
X172362670Y-118883101D01*
X172356528Y-118876585D01*
X172355764Y-118872428D01*
X172355764Y-118687571D01*
X172359191Y-118679298D01*
X172362668Y-118676898D01*
X172527553Y-118602844D01*
X172536503Y-118602582D01*
X172539417Y-118604197D01*
G37*
%TD.AperFunction*%
%TD*%
%TA.AperFunction,Conductor*%
%TO.N,/SH_C*%
G36*
X165262356Y-110213736D02*
G01*
X165270087Y-110218253D01*
X165271704Y-110221170D01*
X165335928Y-110390121D01*
X165335665Y-110399072D01*
X165333265Y-110402551D01*
X165202551Y-110533265D01*
X165194278Y-110536692D01*
X165190121Y-110535928D01*
X165021170Y-110471704D01*
X165014654Y-110465562D01*
X165013736Y-110462360D01*
X164976383Y-110189560D01*
X164978656Y-110180901D01*
X164986388Y-110176383D01*
X164989557Y-110176383D01*
X165262356Y-110213736D01*
G37*
%TD.AperFunction*%
%TD*%
%TA.AperFunction,Conductor*%
%TO.N,/CAN-*%
G36*
X174899072Y-137214334D02*
G01*
X174902551Y-137216734D01*
X175033265Y-137347448D01*
X175036692Y-137355721D01*
X175035928Y-137359878D01*
X174971704Y-137528829D01*
X174965562Y-137535345D01*
X174962355Y-137536264D01*
X174689562Y-137573616D01*
X174680901Y-137571343D01*
X174676383Y-137563611D01*
X174676383Y-137560443D01*
X174713737Y-137287641D01*
X174718254Y-137279912D01*
X174721164Y-137278298D01*
X174890121Y-137214071D01*
X174899072Y-137214334D01*
G37*
%TD.AperFunction*%
%TD*%
%TA.AperFunction,Conductor*%
%TO.N,/CAN-*%
G36*
X182312104Y-136185880D02*
G01*
X182364145Y-136208328D01*
X182562210Y-136293767D01*
X182568448Y-136300189D01*
X182568318Y-136309143D01*
X182566744Y-136311777D01*
X182397623Y-136525122D01*
X182389798Y-136529477D01*
X182383022Y-136528217D01*
X182268721Y-136468304D01*
X182265880Y-136466214D01*
X182134997Y-136335331D01*
X182131570Y-136327058D01*
X182134997Y-136318785D01*
X182135993Y-136317897D01*
X182166371Y-136293766D01*
X182300193Y-136187461D01*
X182308802Y-136184999D01*
X182312104Y-136185880D01*
G37*
%TD.AperFunction*%
%TD*%
%TA.AperFunction,Conductor*%
%TO.N,/CAN+*%
G36*
X174987356Y-135713736D02*
G01*
X174995087Y-135718253D01*
X174996704Y-135721170D01*
X175060928Y-135890121D01*
X175060665Y-135899072D01*
X175058265Y-135902551D01*
X174927551Y-136033265D01*
X174919278Y-136036692D01*
X174915121Y-136035928D01*
X174746170Y-135971704D01*
X174739654Y-135965562D01*
X174738736Y-135962360D01*
X174701383Y-135689560D01*
X174703656Y-135680901D01*
X174711388Y-135676383D01*
X174714557Y-135676383D01*
X174987356Y-135713736D01*
G37*
%TD.AperFunction*%
%TD*%
%TA.AperFunction,Conductor*%
%TO.N,/CAN+*%
G36*
X181979659Y-135710156D02*
G01*
X181981233Y-135712790D01*
X182089119Y-135962893D01*
X182089249Y-135971847D01*
X182087537Y-135974804D01*
X181957102Y-136139006D01*
X181949273Y-136143353D01*
X181940664Y-136140890D01*
X181939668Y-136140002D01*
X181808785Y-136009119D01*
X181806695Y-136006278D01*
X181790197Y-135974804D01*
X181746782Y-135891977D01*
X181745977Y-135883058D01*
X181749875Y-135877378D01*
X181963223Y-135708254D01*
X181971834Y-135705801D01*
X181979659Y-135710156D01*
G37*
%TD.AperFunction*%
%TD*%
%TA.AperFunction,Conductor*%
%TO.N,/GH_A*%
G36*
X175877446Y-115077845D02*
G01*
X176042329Y-115151898D01*
X176048472Y-115158414D01*
X176049236Y-115162571D01*
X176049236Y-115347428D01*
X176045809Y-115355701D01*
X176042329Y-115358101D01*
X175877446Y-115432154D01*
X175868496Y-115432417D01*
X175865579Y-115430800D01*
X175646274Y-115264317D01*
X175641757Y-115256587D01*
X175644030Y-115247926D01*
X175646272Y-115245683D01*
X175865581Y-115079198D01*
X175874240Y-115076926D01*
X175877446Y-115077845D01*
G37*
%TD.AperFunction*%
%TD*%
%TA.AperFunction,Conductor*%
%TO.N,/GH_A*%
G36*
X189794098Y-110203656D02*
G01*
X189798616Y-110211388D01*
X189798616Y-110214562D01*
X189761265Y-110487355D01*
X189756747Y-110495087D01*
X189753830Y-110496704D01*
X189584878Y-110560928D01*
X189575927Y-110560665D01*
X189572448Y-110558265D01*
X189441734Y-110427551D01*
X189438307Y-110419278D01*
X189439071Y-110415121D01*
X189503296Y-110246167D01*
X189509437Y-110239654D01*
X189512637Y-110238736D01*
X189785439Y-110201383D01*
X189794098Y-110203656D01*
G37*
%TD.AperFunction*%
%TD*%
%TA.AperFunction,Conductor*%
%TO.N,/GH_B*%
G36*
X178169098Y-110203656D02*
G01*
X178173616Y-110211388D01*
X178173616Y-110214562D01*
X178136265Y-110487355D01*
X178131747Y-110495087D01*
X178128830Y-110496704D01*
X177959878Y-110560928D01*
X177950927Y-110560665D01*
X177947448Y-110558265D01*
X177816734Y-110427551D01*
X177813307Y-110419278D01*
X177814071Y-110415121D01*
X177878296Y-110246167D01*
X177884437Y-110239654D01*
X177887637Y-110238736D01*
X178160439Y-110201383D01*
X178169098Y-110203656D01*
G37*
%TD.AperFunction*%
%TD*%
%TA.AperFunction,Conductor*%
%TO.N,/GH_B*%
G36*
X173775702Y-115989191D02*
G01*
X173778102Y-115992671D01*
X173852154Y-116157553D01*
X173852417Y-116166503D01*
X173850800Y-116169420D01*
X173684319Y-116388724D01*
X173676587Y-116393242D01*
X173667926Y-116390969D01*
X173665681Y-116388724D01*
X173631057Y-116343115D01*
X173499198Y-116169418D01*
X173496926Y-116160759D01*
X173497845Y-116157553D01*
X173571898Y-115992669D01*
X173578414Y-115986528D01*
X173582571Y-115985764D01*
X173767429Y-115985764D01*
X173775702Y-115989191D01*
G37*
%TD.AperFunction*%
%TD*%
%TA.AperFunction,Conductor*%
%TO.N,/GH_C*%
G36*
X173188451Y-117974254D02*
G01*
X173190824Y-117976101D01*
X173382893Y-118170016D01*
X173386280Y-118178305D01*
X173382813Y-118186562D01*
X173380355Y-118188424D01*
X173141200Y-118324163D01*
X173132314Y-118325267D01*
X173129008Y-118323771D01*
X172983699Y-118228465D01*
X172978661Y-118221063D01*
X172978416Y-118218682D01*
X172978416Y-118034060D01*
X172981843Y-118025787D01*
X172987185Y-118022733D01*
X173179584Y-117973006D01*
X173188451Y-117974254D01*
G37*
%TD.AperFunction*%
%TD*%
%TA.AperFunction,Conductor*%
%TO.N,/GH_C*%
G36*
X166582074Y-110184030D02*
G01*
X166584316Y-110186272D01*
X166750800Y-110405579D01*
X166753073Y-110414240D01*
X166752154Y-110417446D01*
X166678102Y-110582329D01*
X166671586Y-110588472D01*
X166667429Y-110589236D01*
X166482571Y-110589236D01*
X166474298Y-110585809D01*
X166471898Y-110582329D01*
X166397845Y-110417446D01*
X166397582Y-110408496D01*
X166399195Y-110405585D01*
X166565682Y-110186274D01*
X166573413Y-110181757D01*
X166582074Y-110184030D01*
G37*
%TD.AperFunction*%
%TD*%
%TA.AperFunction,Conductor*%
%TO.N,/USB_DN*%
G36*
X190416064Y-127950998D02*
G01*
X190628105Y-127967794D01*
X190636080Y-127971862D01*
X190638323Y-127975892D01*
X190721356Y-128235483D01*
X190720612Y-128244406D01*
X190713776Y-128250191D01*
X190710775Y-128250733D01*
X190441136Y-128263730D01*
X190432708Y-128260706D01*
X190429036Y-128253991D01*
X190403628Y-128103366D01*
X190403465Y-128101420D01*
X190403465Y-127962662D01*
X190406892Y-127954389D01*
X190415165Y-127950962D01*
X190416064Y-127950998D01*
G37*
%TD.AperFunction*%
%TD*%
%TA.AperFunction,Conductor*%
%TO.N,/USB_DN*%
G36*
X173958986Y-121539568D02*
G01*
X174039015Y-121627703D01*
X174140461Y-121739423D01*
X174143485Y-121747851D01*
X174139664Y-121755950D01*
X174137158Y-121757688D01*
X173894888Y-121882532D01*
X173885965Y-121883276D01*
X173881935Y-121881033D01*
X173720142Y-121742991D01*
X173716073Y-121735014D01*
X173718835Y-121726496D01*
X173719450Y-121725830D01*
X173817583Y-121627697D01*
X173819062Y-121626446D01*
X173943544Y-121537899D01*
X173952271Y-121535897D01*
X173958986Y-121539568D01*
G37*
%TD.AperFunction*%
%TD*%
%TA.AperFunction,Conductor*%
%TO.N,/SPI1_MOSI*%
G36*
X181981431Y-128856096D02*
G01*
X182119295Y-128925754D01*
X182125134Y-128932544D01*
X182125719Y-128936197D01*
X182125719Y-129074202D01*
X182122292Y-129082475D01*
X182119295Y-129084645D01*
X181981431Y-129154303D01*
X181972502Y-129154975D01*
X181969084Y-129153182D01*
X181786289Y-129014522D01*
X181781769Y-129006791D01*
X181784038Y-128998129D01*
X181786289Y-128995878D01*
X181864966Y-128936197D01*
X181969085Y-128857216D01*
X181977746Y-128854948D01*
X181981431Y-128856096D01*
G37*
%TD.AperFunction*%
%TD*%
%TA.AperFunction,Conductor*%
%TO.N,/SPI1_MOSI*%
G36*
X198820107Y-115999721D02*
G01*
X199038724Y-116165681D01*
X199043242Y-116173413D01*
X199040969Y-116182074D01*
X199038724Y-116184319D01*
X198820107Y-116350278D01*
X198811446Y-116352551D01*
X198807142Y-116351068D01*
X198641573Y-116254585D01*
X198636151Y-116247459D01*
X198635764Y-116244476D01*
X198635764Y-116105523D01*
X198639191Y-116097250D01*
X198641568Y-116095417D01*
X198807142Y-115998930D01*
X198816016Y-115997727D01*
X198820107Y-115999721D01*
G37*
%TD.AperFunction*%
%TD*%
%TA.AperFunction,Conductor*%
%TO.N,/E_CS*%
G36*
X182041878Y-128157598D02*
G01*
X182049608Y-128162118D01*
X182051401Y-128165536D01*
X182099629Y-128312277D01*
X182098957Y-128321206D01*
X182096787Y-128324203D01*
X181999203Y-128421787D01*
X181990930Y-128425214D01*
X181987277Y-128424629D01*
X181840536Y-128376401D01*
X181833746Y-128370562D01*
X181832599Y-128366881D01*
X181801390Y-128139570D01*
X181803659Y-128130910D01*
X181811390Y-128126390D01*
X181814567Y-128126390D01*
X182041878Y-128157598D01*
G37*
%TD.AperFunction*%
%TD*%
%TA.AperFunction,Conductor*%
%TO.N,/E_CS*%
G36*
X199044288Y-114928976D02*
G01*
X199049174Y-114936480D01*
X199049326Y-114939673D01*
X199024928Y-115211535D01*
X199020776Y-115219469D01*
X199016882Y-115221619D01*
X198830287Y-115282081D01*
X198821360Y-115281371D01*
X198818407Y-115279224D01*
X198720153Y-115180970D01*
X198716726Y-115172697D01*
X198716958Y-115170378D01*
X198754195Y-114987070D01*
X198759199Y-114979646D01*
X198763510Y-114977901D01*
X199035527Y-114927126D01*
X199044288Y-114928976D01*
G37*
%TD.AperFunction*%
%TD*%
%TA.AperFunction,Conductor*%
%TO.N,/SPI1_MISO*%
G36*
X182066878Y-129857598D02*
G01*
X182074608Y-129862118D01*
X182076401Y-129865536D01*
X182124629Y-130012277D01*
X182123957Y-130021206D01*
X182121787Y-130024203D01*
X182024203Y-130121787D01*
X182015930Y-130125214D01*
X182012277Y-130124629D01*
X181865536Y-130076401D01*
X181858746Y-130070562D01*
X181857599Y-130066881D01*
X181826390Y-129839570D01*
X181828659Y-129830910D01*
X181836390Y-129826390D01*
X181839567Y-129826390D01*
X182066878Y-129857598D01*
G37*
%TD.AperFunction*%
%TD*%
%TA.AperFunction,Conductor*%
%TO.N,/SPI1_MISO*%
G36*
X198994098Y-118728656D02*
G01*
X198998616Y-118736388D01*
X198998616Y-118739562D01*
X198961382Y-119011500D01*
X198956864Y-119019232D01*
X198952772Y-119021226D01*
X198767473Y-119070075D01*
X198758600Y-119068871D01*
X198756218Y-119067035D01*
X198657964Y-118968781D01*
X198654537Y-118960508D01*
X198654924Y-118957525D01*
X198703774Y-118772225D01*
X198709195Y-118765101D01*
X198713494Y-118763619D01*
X198985439Y-118726383D01*
X198994098Y-118728656D01*
G37*
%TD.AperFunction*%
%TD*%
%TA.AperFunction,Conductor*%
%TO.N,/SPI1_SCK*%
G36*
X199337094Y-117373640D02*
G01*
X199340373Y-117376409D01*
X199473137Y-117538876D01*
X199475718Y-117547450D01*
X199472350Y-117554552D01*
X199374165Y-117652737D01*
X199369228Y-117655678D01*
X199211549Y-117702577D01*
X199202642Y-117701651D01*
X199198181Y-117697384D01*
X199171387Y-117652737D01*
X199057221Y-117462504D01*
X199055903Y-117453648D01*
X199061233Y-117446453D01*
X199064146Y-117445205D01*
X199328209Y-117372531D01*
X199337094Y-117373640D01*
G37*
%TD.AperFunction*%
%TD*%
%TA.AperFunction,Conductor*%
%TO.N,/SPI1_SCK*%
G36*
X182031431Y-130425896D02*
G01*
X182169295Y-130495554D01*
X182175134Y-130502344D01*
X182175719Y-130505997D01*
X182175719Y-130644002D01*
X182172292Y-130652275D01*
X182169295Y-130654445D01*
X182031431Y-130724103D01*
X182022502Y-130724775D01*
X182019084Y-130722982D01*
X181836289Y-130584322D01*
X181831769Y-130576591D01*
X181834038Y-130567929D01*
X181836289Y-130565678D01*
X181914966Y-130505997D01*
X182019085Y-130427016D01*
X182027746Y-130424748D01*
X182031431Y-130425896D01*
G37*
%TD.AperFunction*%
%TD*%
%TA.AperFunction,Conductor*%
%TO.N,/USB_DP*%
G36*
X190710775Y-127399266D02*
G01*
X190718874Y-127403087D01*
X190721898Y-127411515D01*
X190721356Y-127414517D01*
X190638322Y-127674107D01*
X190632537Y-127680942D01*
X190628102Y-127682205D01*
X190416089Y-127698999D01*
X190407571Y-127696237D01*
X190403502Y-127688260D01*
X190403465Y-127687336D01*
X190403465Y-127548579D01*
X190403628Y-127546633D01*
X190429037Y-127396006D01*
X190433791Y-127388420D01*
X190441133Y-127386268D01*
X190710775Y-127399266D01*
G37*
%TD.AperFunction*%
%TD*%
%TA.AperFunction,Conductor*%
%TO.N,/USB_DP*%
G36*
X173541323Y-121920503D02*
G01*
X173541949Y-121921180D01*
X173625675Y-122019312D01*
X173679993Y-122082975D01*
X173682755Y-122091493D01*
X173681492Y-122095928D01*
X173556648Y-122338198D01*
X173549812Y-122343983D01*
X173540889Y-122343239D01*
X173538383Y-122341501D01*
X173534745Y-122338198D01*
X173338528Y-122160026D01*
X173334708Y-122151928D01*
X173336859Y-122144585D01*
X173425406Y-122020102D01*
X173426657Y-122018623D01*
X173524778Y-121920502D01*
X173533050Y-121917076D01*
X173541323Y-121920503D01*
G37*
%TD.AperFunction*%
%TD*%
%TA.AperFunction,Conductor*%
%TO.N,/SW_DIO*%
G36*
X191054601Y-134538312D02*
G01*
X191056077Y-134541069D01*
X191151151Y-134795592D01*
X191150836Y-134804541D01*
X191148232Y-134808185D01*
X190995659Y-134952548D01*
X190987295Y-134955745D01*
X190979345Y-134952322D01*
X190881064Y-134854041D01*
X190878761Y-134850771D01*
X190858616Y-134808185D01*
X190812453Y-134710597D01*
X190812014Y-134701655D01*
X190816176Y-134696115D01*
X191038268Y-134535678D01*
X191046979Y-134533612D01*
X191054601Y-134538312D01*
G37*
%TD.AperFunction*%
%TD*%
%TA.AperFunction,Conductor*%
%TO.N,/SW_DIO*%
G36*
X172965566Y-123785662D02*
G01*
X172969089Y-123793895D01*
X172968712Y-123796982D01*
X172910794Y-124019186D01*
X172905391Y-124026327D01*
X172901544Y-124027750D01*
X172754357Y-124054236D01*
X172745608Y-124052329D01*
X172744012Y-124050994D01*
X172646566Y-123953548D01*
X172643139Y-123945275D01*
X172644397Y-123939999D01*
X172719547Y-123791391D01*
X172726338Y-123785557D01*
X172729847Y-123784974D01*
X172957254Y-123782332D01*
X172965566Y-123785662D01*
G37*
%TD.AperFunction*%
%TD*%
%TA.AperFunction,Conductor*%
%TO.N,/SW_SCK*%
G36*
X173232034Y-124523226D02*
G01*
X173239764Y-124527746D01*
X173241557Y-124531164D01*
X173289785Y-124677905D01*
X173289113Y-124686834D01*
X173286943Y-124689831D01*
X173189359Y-124787415D01*
X173181086Y-124790842D01*
X173177433Y-124790257D01*
X173030692Y-124742029D01*
X173023902Y-124736190D01*
X173022755Y-124732509D01*
X172991546Y-124505198D01*
X172993815Y-124496538D01*
X173001546Y-124492018D01*
X173004723Y-124492018D01*
X173232034Y-124523226D01*
G37*
%TD.AperFunction*%
%TD*%
%TA.AperFunction,Conductor*%
%TO.N,/SW_SCK*%
G36*
X189744026Y-134553571D02*
G01*
X189747622Y-134561772D01*
X189747272Y-134564859D01*
X189680417Y-134831356D01*
X189675080Y-134838547D01*
X189670873Y-134840069D01*
X189452822Y-134874092D01*
X189444119Y-134871982D01*
X189439458Y-134864336D01*
X189439318Y-134862532D01*
X189439318Y-134724370D01*
X189439374Y-134723228D01*
X189454750Y-134566398D01*
X189458967Y-134558502D01*
X189466150Y-134555845D01*
X189735684Y-134550314D01*
X189744026Y-134553571D01*
G37*
%TD.AperFunction*%
%TD*%
M02*
