%TF.GenerationSoftware,KiCad,Pcbnew,9.0.0-rc3-101-g1c85751bf0*%
%TF.CreationDate,2025-12-24T13:29:29+08:00*%
%TF.ProjectId,M4310_Drv,4d343331-305f-4447-9276-2e6b69636164,rev?*%
%TF.SameCoordinates,Original*%
%TF.FileFunction,Copper,L3,Inr*%
%TF.FilePolarity,Positive*%
%FSLAX46Y46*%
G04 Gerber Fmt 4.6, Leading zero omitted, Abs format (unit mm)*
G04 Created by KiCad (PCBNEW 9.0.0-rc3-101-g1c85751bf0) date 2025-12-24 13:29:29*
%MOMM*%
%LPD*%
G01*
G04 APERTURE LIST*
G04 Aperture macros list*
%AMRoundRect*
0 Rectangle with rounded corners*
0 $1 Rounding radius*
0 $2 $3 $4 $5 $6 $7 $8 $9 X,Y pos of 4 corners*
0 Add a 4 corners polygon primitive as box body*
4,1,4,$2,$3,$4,$5,$6,$7,$8,$9,$2,$3,0*
0 Add four circle primitives for the rounded corners*
1,1,$1+$1,$2,$3*
1,1,$1+$1,$4,$5*
1,1,$1+$1,$6,$7*
1,1,$1+$1,$8,$9*
0 Add four rect primitives between the rounded corners*
20,1,$1+$1,$2,$3,$4,$5,0*
20,1,$1+$1,$4,$5,$6,$7,0*
20,1,$1+$1,$6,$7,$8,$9,0*
20,1,$1+$1,$8,$9,$2,$3,0*%
G04 Aperture macros list end*
%TA.AperFunction,ComponentPad*%
%ADD10RoundRect,0.500000X-1.000000X-1.500000X1.000000X-1.500000X1.000000X1.500000X-1.000000X1.500000X0*%
%TD*%
%TA.AperFunction,ComponentPad*%
%ADD11O,2.000000X1.200000*%
%TD*%
%TA.AperFunction,ComponentPad*%
%ADD12O,1.800000X1.200000*%
%TD*%
%TA.AperFunction,ViaPad*%
%ADD13C,0.600000*%
%TD*%
%TA.AperFunction,ViaPad*%
%ADD14C,0.700000*%
%TD*%
%TA.AperFunction,ViaPad*%
%ADD15C,2.500000*%
%TD*%
%TA.AperFunction,ViaPad*%
%ADD16C,0.508000*%
%TD*%
%TA.AperFunction,Conductor*%
%ADD17C,0.304800*%
%TD*%
%TA.AperFunction,Conductor*%
%ADD18C,0.203200*%
%TD*%
%TA.AperFunction,Conductor*%
%ADD19C,0.200000*%
%TD*%
%TA.AperFunction,Conductor*%
%ADD20C,0.152400*%
%TD*%
G04 APERTURE END LIST*
D10*
%TO.N,PGND*%
%TO.C,REF\u002A\u002A*%
X200375001Y-106600000D03*
%TD*%
%TO.N,DCBUS*%
%TO.C,REF\u002A\u002A*%
X200375001Y-101050000D03*
%TD*%
%TO.N,PGND*%
%TO.C,*%
X200400000Y-106600000D03*
%TD*%
D11*
%TO.N,GND*%
%TO.C,USBC1*%
X195737500Y-123695000D03*
D12*
X199917500Y-123695000D03*
X199917500Y-132355000D03*
D11*
X195737500Y-132355000D03*
%TD*%
D13*
%TO.N,GND*%
X162195000Y-111245000D03*
X160925000Y-112515000D03*
X161560000Y-111880000D03*
X161560000Y-112515000D03*
X161560000Y-111245000D03*
X160925000Y-111880000D03*
X162195000Y-111880000D03*
X162195000Y-112515000D03*
X160925000Y-111245000D03*
D14*
%TO.N,DCBUS*%
X158890000Y-128995000D03*
X159525000Y-128995000D03*
X159525000Y-128360000D03*
X158890000Y-129630000D03*
X158890000Y-128360000D03*
X159525000Y-127725000D03*
X158890000Y-127725000D03*
X159525000Y-129630000D03*
D13*
%TO.N,+12V*%
X167500000Y-122240000D03*
D14*
%TO.N,DCBUS*%
X158880000Y-119320000D03*
X159515000Y-118685000D03*
X158880000Y-118685000D03*
X159515000Y-118050000D03*
X158880000Y-118050000D03*
X159515000Y-117415000D03*
X158880000Y-117415000D03*
X159515000Y-119320000D03*
D15*
%TO.N,*%
X159932233Y-95714434D03*
X200467767Y-95714482D03*
X159932232Y-136250013D03*
X200467767Y-136250001D03*
D13*
%TO.N,GND*%
X176327000Y-127193000D03*
X179375000Y-128209000D03*
X175311000Y-126177000D03*
X179375000Y-129225000D03*
X175311000Y-129225000D03*
X177343000Y-128209000D03*
X181425000Y-115550000D03*
X176327000Y-126177000D03*
X158890000Y-131910000D03*
X191065000Y-116025000D03*
X185940000Y-116075000D03*
X179375000Y-126177000D03*
X178359000Y-127193000D03*
X176327000Y-129225000D03*
X186575000Y-116075000D03*
X175311000Y-127193000D03*
X178359000Y-125161000D03*
X185225000Y-111675000D03*
X175311000Y-128209000D03*
X175311000Y-125161000D03*
X170400000Y-135950000D03*
X185940000Y-116710000D03*
X177343000Y-126177000D03*
X176327000Y-128209000D03*
X177343000Y-127193000D03*
X178359000Y-128209000D03*
X176327000Y-125161000D03*
X159525000Y-131275000D03*
X191700000Y-116025000D03*
X186575000Y-116710000D03*
X191065000Y-116660000D03*
X179075000Y-113775000D03*
X179375000Y-125161000D03*
X178359000Y-129225000D03*
X179375000Y-127193000D03*
X165490000Y-131135000D03*
X180600000Y-115550000D03*
X158890000Y-131275000D03*
X165490000Y-130500000D03*
X177343000Y-125161000D03*
X166125000Y-131135000D03*
X178359000Y-126177000D03*
X166125000Y-130500000D03*
X191700000Y-116660000D03*
X159525000Y-131910000D03*
X177343000Y-129225000D03*
X180250000Y-122275000D03*
D14*
%TO.N,DCBUS*%
X176375000Y-102525000D03*
X166275000Y-102525000D03*
X166275000Y-99275000D03*
X165625000Y-100575000D03*
X187825000Y-99275000D03*
X188475000Y-102525000D03*
X189125000Y-99925000D03*
X176375000Y-101225000D03*
X164975000Y-102525000D03*
X190425000Y-101225000D03*
X188475000Y-100575000D03*
X176375000Y-99275000D03*
X188475000Y-101875000D03*
X166275000Y-101875000D03*
X165625000Y-99275000D03*
X189775000Y-100575000D03*
X189125000Y-101225000D03*
X175725000Y-99275000D03*
X177025000Y-99275000D03*
X176375000Y-99925000D03*
X175725000Y-101225000D03*
X189125000Y-100575000D03*
X164975000Y-101875000D03*
X166925000Y-101875000D03*
X177025000Y-101875000D03*
X187825000Y-99925000D03*
X178325000Y-101875000D03*
X166275000Y-99925000D03*
X188475000Y-99925000D03*
X165625000Y-101225000D03*
X187175000Y-99925000D03*
X164975000Y-99275000D03*
X164325000Y-101875000D03*
X165625000Y-101875000D03*
X164325000Y-100575000D03*
X177675000Y-99275000D03*
X166275000Y-100575000D03*
X190425000Y-100575000D03*
X187175000Y-100575000D03*
X176375000Y-100575000D03*
X189775000Y-101225000D03*
X167575000Y-102525000D03*
X189775000Y-99925000D03*
X165625000Y-102525000D03*
X188475000Y-101225000D03*
X177675000Y-102525000D03*
X188475000Y-99275000D03*
X166925000Y-102525000D03*
X178975000Y-102525000D03*
X166925000Y-99275000D03*
X189125000Y-99275000D03*
X187175000Y-101225000D03*
X189125000Y-101875000D03*
X189775000Y-101875000D03*
X167575000Y-100575000D03*
X187825000Y-101875000D03*
X189125000Y-102525000D03*
X178975000Y-101875000D03*
X175725000Y-102525000D03*
X178975000Y-99925000D03*
X187175000Y-102525000D03*
X177025000Y-102525000D03*
X178325000Y-101225000D03*
X189775000Y-99275000D03*
X178325000Y-102525000D03*
X178975000Y-101225000D03*
X177675000Y-100575000D03*
X178975000Y-100575000D03*
X166275000Y-101225000D03*
X164325000Y-102525000D03*
X190425000Y-102525000D03*
X190425000Y-99925000D03*
X190425000Y-101875000D03*
X175725000Y-101875000D03*
X189775000Y-102525000D03*
X178325000Y-99275000D03*
X164325000Y-101225000D03*
X178325000Y-100575000D03*
X178975000Y-99275000D03*
X177025000Y-99925000D03*
X187825000Y-102525000D03*
X167575000Y-101875000D03*
X167575000Y-101225000D03*
X166925000Y-100575000D03*
X164975000Y-99925000D03*
X177025000Y-101225000D03*
X166925000Y-99925000D03*
X164325000Y-99275000D03*
X164975000Y-100575000D03*
X165625000Y-99925000D03*
X177675000Y-101875000D03*
X187825000Y-101225000D03*
X177675000Y-99925000D03*
X167575000Y-99275000D03*
X178325000Y-99925000D03*
X166925000Y-101225000D03*
X177025000Y-100575000D03*
X164325000Y-99925000D03*
X176375000Y-101875000D03*
X187825000Y-100575000D03*
X167575000Y-99925000D03*
X164975000Y-101225000D03*
X177675000Y-101225000D03*
X175725000Y-100575000D03*
X190425000Y-99275000D03*
X187175000Y-99275000D03*
X175725000Y-99925000D03*
X187175000Y-101875000D03*
D13*
%TO.N,+12V*%
X167830000Y-119620000D03*
X162120000Y-115350000D03*
X180050000Y-118040000D03*
%TO.N,+5V*%
X168575000Y-138000000D03*
X167825000Y-133030000D03*
X196100000Y-134900000D03*
X162350000Y-126050000D03*
X186950000Y-133998800D03*
%TO.N,VCC*%
X175800000Y-137975000D03*
X173625000Y-130875000D03*
D16*
X167500000Y-138000000D03*
X171878730Y-136583367D03*
D13*
X171770000Y-125270000D03*
X199875000Y-119900000D03*
X188500000Y-136421600D03*
X181950000Y-124725000D03*
D16*
X173575020Y-123150618D03*
D13*
%TO.N,/SH_A*%
X190045000Y-95510000D03*
X191950000Y-94240000D03*
X193220000Y-94875000D03*
X193855000Y-94240000D03*
X190045000Y-94240000D03*
X193855000Y-95510000D03*
X191315000Y-94240000D03*
X191315000Y-95510000D03*
X188250000Y-110200000D03*
X191315000Y-94875000D03*
X190680000Y-94240000D03*
X192585000Y-95510000D03*
X176470000Y-114650000D03*
X193220000Y-94240000D03*
X190680000Y-94875000D03*
X190045000Y-94875000D03*
X192585000Y-94240000D03*
X191950000Y-94875000D03*
X188775000Y-94875000D03*
X193855000Y-94875000D03*
X189410000Y-94875000D03*
X192585000Y-94875000D03*
X189410000Y-94240000D03*
X189410000Y-95510000D03*
X190680000Y-95510000D03*
X191950000Y-95510000D03*
X193220000Y-95510000D03*
X194490000Y-94875000D03*
%TO.N,/SH_B*%
X172970000Y-115799000D03*
X177400000Y-94875000D03*
X180575000Y-95510000D03*
X176625000Y-110200000D03*
X181845000Y-94875000D03*
X178035000Y-94240000D03*
X179305000Y-94875000D03*
X181210000Y-94875000D03*
X182480000Y-94875000D03*
X181845000Y-94240000D03*
X178670000Y-94875000D03*
X181210000Y-94240000D03*
X178670000Y-95510000D03*
X179305000Y-94240000D03*
X178035000Y-95510000D03*
X179940000Y-95510000D03*
X180575000Y-94875000D03*
X182480000Y-95510000D03*
X178670000Y-94240000D03*
X183115000Y-94875000D03*
X179940000Y-94875000D03*
X182480000Y-94240000D03*
X178035000Y-94875000D03*
X181210000Y-95510000D03*
X181845000Y-95510000D03*
X179940000Y-94240000D03*
X180575000Y-94240000D03*
X179305000Y-95510000D03*
%TO.N,/SH_C*%
X166645000Y-94875000D03*
X171090000Y-95510000D03*
X168550000Y-94240000D03*
X167915000Y-95510000D03*
X169185000Y-94875000D03*
X164975000Y-110175000D03*
X167280000Y-94240000D03*
X167280000Y-94875000D03*
X171090000Y-94875000D03*
X170455000Y-95510000D03*
X166645000Y-94240000D03*
X169185000Y-94240000D03*
X169185000Y-95510000D03*
X166645000Y-95510000D03*
X171725000Y-94875000D03*
X170455000Y-94875000D03*
X166010000Y-94875000D03*
X172770000Y-118780000D03*
X169820000Y-94240000D03*
X170455000Y-94240000D03*
X168550000Y-95510000D03*
X167915000Y-94875000D03*
X167280000Y-95510000D03*
X168550000Y-94875000D03*
X169820000Y-94875000D03*
X169820000Y-95510000D03*
X171090000Y-94240000D03*
X167915000Y-94240000D03*
%TO.N,/CAN-*%
X182575521Y-136300521D03*
X174675000Y-137575000D03*
%TO.N,/CAN+*%
X174700000Y-135675000D03*
X181974479Y-135699479D03*
%TO.N,/GH_A*%
X189800000Y-110200000D03*
X175635000Y-115255000D03*
%TO.N,IA+*%
X192080000Y-108975520D03*
X194340152Y-113900000D03*
%TO.N,/GH_B*%
X178175000Y-110200000D03*
X173675000Y-116400000D03*
%TO.N,IB+*%
X189255000Y-113890000D03*
X180590000Y-108975520D03*
%TO.N,/GH_C*%
X166575000Y-110175000D03*
X173392652Y-118180878D03*
%TO.N,/USB_DN*%
X174150000Y-121750000D03*
X190725000Y-128250000D03*
%TO.N,/SPI1_MOSI*%
X199050000Y-116175000D03*
D16*
X181775000Y-129005200D03*
D13*
%TO.N,/E_CS*%
X199050000Y-114925000D03*
D16*
X181800000Y-128125000D03*
%TO.N,/SPI1_MISO*%
X181825000Y-129825000D03*
D13*
X199000000Y-118725000D03*
D16*
%TO.N,/SPI1_SCK*%
X181825000Y-130575000D03*
D13*
X199050000Y-117450000D03*
%TO.N,/USB_DP*%
X173548960Y-122351040D03*
X190725000Y-127400000D03*
D16*
%TO.N,/SW_DIO*%
X172971870Y-123782861D03*
D13*
X191050000Y-134527400D03*
D16*
%TO.N,/FDCAN_TX*%
X173025000Y-129000000D03*
X165000000Y-134900000D03*
%TO.N,/FDCAN_RX*%
X173027600Y-129777600D03*
X164975000Y-137950000D03*
%TO.N,/IB*%
X180225000Y-132150000D03*
X189775000Y-122000000D03*
%TO.N,/IC*%
X184650000Y-121950000D03*
X179752240Y-131560213D03*
D13*
%TO.N,/SPI3_MOSI*%
X197150000Y-134875000D03*
D16*
X172925000Y-127475000D03*
%TO.N,/IA*%
X194875000Y-121925000D03*
X179750000Y-132850000D03*
D13*
%TO.N,/SW_SCK*%
X189750000Y-134550000D03*
D16*
X172990156Y-124490628D03*
D13*
%TO.N,/IC+*%
X169300000Y-108975520D03*
X184125000Y-113880000D03*
D14*
%TO.N,PGND*%
X188736200Y-106577600D03*
X188025000Y-105175000D03*
X165975000Y-105813800D03*
D13*
X179740000Y-108975520D03*
X160925000Y-107500000D03*
D14*
X177261200Y-107263800D03*
D13*
X183275000Y-113880000D03*
D14*
X189447400Y-105175000D03*
X165975000Y-107236200D03*
X176550000Y-107975000D03*
X176550000Y-105841400D03*
X166686200Y-105122400D03*
X165975000Y-105122400D03*
X165263800Y-107236200D03*
X176550000Y-107263800D03*
X189447400Y-108000000D03*
X188025000Y-105866400D03*
X188025000Y-107288800D03*
X177261200Y-105150000D03*
D13*
X162195000Y-108135000D03*
D14*
X177261200Y-105841400D03*
X177972400Y-105150000D03*
X165263800Y-105122400D03*
X176550000Y-105150000D03*
X188736200Y-105866400D03*
D13*
X162195000Y-108770000D03*
X168450000Y-108975520D03*
D14*
X166686200Y-107947400D03*
X188025000Y-108000000D03*
X165263800Y-105813800D03*
D13*
X160925000Y-108770000D03*
D14*
X165263800Y-106525000D03*
D13*
X160925000Y-108135000D03*
D14*
X177261200Y-106552600D03*
X165975000Y-106525000D03*
D13*
X162195000Y-107500000D03*
D14*
X177261200Y-107975000D03*
D13*
X193490152Y-113900000D03*
D14*
X177972400Y-107975000D03*
D13*
X188405000Y-113890000D03*
D14*
X188736200Y-108000000D03*
X165975000Y-107947400D03*
D13*
X161560000Y-108770000D03*
X161560000Y-108135000D03*
X191230000Y-108975520D03*
D14*
X188025000Y-106577600D03*
X188736200Y-107288800D03*
X188736200Y-105175000D03*
D13*
X161560000Y-107500000D03*
D14*
X176550000Y-106552600D03*
X165263800Y-107947400D03*
%TD*%
D17*
%TO.N,+5V*%
X174400000Y-134950000D02*
X185998800Y-134950000D01*
X169350000Y-137225000D02*
X172125000Y-137225000D01*
X185998800Y-134950000D02*
X186950000Y-133998800D01*
X172125000Y-137225000D02*
X174400000Y-134950000D01*
D18*
X186950000Y-133998800D02*
X195423800Y-133998800D01*
X196100000Y-134675000D02*
X196100000Y-134900000D01*
D17*
X168575000Y-138000000D02*
X169350000Y-137225000D01*
D18*
X195423800Y-133998800D02*
X196100000Y-134675000D01*
D19*
%TO.N,VCC*%
X167500000Y-138000000D02*
X168916633Y-136583367D01*
X168916633Y-136583367D02*
X171878730Y-136583367D01*
%TO.N,IA+*%
X192080000Y-108975520D02*
X191880001Y-109175519D01*
X191880001Y-111439849D02*
X194340152Y-113900000D01*
X191880001Y-109175519D02*
X191880001Y-111439849D01*
%TO.N,IB+*%
X186493198Y-110275000D02*
X189055001Y-112836803D01*
X180390001Y-109175519D02*
X180390001Y-110071803D01*
X180590000Y-108975520D02*
X180390001Y-109175519D01*
X180593198Y-110275000D02*
X186493198Y-110275000D01*
X189055001Y-113690001D02*
X189255000Y-113890000D01*
X180390001Y-110071803D02*
X180593198Y-110275000D01*
X189055001Y-112836803D02*
X189055001Y-113690001D01*
%TO.N,/GH_C*%
X173336774Y-118125000D02*
X173392652Y-118180878D01*
D20*
%TO.N,/FDCAN_TX*%
X172250000Y-129675000D02*
X172250000Y-133450000D01*
X170800000Y-134900000D02*
X165000000Y-134900000D01*
X173025000Y-129000000D02*
X172925000Y-129000000D01*
X172250000Y-133450000D02*
X170800000Y-134900000D01*
X172925000Y-129000000D02*
X172250000Y-129675000D01*
%TO.N,/FDCAN_RX*%
X173027600Y-129777600D02*
X172675000Y-130130200D01*
X172675000Y-130130200D02*
X172675000Y-133883441D01*
X164975000Y-136100000D02*
X165800000Y-135275000D01*
X171283441Y-135275000D02*
X172670600Y-133887841D01*
X165800000Y-135275000D02*
X171283441Y-135275000D01*
X164975000Y-137950000D02*
X164975000Y-136100000D01*
%TO.N,/IB*%
X189775000Y-122825000D02*
X189775000Y-122000000D01*
X188950000Y-123650000D02*
X189775000Y-122825000D01*
X183825000Y-132150000D02*
X185100000Y-130875000D01*
X185100000Y-124325000D02*
X185775000Y-123650000D01*
X185775000Y-123650000D02*
X188950000Y-123650000D01*
X185100000Y-130875000D02*
X185100000Y-124325000D01*
X180225000Y-132150000D02*
X183825000Y-132150000D01*
%TO.N,/IC*%
X183414787Y-131560213D02*
X179752240Y-131560213D01*
X184650000Y-121950000D02*
X184650000Y-130325000D01*
X184650000Y-130325000D02*
X183414787Y-131560213D01*
%TO.N,/SPI3_MOSI*%
X185450000Y-134425000D02*
X186650000Y-133225000D01*
X173875000Y-134425000D02*
X185450000Y-134425000D01*
X187675000Y-133225000D02*
X187975000Y-133525000D01*
X172925000Y-127475000D02*
X173675000Y-128225000D01*
X187975000Y-133525000D02*
X195800000Y-133525000D01*
X173675000Y-129900000D02*
X173047800Y-130527200D01*
X173675000Y-128225000D02*
X173675000Y-129900000D01*
X173047800Y-130527200D02*
X173047800Y-133597800D01*
X186650000Y-133225000D02*
X187675000Y-133225000D01*
X173047800Y-133597800D02*
X173875000Y-134425000D01*
X195800000Y-133525000D02*
X197150000Y-134875000D01*
%TO.N,/IA*%
X185600000Y-124475000D02*
X186025000Y-124050000D01*
X186025000Y-124050000D02*
X192750000Y-124050000D01*
X183975000Y-132850000D02*
X185600000Y-131225000D01*
X192750000Y-124050000D02*
X194875000Y-121925000D01*
X179750000Y-132850000D02*
X183975000Y-132850000D01*
X185600000Y-131225000D02*
X185600000Y-124475000D01*
D19*
%TO.N,/IC+*%
X169100001Y-110821803D02*
X170003198Y-111725000D01*
X183925001Y-113680001D02*
X184125000Y-113880000D01*
X183068198Y-111725000D02*
X183925001Y-112581803D01*
X170003198Y-111725000D02*
X183068198Y-111725000D01*
X183925001Y-112581803D02*
X183925001Y-113680001D01*
X169100001Y-109175519D02*
X169100001Y-110821803D01*
X169300000Y-108975520D02*
X169100001Y-109175519D01*
%TO.N,PGND*%
X183474999Y-113680001D02*
X183275000Y-113880000D01*
X188604999Y-113690001D02*
X188405000Y-113890000D01*
X179939999Y-109175519D02*
X179939999Y-110258197D01*
X186306802Y-110725000D02*
X188604999Y-113023197D01*
X191429999Y-111626244D02*
X193490152Y-113686397D01*
X168649999Y-109175519D02*
X168649999Y-111008197D01*
X183474999Y-112768197D02*
X183474999Y-113680001D01*
X188604999Y-113023197D02*
X188604999Y-113690001D01*
X191429999Y-109175519D02*
X191429999Y-111626244D01*
X179939999Y-110258197D02*
X180406802Y-110725000D01*
X169816802Y-112175000D02*
X182881802Y-112175000D01*
X168649999Y-111008197D02*
X169816802Y-112175000D01*
X168450000Y-108975520D02*
X168649999Y-109175519D01*
X180406802Y-110725000D02*
X186306802Y-110725000D01*
X191230000Y-108975520D02*
X191429999Y-109175519D01*
X193490152Y-113686397D02*
X193490152Y-113900000D01*
X182881802Y-112175000D02*
X183474999Y-112768197D01*
X179740000Y-108975520D02*
X179939999Y-109175519D01*
%TD*%
%TA.AperFunction,Conductor*%
%TO.N,PGND*%
G36*
X201715677Y-104519685D02*
G01*
X201736319Y-104536319D01*
X201863681Y-104663681D01*
X201897166Y-104725004D01*
X201900000Y-104751362D01*
X201900000Y-108098638D01*
X201891355Y-108128078D01*
X201884832Y-108158065D01*
X201881077Y-108163080D01*
X201880315Y-108165677D01*
X201863681Y-108186319D01*
X201736319Y-108313681D01*
X201674996Y-108347166D01*
X201648638Y-108350000D01*
X164190001Y-108350000D01*
X163582500Y-108687500D01*
X163582499Y-108687499D01*
X163142278Y-108932067D01*
X163142275Y-108932069D01*
X162974999Y-109024999D01*
X162979959Y-109223376D01*
X162979959Y-109223389D01*
X162997448Y-109922901D01*
X162979445Y-109990411D01*
X162927802Y-110037472D01*
X162873487Y-110050000D01*
X160651362Y-110050000D01*
X160621921Y-110041355D01*
X160591935Y-110034832D01*
X160586919Y-110031077D01*
X160584323Y-110030315D01*
X160563681Y-110013681D01*
X160436319Y-109886319D01*
X160402834Y-109824996D01*
X160400000Y-109798638D01*
X160400000Y-107452501D01*
X160411628Y-107400075D01*
X160541631Y-107121418D01*
X160574328Y-107078832D01*
X163479998Y-104642539D01*
X163517276Y-104621030D01*
X163750156Y-104536319D01*
X163829465Y-104507470D01*
X163871853Y-104500000D01*
X201648638Y-104500000D01*
X201715677Y-104519685D01*
G37*
%TD.AperFunction*%
%TD*%
%TA.AperFunction,Conductor*%
%TO.N,DCBUS*%
G36*
X201715677Y-98919685D02*
G01*
X201736319Y-98936319D01*
X201863681Y-99063681D01*
X201897166Y-99125004D01*
X201900000Y-99151362D01*
X201900000Y-102898638D01*
X201891355Y-102928078D01*
X201884832Y-102958065D01*
X201881077Y-102963080D01*
X201880315Y-102965677D01*
X201863681Y-102986319D01*
X201736319Y-103113681D01*
X201674996Y-103147166D01*
X201648638Y-103150000D01*
X163901362Y-103150000D01*
X163834323Y-103130315D01*
X163813681Y-103113681D01*
X163686319Y-102986319D01*
X163652834Y-102924996D01*
X163650000Y-102898638D01*
X163650000Y-99151362D01*
X163658644Y-99121921D01*
X163665168Y-99091935D01*
X163668922Y-99086919D01*
X163669685Y-99084323D01*
X163686319Y-99063681D01*
X163813681Y-98936319D01*
X163875004Y-98902834D01*
X163901362Y-98900000D01*
X201648638Y-98900000D01*
X201715677Y-98919685D01*
G37*
%TD.AperFunction*%
%TD*%
%TA.AperFunction,Conductor*%
%TO.N,GND*%
G36*
X164908687Y-110678700D02*
G01*
X165041313Y-110678700D01*
X165055121Y-110675000D01*
X166478554Y-110675000D01*
X166500595Y-110677901D01*
X166500630Y-110677639D01*
X166508686Y-110678699D01*
X166508687Y-110678700D01*
X166508688Y-110678700D01*
X166641312Y-110678700D01*
X166641313Y-110678700D01*
X166641313Y-110678699D01*
X166649370Y-110677639D01*
X166649404Y-110677901D01*
X166671446Y-110675000D01*
X168222299Y-110675000D01*
X168289338Y-110694685D01*
X168335093Y-110747489D01*
X168346299Y-110799000D01*
X168346299Y-111048183D01*
X168366993Y-111125418D01*
X168366995Y-111125421D01*
X168406978Y-111194673D01*
X169630326Y-112418021D01*
X169699578Y-112458004D01*
X169776819Y-112478701D01*
X169776822Y-112478701D01*
X169864382Y-112478701D01*
X169864398Y-112478700D01*
X182704643Y-112478700D01*
X182771682Y-112498385D01*
X182792324Y-112515019D01*
X183134980Y-112857674D01*
X183168465Y-112918997D01*
X183171299Y-112945355D01*
X183171299Y-113291170D01*
X183151614Y-113358209D01*
X183098810Y-113403964D01*
X183082572Y-113409801D01*
X183080576Y-113410628D01*
X182965724Y-113476937D01*
X182965719Y-113476941D01*
X182871941Y-113570719D01*
X182871937Y-113570724D01*
X182805628Y-113685576D01*
X182805627Y-113685577D01*
X182788463Y-113749633D01*
X182771300Y-113813687D01*
X182771300Y-113813689D01*
X182771300Y-113946310D01*
X182771299Y-113946310D01*
X182805627Y-114074422D01*
X182805628Y-114074423D01*
X182871937Y-114189275D01*
X182871939Y-114189278D01*
X182871940Y-114189279D01*
X182965721Y-114283060D01*
X182965722Y-114283061D01*
X182965724Y-114283062D01*
X183023150Y-114316216D01*
X183080579Y-114349373D01*
X183208687Y-114383700D01*
X183208690Y-114383700D01*
X183341310Y-114383700D01*
X183341313Y-114383700D01*
X183469421Y-114349373D01*
X183584279Y-114283060D01*
X183612319Y-114255020D01*
X183673642Y-114221535D01*
X183743334Y-114226519D01*
X183787681Y-114255020D01*
X183815721Y-114283060D01*
X183815722Y-114283061D01*
X183815724Y-114283062D01*
X183873150Y-114316216D01*
X183930579Y-114349373D01*
X184058687Y-114383700D01*
X184058690Y-114383700D01*
X184191310Y-114383700D01*
X184191313Y-114383700D01*
X184319421Y-114349373D01*
X184434279Y-114283060D01*
X184528060Y-114189279D01*
X184594373Y-114074421D01*
X184628700Y-113946313D01*
X184628700Y-113813687D01*
X184594373Y-113685579D01*
X184533835Y-113580724D01*
X184528062Y-113570724D01*
X184528058Y-113570719D01*
X184434280Y-113476941D01*
X184434275Y-113476937D01*
X184319423Y-113410628D01*
X184311912Y-113407517D01*
X184312531Y-113406022D01*
X184260946Y-113374578D01*
X184230418Y-113311731D01*
X184228701Y-113291170D01*
X184228701Y-112541820D01*
X184226365Y-112533103D01*
X184208005Y-112464579D01*
X184181124Y-112418021D01*
X184168022Y-112395327D01*
X184111477Y-112338782D01*
X184111476Y-112338781D01*
X184107146Y-112334451D01*
X184107135Y-112334441D01*
X183254676Y-111481981D01*
X183254675Y-111481980D01*
X183254674Y-111481979D01*
X183185422Y-111441996D01*
X183185419Y-111441994D01*
X183108184Y-111421300D01*
X183108181Y-111421300D01*
X170180356Y-111421300D01*
X170113317Y-111401615D01*
X170092675Y-111384981D01*
X169594376Y-110886681D01*
X169560891Y-110825358D01*
X169565875Y-110755666D01*
X169607747Y-110699733D01*
X169673211Y-110675316D01*
X169682057Y-110675000D01*
X176435253Y-110675000D01*
X176467346Y-110679224D01*
X176558687Y-110703700D01*
X176558689Y-110703700D01*
X176691311Y-110703700D01*
X176691313Y-110703700D01*
X176782653Y-110679224D01*
X176814747Y-110675000D01*
X177985253Y-110675000D01*
X178017346Y-110679224D01*
X178108687Y-110703700D01*
X178108689Y-110703700D01*
X178241311Y-110703700D01*
X178241313Y-110703700D01*
X178332653Y-110679224D01*
X178364747Y-110675000D01*
X179875943Y-110675000D01*
X179942982Y-110694685D01*
X179963624Y-110711319D01*
X180220326Y-110968021D01*
X180289580Y-111008005D01*
X180366815Y-111028699D01*
X180366819Y-111028700D01*
X186129643Y-111028700D01*
X186196682Y-111048385D01*
X186217324Y-111065019D01*
X188264980Y-113112674D01*
X188279683Y-113139601D01*
X188296276Y-113165420D01*
X188297167Y-113171620D01*
X188298465Y-113173997D01*
X188301299Y-113200355D01*
X188301299Y-113301170D01*
X188281614Y-113368209D01*
X188228810Y-113413964D01*
X188212572Y-113419801D01*
X188210576Y-113420628D01*
X188095724Y-113486937D01*
X188095719Y-113486941D01*
X188001941Y-113580719D01*
X188001937Y-113580724D01*
X187935628Y-113695576D01*
X187935627Y-113695577D01*
X187932948Y-113705576D01*
X187901300Y-113823687D01*
X187901300Y-113823689D01*
X187901300Y-113956310D01*
X187901299Y-113956310D01*
X187935627Y-114084422D01*
X187935628Y-114084423D01*
X188001937Y-114199275D01*
X188001939Y-114199278D01*
X188001940Y-114199279D01*
X188095721Y-114293060D01*
X188095722Y-114293061D01*
X188095724Y-114293062D01*
X188113045Y-114303062D01*
X188210579Y-114359373D01*
X188338687Y-114393700D01*
X188338690Y-114393700D01*
X188471310Y-114393700D01*
X188471313Y-114393700D01*
X188599421Y-114359373D01*
X188714279Y-114293060D01*
X188742319Y-114265020D01*
X188803642Y-114231535D01*
X188873334Y-114236519D01*
X188917681Y-114265020D01*
X188945721Y-114293060D01*
X188945722Y-114293061D01*
X188945724Y-114293062D01*
X188963045Y-114303062D01*
X189060579Y-114359373D01*
X189188687Y-114393700D01*
X189188690Y-114393700D01*
X189321310Y-114393700D01*
X189321313Y-114393700D01*
X189449421Y-114359373D01*
X189564279Y-114293060D01*
X189658060Y-114199279D01*
X189724373Y-114084421D01*
X189758700Y-113956313D01*
X189758700Y-113823687D01*
X189724373Y-113695579D01*
X189663835Y-113590724D01*
X189658062Y-113580724D01*
X189658058Y-113580719D01*
X189564280Y-113486941D01*
X189564275Y-113486937D01*
X189449423Y-113420628D01*
X189441912Y-113417517D01*
X189442531Y-113416022D01*
X189390946Y-113384578D01*
X189360418Y-113321731D01*
X189358701Y-113301170D01*
X189358701Y-112886789D01*
X189358702Y-112886776D01*
X189358702Y-112796822D01*
X189358702Y-112796820D01*
X189338005Y-112719579D01*
X189298022Y-112650327D01*
X187534376Y-110886681D01*
X187500891Y-110825358D01*
X187505875Y-110755666D01*
X187547747Y-110699733D01*
X187613211Y-110675316D01*
X187622057Y-110675000D01*
X188060253Y-110675000D01*
X188092346Y-110679224D01*
X188183687Y-110703700D01*
X188183689Y-110703700D01*
X188316311Y-110703700D01*
X188316313Y-110703700D01*
X188407653Y-110679224D01*
X188439747Y-110675000D01*
X189610253Y-110675000D01*
X189642346Y-110679224D01*
X189733687Y-110703700D01*
X189733689Y-110703700D01*
X189866311Y-110703700D01*
X189866313Y-110703700D01*
X189957653Y-110679224D01*
X189989747Y-110675000D01*
X191002299Y-110675000D01*
X191069338Y-110694685D01*
X191115093Y-110747489D01*
X191126299Y-110799000D01*
X191126299Y-111666230D01*
X191146993Y-111743465D01*
X191146995Y-111743468D01*
X191186978Y-111812720D01*
X192093837Y-112719579D01*
X192982636Y-113608377D01*
X193016121Y-113669700D01*
X193014730Y-113728151D01*
X192986452Y-113833687D01*
X192986452Y-113966310D01*
X192986451Y-113966310D01*
X193020779Y-114094422D01*
X193020780Y-114094423D01*
X193087089Y-114209275D01*
X193087091Y-114209278D01*
X193087092Y-114209279D01*
X193180873Y-114303060D01*
X193295731Y-114369373D01*
X193423839Y-114403700D01*
X193423842Y-114403700D01*
X193556462Y-114403700D01*
X193556465Y-114403700D01*
X193684573Y-114369373D01*
X193799431Y-114303060D01*
X193827471Y-114275020D01*
X193888794Y-114241535D01*
X193958486Y-114246519D01*
X194002833Y-114275020D01*
X194030873Y-114303060D01*
X194145731Y-114369373D01*
X194273839Y-114403700D01*
X194273842Y-114403700D01*
X194406462Y-114403700D01*
X194406465Y-114403700D01*
X194534573Y-114369373D01*
X194649431Y-114303060D01*
X194743212Y-114209279D01*
X194809525Y-114094421D01*
X194843852Y-113966313D01*
X194843852Y-113833687D01*
X194809525Y-113705579D01*
X194743212Y-113590721D01*
X194649431Y-113496940D01*
X194649430Y-113496939D01*
X194649427Y-113496937D01*
X194534575Y-113430628D01*
X194534574Y-113430627D01*
X194494170Y-113419801D01*
X194406465Y-113396300D01*
X194406462Y-113396300D01*
X194359566Y-113396300D01*
X194353474Y-113395181D01*
X194349944Y-113395926D01*
X194315506Y-113388208D01*
X194247333Y-113362293D01*
X194203716Y-113334067D01*
X192220020Y-111350371D01*
X192186535Y-111289048D01*
X192183701Y-111262690D01*
X192183701Y-110799000D01*
X192203386Y-110731961D01*
X192256190Y-110686206D01*
X192307701Y-110675000D01*
X202475500Y-110675000D01*
X202542539Y-110694685D01*
X202588294Y-110747489D01*
X202599500Y-110799000D01*
X202599500Y-135978479D01*
X202599274Y-135985968D01*
X202582453Y-136263977D01*
X202580648Y-136278840D01*
X202531120Y-136549099D01*
X202527536Y-136563638D01*
X202445796Y-136825948D01*
X202440487Y-136839948D01*
X202327721Y-137090505D01*
X202320762Y-137103763D01*
X202178619Y-137338899D01*
X202170115Y-137351219D01*
X202147116Y-137380577D01*
X202000673Y-137567500D01*
X201990745Y-137578707D01*
X201796457Y-137773001D01*
X201785251Y-137782929D01*
X201591969Y-137934361D01*
X201568968Y-137952382D01*
X201556645Y-137960887D01*
X201321520Y-138103032D01*
X201308262Y-138109991D01*
X201057711Y-138222762D01*
X201043711Y-138228072D01*
X200781398Y-138309821D01*
X200766860Y-138313405D01*
X200496599Y-138362942D01*
X200481735Y-138364747D01*
X200204836Y-138381507D01*
X200197344Y-138381734D01*
X176361568Y-138381734D01*
X176294529Y-138362049D01*
X176248774Y-138309245D01*
X176238830Y-138240087D01*
X176254179Y-138195736D01*
X176269373Y-138169421D01*
X176303700Y-138041313D01*
X176303700Y-137908687D01*
X176269373Y-137780579D01*
X176206378Y-137671468D01*
X176203062Y-137665724D01*
X176203058Y-137665719D01*
X176109280Y-137571941D01*
X176109275Y-137571937D01*
X175994423Y-137505628D01*
X175994422Y-137505627D01*
X175941863Y-137491544D01*
X175866313Y-137471300D01*
X175733687Y-137471300D01*
X175673703Y-137487373D01*
X175605577Y-137505627D01*
X175605576Y-137505628D01*
X175490724Y-137571937D01*
X175490719Y-137571941D01*
X175391193Y-137671468D01*
X175388928Y-137669203D01*
X175344636Y-137701538D01*
X175274890Y-137705686D01*
X175213973Y-137671468D01*
X175181226Y-137609747D01*
X175178700Y-137584845D01*
X175178700Y-137508689D01*
X175178700Y-137508687D01*
X175144373Y-137380579D01*
X175078060Y-137265721D01*
X174984279Y-137171940D01*
X174984278Y-137171939D01*
X174984275Y-137171937D01*
X174869423Y-137105628D01*
X174869422Y-137105627D01*
X174837394Y-137097045D01*
X174741313Y-137071300D01*
X174608687Y-137071300D01*
X174537014Y-137090505D01*
X174480577Y-137105627D01*
X174480576Y-137105628D01*
X174365724Y-137171937D01*
X174365719Y-137171941D01*
X174271941Y-137265719D01*
X174271937Y-137265724D01*
X174205628Y-137380576D01*
X174205627Y-137380577D01*
X174188463Y-137444633D01*
X174171300Y-137508687D01*
X174171300Y-137508689D01*
X174171300Y-137641310D01*
X174171299Y-137641310D01*
X174205627Y-137769422D01*
X174205628Y-137769423D01*
X174271937Y-137884275D01*
X174271939Y-137884278D01*
X174271940Y-137884279D01*
X174365721Y-137978060D01*
X174480579Y-138044373D01*
X174608687Y-138078700D01*
X174608690Y-138078700D01*
X174741310Y-138078700D01*
X174741313Y-138078700D01*
X174869421Y-138044373D01*
X174984279Y-137978060D01*
X175078060Y-137884279D01*
X175078060Y-137884278D01*
X175083807Y-137878532D01*
X175086077Y-137880802D01*
X175130310Y-137848480D01*
X175200055Y-137844300D01*
X175260988Y-137878491D01*
X175293762Y-137940196D01*
X175296300Y-137965154D01*
X175296300Y-138041310D01*
X175296299Y-138041310D01*
X175301376Y-138060257D01*
X175330627Y-138169421D01*
X175345819Y-138195735D01*
X175362292Y-138263634D01*
X175339440Y-138329661D01*
X175284519Y-138372851D01*
X175238432Y-138381734D01*
X169151002Y-138381734D01*
X169083963Y-138362049D01*
X169038208Y-138309245D01*
X169028264Y-138240087D01*
X169031363Y-138225136D01*
X169035584Y-138209643D01*
X169044373Y-138194421D01*
X169078700Y-138066313D01*
X169078700Y-138051401D01*
X169083061Y-138035396D01*
X169093028Y-138019197D01*
X169098385Y-138000955D01*
X169102619Y-137994783D01*
X169138180Y-137946182D01*
X169138185Y-137946170D01*
X169139837Y-137943494D01*
X169157694Y-137920906D01*
X169461184Y-137617416D01*
X169522506Y-137583934D01*
X169548864Y-137581100D01*
X172171878Y-137581100D01*
X172171881Y-137581100D01*
X172228144Y-137566025D01*
X172262447Y-137556834D01*
X172262447Y-137556833D01*
X172262450Y-137556833D01*
X172343651Y-137509951D01*
X174027222Y-135826379D01*
X174088543Y-135792896D01*
X174158235Y-135797880D01*
X174214168Y-135839752D01*
X174229461Y-135866606D01*
X174230627Y-135869422D01*
X174296937Y-135984275D01*
X174296939Y-135984278D01*
X174296940Y-135984279D01*
X174390721Y-136078060D01*
X174390722Y-136078061D01*
X174390724Y-136078062D01*
X174439283Y-136106097D01*
X174505579Y-136144373D01*
X174633687Y-136178700D01*
X174633690Y-136178700D01*
X174766310Y-136178700D01*
X174766313Y-136178700D01*
X174894421Y-136144373D01*
X175009279Y-136078060D01*
X175103060Y-135984279D01*
X175169373Y-135869421D01*
X175203700Y-135741313D01*
X175203700Y-135608687D01*
X175169373Y-135480579D01*
X175169372Y-135480577D01*
X175168120Y-135477555D01*
X175167823Y-135474798D01*
X175167269Y-135472729D01*
X175167591Y-135472642D01*
X175160650Y-135408086D01*
X175191923Y-135345606D01*
X175252011Y-135309952D01*
X175282680Y-135306100D01*
X181405200Y-135306100D01*
X181472239Y-135325785D01*
X181517994Y-135378589D01*
X181527938Y-135447747D01*
X181512588Y-135492099D01*
X181505106Y-135505057D01*
X181505106Y-135505058D01*
X181470779Y-135633166D01*
X181470779Y-135633168D01*
X181470779Y-135765789D01*
X181470778Y-135765789D01*
X181505106Y-135893901D01*
X181505107Y-135893902D01*
X181571416Y-136008754D01*
X181571418Y-136008757D01*
X181571419Y-136008758D01*
X181665200Y-136102539D01*
X181665201Y-136102540D01*
X181665203Y-136102541D01*
X181709780Y-136128277D01*
X181780058Y-136168852D01*
X181908166Y-136203179D01*
X181908169Y-136203179D01*
X181947821Y-136203179D01*
X182014860Y-136222864D01*
X182060615Y-136275668D01*
X182071821Y-136327179D01*
X182071821Y-136366831D01*
X182071820Y-136366831D01*
X182106148Y-136494943D01*
X182106149Y-136494944D01*
X182172458Y-136609796D01*
X182172460Y-136609799D01*
X182172461Y-136609800D01*
X182266242Y-136703581D01*
X182381100Y-136769894D01*
X182509208Y-136804221D01*
X182509211Y-136804221D01*
X182641831Y-136804221D01*
X182641834Y-136804221D01*
X182769942Y-136769894D01*
X182884800Y-136703581D01*
X182978581Y-136609800D01*
X183044894Y-136494942D01*
X183046778Y-136487910D01*
X187996299Y-136487910D01*
X188030627Y-136616022D01*
X188030628Y-136616023D01*
X188096937Y-136730875D01*
X188096939Y-136730878D01*
X188096940Y-136730879D01*
X188190721Y-136824660D01*
X188190722Y-136824661D01*
X188190724Y-136824662D01*
X188248150Y-136857816D01*
X188305579Y-136890973D01*
X188433687Y-136925300D01*
X188433690Y-136925300D01*
X188566310Y-136925300D01*
X188566313Y-136925300D01*
X188694421Y-136890973D01*
X188809279Y-136824660D01*
X188903060Y-136730879D01*
X188969373Y-136616021D01*
X189003700Y-136487913D01*
X189003700Y-136355287D01*
X188969373Y-136227179D01*
X188916495Y-136135592D01*
X199014067Y-136135592D01*
X199014067Y-136364410D01*
X199022636Y-136418514D01*
X199049862Y-136590411D01*
X199120568Y-136808025D01*
X199120569Y-136808028D01*
X199180323Y-136925300D01*
X199224451Y-137011906D01*
X199358947Y-137197023D01*
X199520745Y-137358821D01*
X199705862Y-137493317D01*
X199777660Y-137529900D01*
X199909739Y-137597198D01*
X199909742Y-137597199D01*
X199971971Y-137617418D01*
X200127358Y-137667906D01*
X200353358Y-137703701D01*
X200353359Y-137703701D01*
X200582175Y-137703701D01*
X200582176Y-137703701D01*
X200808176Y-137667906D01*
X201025794Y-137597198D01*
X201229672Y-137493317D01*
X201414789Y-137358821D01*
X201576587Y-137197023D01*
X201711083Y-137011906D01*
X201814964Y-136808028D01*
X201885672Y-136590410D01*
X201921467Y-136364410D01*
X201921467Y-136135592D01*
X201885672Y-135909592D01*
X201814964Y-135691974D01*
X201814964Y-135691973D01*
X201735402Y-135535825D01*
X201711083Y-135488096D01*
X201576587Y-135302979D01*
X201414789Y-135141181D01*
X201229672Y-135006685D01*
X201206935Y-134995100D01*
X201025794Y-134902803D01*
X201025791Y-134902802D01*
X200808177Y-134832096D01*
X200660378Y-134808687D01*
X200582176Y-134796301D01*
X200353358Y-134796301D01*
X200278024Y-134808232D01*
X200127356Y-134832096D01*
X199909742Y-134902802D01*
X199909739Y-134902803D01*
X199705861Y-135006685D01*
X199619514Y-135069421D01*
X199520745Y-135141181D01*
X199520743Y-135141183D01*
X199520742Y-135141183D01*
X199358949Y-135302976D01*
X199358949Y-135302977D01*
X199358947Y-135302979D01*
X199310709Y-135369373D01*
X199224451Y-135488095D01*
X199120569Y-135691973D01*
X199120568Y-135691976D01*
X199049862Y-135909590D01*
X199023179Y-136078060D01*
X199014067Y-136135592D01*
X188916495Y-136135592D01*
X188903060Y-136112321D01*
X188809279Y-136018540D01*
X188809278Y-136018539D01*
X188809275Y-136018537D01*
X188694423Y-135952228D01*
X188694422Y-135952227D01*
X188662394Y-135943645D01*
X188566313Y-135917900D01*
X188433687Y-135917900D01*
X188356822Y-135938496D01*
X188305577Y-135952227D01*
X188305576Y-135952228D01*
X188190724Y-136018537D01*
X188190719Y-136018541D01*
X188096941Y-136112319D01*
X188096937Y-136112324D01*
X188030628Y-136227176D01*
X188030627Y-136227177D01*
X188028743Y-136234210D01*
X187996300Y-136355287D01*
X187996300Y-136355289D01*
X187996300Y-136487910D01*
X187996299Y-136487910D01*
X183046778Y-136487910D01*
X183079221Y-136366834D01*
X183079221Y-136234208D01*
X183044894Y-136106100D01*
X182994342Y-136018541D01*
X182978583Y-135991245D01*
X182978579Y-135991240D01*
X182884801Y-135897462D01*
X182884796Y-135897458D01*
X182769944Y-135831149D01*
X182769943Y-135831148D01*
X182737915Y-135822566D01*
X182641834Y-135796821D01*
X182602179Y-135796821D01*
X182535140Y-135777136D01*
X182489385Y-135724332D01*
X182481622Y-135701838D01*
X182478179Y-135687533D01*
X182478179Y-135633166D01*
X182443852Y-135505058D01*
X182427399Y-135476561D01*
X182423201Y-135459117D01*
X182424075Y-135441418D01*
X182419899Y-135424199D01*
X182425765Y-135407249D01*
X182426651Y-135389333D01*
X182436955Y-135374917D01*
X182442751Y-135358172D01*
X182456851Y-135347083D01*
X182467282Y-135332492D01*
X182483743Y-135325935D01*
X182497673Y-135314982D01*
X182523975Y-135309912D01*
X182532193Y-135306640D01*
X182536553Y-135307488D01*
X182543758Y-135306100D01*
X186045678Y-135306100D01*
X186045681Y-135306100D01*
X186090965Y-135293966D01*
X186136247Y-135281834D01*
X186136247Y-135281833D01*
X186136250Y-135281833D01*
X186217451Y-135234951D01*
X186871011Y-134581389D01*
X186886373Y-134568345D01*
X186893505Y-134563224D01*
X186896182Y-134561980D01*
X186945235Y-134526088D01*
X186945681Y-134525769D01*
X186978111Y-134514405D01*
X187010499Y-134502727D01*
X187011529Y-134502695D01*
X187011620Y-134502664D01*
X187011728Y-134502689D01*
X187015807Y-134502566D01*
X187016310Y-134502500D01*
X187016313Y-134502500D01*
X187144421Y-134468173D01*
X187259279Y-134401860D01*
X187291499Y-134369638D01*
X187297067Y-134365829D01*
X187299274Y-134362498D01*
X187329219Y-134343832D01*
X187395621Y-134314605D01*
X187445572Y-134304100D01*
X189132821Y-134304100D01*
X189199860Y-134323785D01*
X189245615Y-134376589D01*
X189255559Y-134445747D01*
X189252595Y-134460195D01*
X189246300Y-134483684D01*
X189246300Y-134616310D01*
X189246299Y-134616310D01*
X189280627Y-134744422D01*
X189280628Y-134744423D01*
X189346937Y-134859275D01*
X189346939Y-134859278D01*
X189346940Y-134859279D01*
X189440721Y-134953060D01*
X189440722Y-134953061D01*
X189440724Y-134953062D01*
X189463676Y-134966313D01*
X189555579Y-135019373D01*
X189683687Y-135053700D01*
X189683690Y-135053700D01*
X189816310Y-135053700D01*
X189816313Y-135053700D01*
X189944421Y-135019373D01*
X190059279Y-134953060D01*
X190153060Y-134859279D01*
X190219373Y-134744421D01*
X190253700Y-134616313D01*
X190253700Y-134483687D01*
X190247405Y-134460194D01*
X190247999Y-134435200D01*
X190244441Y-134410453D01*
X190248815Y-134400873D01*
X190249066Y-134390345D01*
X190263080Y-134369638D01*
X190273466Y-134346897D01*
X190282325Y-134341203D01*
X190288228Y-134332482D01*
X190311211Y-134322639D01*
X190332244Y-134309123D01*
X190348097Y-134306843D01*
X190352456Y-134304977D01*
X190367179Y-134304100D01*
X190426765Y-134304100D01*
X190493804Y-134323785D01*
X190539559Y-134376589D01*
X190549503Y-134445747D01*
X190546542Y-134460182D01*
X190546300Y-134461087D01*
X190546300Y-134461089D01*
X190546300Y-134593710D01*
X190546299Y-134593710D01*
X190580627Y-134721822D01*
X190580628Y-134721823D01*
X190646937Y-134836675D01*
X190646939Y-134836678D01*
X190646940Y-134836679D01*
X190740721Y-134930460D01*
X190740722Y-134930461D01*
X190740724Y-134930462D01*
X190779869Y-134953062D01*
X190855579Y-134996773D01*
X190983687Y-135031100D01*
X190983690Y-135031100D01*
X191116310Y-135031100D01*
X191116313Y-135031100D01*
X191244421Y-134996773D01*
X191359279Y-134930460D01*
X191453060Y-134836679D01*
X191519373Y-134721821D01*
X191553700Y-134593713D01*
X191553700Y-134461087D01*
X191553460Y-134460191D01*
X191553478Y-134459408D01*
X191552639Y-134453032D01*
X191553633Y-134452901D01*
X191555123Y-134390344D01*
X191594285Y-134332482D01*
X191658513Y-134304977D01*
X191673235Y-134304100D01*
X195245979Y-134304100D01*
X195313018Y-134323785D01*
X195333660Y-134340419D01*
X195594415Y-134601174D01*
X195627900Y-134662497D01*
X195626509Y-134720947D01*
X195596300Y-134833687D01*
X195596300Y-134833689D01*
X195596300Y-134966310D01*
X195596299Y-134966310D01*
X195630627Y-135094422D01*
X195630628Y-135094423D01*
X195696937Y-135209275D01*
X195696939Y-135209278D01*
X195696940Y-135209279D01*
X195790721Y-135303060D01*
X195790722Y-135303061D01*
X195790724Y-135303062D01*
X195831334Y-135326508D01*
X195905579Y-135369373D01*
X196033687Y-135403700D01*
X196033690Y-135403700D01*
X196166310Y-135403700D01*
X196166313Y-135403700D01*
X196294421Y-135369373D01*
X196409279Y-135303060D01*
X196503060Y-135209279D01*
X196524831Y-135171571D01*
X196575393Y-135123358D01*
X196644000Y-135110133D01*
X196708865Y-135136099D01*
X196739603Y-135171571D01*
X196746940Y-135184279D01*
X196840721Y-135278060D01*
X196840722Y-135278061D01*
X196840724Y-135278062D01*
X196883877Y-135302976D01*
X196955579Y-135344373D01*
X197083687Y-135378700D01*
X197083690Y-135378700D01*
X197216310Y-135378700D01*
X197216313Y-135378700D01*
X197344421Y-135344373D01*
X197459279Y-135278060D01*
X197553060Y-135184279D01*
X197619373Y-135069421D01*
X197653700Y-134941313D01*
X197653700Y-134808687D01*
X197619373Y-134680579D01*
X197569221Y-134593713D01*
X197553062Y-134565724D01*
X197553058Y-134565719D01*
X197459280Y-134471941D01*
X197459275Y-134471937D01*
X197344423Y-134405628D01*
X197344422Y-134405627D01*
X197312394Y-134397045D01*
X197216313Y-134371300D01*
X197216310Y-134371300D01*
X197150542Y-134371300D01*
X197118932Y-134367203D01*
X197041470Y-134346782D01*
X196985399Y-134314560D01*
X195971863Y-133301025D01*
X195971862Y-133301024D01*
X195908037Y-133264175D01*
X195908038Y-133264175D01*
X195884308Y-133257816D01*
X195836850Y-133245100D01*
X195836848Y-133245100D01*
X188142300Y-133245100D01*
X188075261Y-133225415D01*
X188054619Y-133208781D01*
X187846863Y-133001025D01*
X187846862Y-133001024D01*
X187783037Y-132964175D01*
X187783038Y-132964175D01*
X187759308Y-132957816D01*
X187711850Y-132945100D01*
X186686850Y-132945100D01*
X186613150Y-132945100D01*
X186541962Y-132964175D01*
X186541960Y-132964175D01*
X186541960Y-132964176D01*
X186478138Y-133001024D01*
X186478135Y-133001026D01*
X185370381Y-134108781D01*
X185309058Y-134142266D01*
X185282700Y-134145100D01*
X174042301Y-134145100D01*
X173975262Y-134125415D01*
X173954620Y-134108781D01*
X173364019Y-133518180D01*
X173330534Y-133456857D01*
X173327700Y-133430499D01*
X173327700Y-132789743D01*
X179292300Y-132789743D01*
X179292300Y-132910257D01*
X179306617Y-132963687D01*
X179323492Y-133026666D01*
X179323495Y-133026671D01*
X179383744Y-133131027D01*
X179383748Y-133131032D01*
X179383749Y-133131034D01*
X179468966Y-133216251D01*
X179468968Y-133216252D01*
X179468972Y-133216255D01*
X179573328Y-133276504D01*
X179573331Y-133276506D01*
X179573335Y-133276508D01*
X179689743Y-133307700D01*
X179689745Y-133307700D01*
X179810255Y-133307700D01*
X179810257Y-133307700D01*
X179926665Y-133276508D01*
X180031034Y-133216251D01*
X180059473Y-133187810D01*
X180061604Y-133186268D01*
X180062318Y-133185055D01*
X180091232Y-133164819D01*
X180133971Y-133143224D01*
X180189890Y-133129900D01*
X184011848Y-133129900D01*
X184011850Y-133129900D01*
X184083037Y-133110825D01*
X184146862Y-133073976D01*
X185823976Y-131396862D01*
X185860825Y-131333037D01*
X185879900Y-131261850D01*
X185879900Y-131188150D01*
X185879900Y-130855501D01*
X195709600Y-130855501D01*
X195709600Y-130994499D01*
X195729676Y-131069422D01*
X195745576Y-131128763D01*
X195745577Y-131128764D01*
X195764199Y-131161018D01*
X195815075Y-131249138D01*
X195913362Y-131347425D01*
X196033738Y-131416924D01*
X196168001Y-131452900D01*
X196168004Y-131452900D01*
X196306996Y-131452900D01*
X196306999Y-131452900D01*
X196441262Y-131416924D01*
X196561638Y-131347425D01*
X196659925Y-131249138D01*
X196729424Y-131128762D01*
X196765400Y-130994499D01*
X196765400Y-130855501D01*
X196729424Y-130721238D01*
X196659925Y-130600862D01*
X196561638Y-130502575D01*
X196441264Y-130433077D01*
X196441263Y-130433076D01*
X196407696Y-130424082D01*
X196306999Y-130397100D01*
X196168001Y-130397100D01*
X196087443Y-130418685D01*
X196033736Y-130433076D01*
X196033735Y-130433077D01*
X195913360Y-130502576D01*
X195815076Y-130600860D01*
X195745577Y-130721235D01*
X195745576Y-130721236D01*
X195737421Y-130751671D01*
X195709600Y-130855501D01*
X185879900Y-130855501D01*
X185879900Y-127466310D01*
X190221299Y-127466310D01*
X190255627Y-127594422D01*
X190255628Y-127594423D01*
X190321937Y-127709275D01*
X190321941Y-127709280D01*
X190349980Y-127737319D01*
X190383465Y-127798642D01*
X190378481Y-127868334D01*
X190349980Y-127912681D01*
X190321941Y-127940719D01*
X190321937Y-127940724D01*
X190255628Y-128055576D01*
X190255627Y-128055577D01*
X190253171Y-128064743D01*
X190221300Y-128183687D01*
X190221300Y-128183689D01*
X190221300Y-128316310D01*
X190221299Y-128316310D01*
X190255627Y-128444422D01*
X190255628Y-128444423D01*
X190321937Y-128559275D01*
X190321939Y-128559278D01*
X190321940Y-128559279D01*
X190415721Y-128653060D01*
X190415722Y-128653061D01*
X190415724Y-128653062D01*
X190468273Y-128683401D01*
X190530579Y-128719373D01*
X190658687Y-128753700D01*
X190658690Y-128753700D01*
X190791310Y-128753700D01*
X190791313Y-128753700D01*
X190919421Y-128719373D01*
X191034279Y-128653060D01*
X191128060Y-128559279D01*
X191194373Y-128444421D01*
X191228700Y-128316313D01*
X191228700Y-128183687D01*
X191194373Y-128055579D01*
X191140966Y-127963075D01*
X191128062Y-127940724D01*
X191128058Y-127940719D01*
X191100020Y-127912681D01*
X191066535Y-127851358D01*
X191071519Y-127781666D01*
X191100020Y-127737319D01*
X191128060Y-127709279D01*
X191194373Y-127594421D01*
X191228700Y-127466313D01*
X191228700Y-127333687D01*
X191194373Y-127205579D01*
X191138469Y-127108750D01*
X191128062Y-127090724D01*
X191128058Y-127090719D01*
X191034280Y-126996941D01*
X191034275Y-126996937D01*
X190919423Y-126930628D01*
X190919422Y-126930627D01*
X190887394Y-126922045D01*
X190791313Y-126896300D01*
X190658687Y-126896300D01*
X190581822Y-126916896D01*
X190530577Y-126930627D01*
X190530576Y-126930628D01*
X190415724Y-126996937D01*
X190415719Y-126996941D01*
X190321941Y-127090719D01*
X190321937Y-127090724D01*
X190255628Y-127205576D01*
X190255627Y-127205577D01*
X190243824Y-127249627D01*
X190221300Y-127333687D01*
X190221300Y-127333689D01*
X190221300Y-127466310D01*
X190221299Y-127466310D01*
X185879900Y-127466310D01*
X185879900Y-125055501D01*
X195709600Y-125055501D01*
X195709600Y-125194499D01*
X195736582Y-125295196D01*
X195745576Y-125328763D01*
X195745577Y-125328764D01*
X195764199Y-125361018D01*
X195815075Y-125449138D01*
X195913362Y-125547425D01*
X196033738Y-125616924D01*
X196168001Y-125652900D01*
X196168004Y-125652900D01*
X196306996Y-125652900D01*
X196306999Y-125652900D01*
X196441262Y-125616924D01*
X196561638Y-125547425D01*
X196659925Y-125449138D01*
X196729424Y-125328762D01*
X196765400Y-125194499D01*
X196765400Y-125055501D01*
X196729424Y-124921238D01*
X196659925Y-124800862D01*
X196561638Y-124702575D01*
X196473518Y-124651699D01*
X196441264Y-124633077D01*
X196441263Y-124633076D01*
X196407696Y-124624082D01*
X196306999Y-124597100D01*
X196168001Y-124597100D01*
X196087443Y-124618685D01*
X196033736Y-124633076D01*
X196033735Y-124633077D01*
X195913360Y-124702576D01*
X195815076Y-124800860D01*
X195745577Y-124921235D01*
X195745576Y-124921236D01*
X195727588Y-124988369D01*
X195709600Y-125055501D01*
X185879900Y-125055501D01*
X185879900Y-124642300D01*
X185899585Y-124575261D01*
X185916219Y-124554619D01*
X186104619Y-124366219D01*
X186165942Y-124332734D01*
X186192300Y-124329900D01*
X192786848Y-124329900D01*
X192786850Y-124329900D01*
X192858037Y-124310825D01*
X192921862Y-124273976D01*
X194761868Y-122433968D01*
X194773092Y-122427064D01*
X194779213Y-122419528D01*
X194810826Y-122403852D01*
X194856329Y-122388897D01*
X194895041Y-122382700D01*
X194935255Y-122382700D01*
X194935257Y-122382700D01*
X195051665Y-122351508D01*
X195156034Y-122291251D01*
X195241251Y-122206034D01*
X195301508Y-122101665D01*
X195332700Y-121985257D01*
X195332700Y-121864743D01*
X195301508Y-121748335D01*
X195287077Y-121723340D01*
X195241255Y-121643972D01*
X195241249Y-121643964D01*
X195156035Y-121558750D01*
X195156027Y-121558744D01*
X195051671Y-121498495D01*
X195051666Y-121498492D01*
X195012862Y-121488094D01*
X194935257Y-121467300D01*
X194814743Y-121467300D01*
X194756539Y-121482896D01*
X194698333Y-121498492D01*
X194698328Y-121498495D01*
X194593972Y-121558744D01*
X194593964Y-121558750D01*
X194508750Y-121643964D01*
X194508744Y-121643972D01*
X194448495Y-121748328D01*
X194448492Y-121748333D01*
X194441793Y-121773335D01*
X194418921Y-121858696D01*
X194417300Y-121864744D01*
X194417300Y-121904956D01*
X194416883Y-121907554D01*
X194417237Y-121908917D01*
X194411100Y-121943674D01*
X194396147Y-121989169D01*
X194366028Y-122038132D01*
X192670381Y-123733781D01*
X192609058Y-123767266D01*
X192582700Y-123770100D01*
X189525100Y-123770100D01*
X189458061Y-123750415D01*
X189412306Y-123697611D01*
X189402362Y-123628453D01*
X189431387Y-123564897D01*
X189437419Y-123558419D01*
X189681883Y-123313955D01*
X189998976Y-122996862D01*
X190035825Y-122933038D01*
X190054900Y-122861850D01*
X190054900Y-122788150D01*
X190054900Y-122439891D01*
X190057954Y-122427072D01*
X190056953Y-122417418D01*
X190068225Y-122383972D01*
X190089819Y-122341233D01*
X190112811Y-122309472D01*
X190141251Y-122281034D01*
X190201508Y-122176665D01*
X190232700Y-122060257D01*
X190232700Y-121939743D01*
X190201508Y-121823335D01*
X190171078Y-121770628D01*
X190141255Y-121718972D01*
X190141249Y-121718964D01*
X190056035Y-121633750D01*
X190056027Y-121633744D01*
X189951671Y-121573495D01*
X189951666Y-121573492D01*
X189896644Y-121558749D01*
X189835257Y-121542300D01*
X189714743Y-121542300D01*
X189665186Y-121555579D01*
X189598333Y-121573492D01*
X189598328Y-121573495D01*
X189493972Y-121633744D01*
X189493964Y-121633750D01*
X189408750Y-121718964D01*
X189408744Y-121718972D01*
X189348495Y-121823328D01*
X189348492Y-121823333D01*
X189337396Y-121864744D01*
X189317300Y-121939743D01*
X189317300Y-122060257D01*
X189328396Y-122101666D01*
X189348492Y-122176666D01*
X189348495Y-122176671D01*
X189408744Y-122281027D01*
X189408750Y-122281035D01*
X189437184Y-122309469D01*
X189438726Y-122311599D01*
X189439939Y-122312313D01*
X189460176Y-122341227D01*
X189481774Y-122383972D01*
X189495100Y-122439892D01*
X189495100Y-122657700D01*
X189475415Y-122724739D01*
X189458781Y-122745381D01*
X188870381Y-123333781D01*
X188809058Y-123367266D01*
X188782700Y-123370100D01*
X185811850Y-123370100D01*
X185738150Y-123370100D01*
X185666962Y-123389175D01*
X185666960Y-123389175D01*
X185666960Y-123389176D01*
X185603138Y-123426024D01*
X185603135Y-123426026D01*
X185141581Y-123887581D01*
X185080258Y-123921066D01*
X185010566Y-123916082D01*
X184954633Y-123874210D01*
X184930216Y-123808746D01*
X184929900Y-123799900D01*
X184929900Y-122389891D01*
X184932954Y-122377072D01*
X184931953Y-122367418D01*
X184943225Y-122333972D01*
X184964819Y-122291233D01*
X184987811Y-122259472D01*
X185016251Y-122231034D01*
X185076508Y-122126665D01*
X185107700Y-122010257D01*
X185107700Y-121889743D01*
X185076508Y-121773335D01*
X185074945Y-121770627D01*
X185016255Y-121668972D01*
X185016249Y-121668964D01*
X184931035Y-121583750D01*
X184931027Y-121583744D01*
X184826671Y-121523495D01*
X184826666Y-121523492D01*
X184787862Y-121513094D01*
X184710257Y-121492300D01*
X184589743Y-121492300D01*
X184531539Y-121507896D01*
X184473333Y-121523492D01*
X184473328Y-121523495D01*
X184368972Y-121583744D01*
X184368964Y-121583750D01*
X184283750Y-121668964D01*
X184283744Y-121668972D01*
X184223495Y-121773328D01*
X184223492Y-121773333D01*
X184203662Y-121847340D01*
X184192300Y-121889743D01*
X184192300Y-122010257D01*
X184201764Y-122045576D01*
X184223492Y-122126666D01*
X184223495Y-122126671D01*
X184283744Y-122231027D01*
X184283750Y-122231035D01*
X184312184Y-122259469D01*
X184313726Y-122261599D01*
X184314939Y-122262313D01*
X184335176Y-122291227D01*
X184356774Y-122333972D01*
X184370100Y-122389892D01*
X184370100Y-130157700D01*
X184350415Y-130224739D01*
X184333781Y-130245381D01*
X183335168Y-131243994D01*
X183273845Y-131277479D01*
X183247487Y-131280313D01*
X180192134Y-131280313D01*
X180136213Y-131266987D01*
X180093468Y-131245389D01*
X180061708Y-131222396D01*
X180033275Y-131193963D01*
X180033267Y-131193957D01*
X179928911Y-131133708D01*
X179928906Y-131133705D01*
X179890102Y-131123307D01*
X179812497Y-131102513D01*
X179691983Y-131102513D01*
X179633779Y-131118109D01*
X179575573Y-131133705D01*
X179575568Y-131133708D01*
X179471212Y-131193957D01*
X179471204Y-131193963D01*
X179385990Y-131279177D01*
X179385984Y-131279185D01*
X179325735Y-131383541D01*
X179325732Y-131383546D01*
X179307149Y-131452900D01*
X179294540Y-131499956D01*
X179294540Y-131620470D01*
X179315334Y-131698075D01*
X179325732Y-131736879D01*
X179325735Y-131736884D01*
X179385984Y-131841240D01*
X179385988Y-131841245D01*
X179385989Y-131841247D01*
X179471206Y-131926464D01*
X179471208Y-131926465D01*
X179471212Y-131926468D01*
X179575568Y-131986717D01*
X179575575Y-131986721D01*
X179675396Y-132013468D01*
X179694633Y-132025194D01*
X179715871Y-132032697D01*
X179723887Y-132043025D01*
X179735054Y-132049832D01*
X179744898Y-132070096D01*
X179758710Y-132087893D01*
X179762012Y-132105329D01*
X179765583Y-132112679D01*
X179766811Y-132122245D01*
X179767300Y-132127736D01*
X179767300Y-132210257D01*
X179778304Y-132251324D01*
X179779258Y-132262037D01*
X179774444Y-132286178D01*
X179773859Y-132310790D01*
X179767733Y-132319840D01*
X179765597Y-132330558D01*
X179748495Y-132348264D01*
X179734697Y-132368653D01*
X179722962Y-132374702D01*
X179717059Y-132380815D01*
X179706085Y-132383402D01*
X179687842Y-132392808D01*
X179573339Y-132423490D01*
X179573328Y-132423495D01*
X179468972Y-132483744D01*
X179468964Y-132483750D01*
X179383750Y-132568964D01*
X179383744Y-132568972D01*
X179323495Y-132673328D01*
X179323492Y-132673333D01*
X179310795Y-132720719D01*
X179292300Y-132789743D01*
X173327700Y-132789743D01*
X173327700Y-131478406D01*
X173347385Y-131411367D01*
X173400189Y-131365612D01*
X173469347Y-131355668D01*
X173483772Y-131358626D01*
X173558687Y-131378700D01*
X173558691Y-131378700D01*
X173691310Y-131378700D01*
X173691313Y-131378700D01*
X173819421Y-131344373D01*
X173934279Y-131278060D01*
X174028060Y-131184279D01*
X174094373Y-131069421D01*
X174128700Y-130941313D01*
X174128700Y-130808687D01*
X174094373Y-130680579D01*
X174048349Y-130600862D01*
X174028062Y-130565724D01*
X174028058Y-130565719D01*
X173934280Y-130471941D01*
X173934275Y-130471937D01*
X173819423Y-130405628D01*
X173811914Y-130402518D01*
X173813186Y-130399444D01*
X173766738Y-130371142D01*
X173736200Y-130308299D01*
X173744485Y-130238923D01*
X173770794Y-130200043D01*
X173898976Y-130071862D01*
X173935825Y-130008037D01*
X173954900Y-129936850D01*
X173954900Y-129863150D01*
X173954900Y-128944943D01*
X181317300Y-128944943D01*
X181317300Y-129065457D01*
X181317953Y-129067893D01*
X181348492Y-129181866D01*
X181348495Y-129181871D01*
X181408744Y-129286227D01*
X181408750Y-129286235D01*
X181474933Y-129352418D01*
X181508418Y-129413741D01*
X181503434Y-129483433D01*
X181474937Y-129527776D01*
X181458752Y-129543962D01*
X181458744Y-129543972D01*
X181398495Y-129648328D01*
X181398492Y-129648333D01*
X181383873Y-129702893D01*
X181367300Y-129764743D01*
X181367300Y-129885257D01*
X181381124Y-129936848D01*
X181398492Y-130001666D01*
X181398495Y-130001671D01*
X181458744Y-130106027D01*
X181458748Y-130106033D01*
X181465037Y-130112322D01*
X181498519Y-130173647D01*
X181493532Y-130243338D01*
X181465037Y-130287678D01*
X181458748Y-130293966D01*
X181458744Y-130293972D01*
X181398495Y-130398328D01*
X181398492Y-130398333D01*
X181378770Y-130471937D01*
X181367300Y-130514743D01*
X181367300Y-130635257D01*
X181379444Y-130680577D01*
X181398492Y-130751666D01*
X181398495Y-130751671D01*
X181458744Y-130856027D01*
X181458748Y-130856032D01*
X181458749Y-130856034D01*
X181543966Y-130941251D01*
X181543968Y-130941252D01*
X181543972Y-130941255D01*
X181636190Y-130994496D01*
X181648335Y-131001508D01*
X181764743Y-131032700D01*
X181885257Y-131032700D01*
X182001665Y-131001508D01*
X182106034Y-130941251D01*
X182191251Y-130856034D01*
X182251508Y-130751665D01*
X182282700Y-130635257D01*
X182282700Y-130514743D01*
X182251508Y-130398335D01*
X182250795Y-130397100D01*
X182191255Y-130293972D01*
X182191249Y-130293964D01*
X182184966Y-130287681D01*
X182151481Y-130226358D01*
X182156465Y-130156666D01*
X182184966Y-130112319D01*
X182191251Y-130106034D01*
X182251508Y-130001665D01*
X182282700Y-129885257D01*
X182282700Y-129764743D01*
X182251508Y-129648335D01*
X182245628Y-129638150D01*
X182191255Y-129543972D01*
X182191249Y-129543964D01*
X182125066Y-129477781D01*
X182091581Y-129416458D01*
X182096565Y-129346766D01*
X182125066Y-129302419D01*
X182141251Y-129286234D01*
X182201508Y-129181865D01*
X182232700Y-129065457D01*
X182232700Y-128944943D01*
X182201508Y-128828535D01*
X182174224Y-128781277D01*
X182141255Y-128724172D01*
X182141249Y-128724164D01*
X182082366Y-128665281D01*
X182048881Y-128603958D01*
X182053865Y-128534266D01*
X182082366Y-128489919D01*
X182107366Y-128464919D01*
X182166251Y-128406034D01*
X182226508Y-128301665D01*
X182257700Y-128185257D01*
X182257700Y-128064743D01*
X182226508Y-127948335D01*
X182217481Y-127932700D01*
X182166255Y-127843972D01*
X182166249Y-127843964D01*
X182081035Y-127758750D01*
X182081027Y-127758744D01*
X181976671Y-127698495D01*
X181976666Y-127698492D01*
X181937862Y-127688094D01*
X181860257Y-127667300D01*
X181739743Y-127667300D01*
X181681539Y-127682896D01*
X181623333Y-127698492D01*
X181623328Y-127698495D01*
X181518972Y-127758744D01*
X181518964Y-127758750D01*
X181433750Y-127843964D01*
X181433744Y-127843972D01*
X181373495Y-127948328D01*
X181373492Y-127948333D01*
X181352697Y-128025940D01*
X181342300Y-128064743D01*
X181342300Y-128185257D01*
X181363094Y-128262862D01*
X181373492Y-128301666D01*
X181373495Y-128301671D01*
X181433744Y-128406027D01*
X181433750Y-128406035D01*
X181492634Y-128464919D01*
X181526119Y-128526242D01*
X181521135Y-128595934D01*
X181492634Y-128640281D01*
X181408750Y-128724164D01*
X181408744Y-128724172D01*
X181348495Y-128828528D01*
X181348492Y-128828533D01*
X181331838Y-128890688D01*
X181317300Y-128944943D01*
X173954900Y-128944943D01*
X173954900Y-128188150D01*
X173950541Y-128171881D01*
X173935825Y-128116962D01*
X173898976Y-128053138D01*
X173433969Y-127588131D01*
X173427063Y-127576904D01*
X173419528Y-127570785D01*
X173403849Y-127539165D01*
X173388899Y-127493675D01*
X173382700Y-127454960D01*
X173382700Y-127414744D01*
X173374736Y-127385023D01*
X173351508Y-127298335D01*
X173323387Y-127249627D01*
X173291255Y-127193972D01*
X173291249Y-127193964D01*
X173206035Y-127108750D01*
X173206027Y-127108744D01*
X173101671Y-127048495D01*
X173101666Y-127048492D01*
X173062862Y-127038094D01*
X172985257Y-127017300D01*
X172864743Y-127017300D01*
X172806539Y-127032896D01*
X172748333Y-127048492D01*
X172748328Y-127048495D01*
X172643972Y-127108744D01*
X172643964Y-127108750D01*
X172558750Y-127193964D01*
X172558744Y-127193972D01*
X172498495Y-127298328D01*
X172498492Y-127298333D01*
X172477697Y-127375940D01*
X172467300Y-127414743D01*
X172467300Y-127535257D01*
X172481468Y-127588131D01*
X172498492Y-127651666D01*
X172498495Y-127651671D01*
X172558744Y-127756027D01*
X172558748Y-127756032D01*
X172558749Y-127756034D01*
X172643966Y-127841251D01*
X172643968Y-127841252D01*
X172643972Y-127841255D01*
X172690875Y-127868334D01*
X172748335Y-127901508D01*
X172864743Y-127932700D01*
X172904961Y-127932700D01*
X172907558Y-127933115D01*
X172908920Y-127932763D01*
X172943676Y-127938899D01*
X172989165Y-127953849D01*
X173038131Y-127983969D01*
X173358781Y-128304619D01*
X173392266Y-128365942D01*
X173395100Y-128392300D01*
X173395100Y-128470397D01*
X173375415Y-128537436D01*
X173322611Y-128583191D01*
X173253453Y-128593135D01*
X173209103Y-128577786D01*
X173201667Y-128573493D01*
X173201666Y-128573492D01*
X173148607Y-128559275D01*
X173085257Y-128542300D01*
X172964743Y-128542300D01*
X172906539Y-128557896D01*
X172848333Y-128573492D01*
X172848328Y-128573495D01*
X172743972Y-128633744D01*
X172743964Y-128633750D01*
X172658750Y-128718964D01*
X172658744Y-128718972D01*
X172598495Y-128823328D01*
X172598491Y-128823338D01*
X172580443Y-128890688D01*
X172580277Y-128891070D01*
X172580282Y-128891284D01*
X172566227Y-128923658D01*
X172510729Y-129013693D01*
X172492852Y-129036308D01*
X172078138Y-129451024D01*
X172026025Y-129503136D01*
X172026023Y-129503139D01*
X171989175Y-129566962D01*
X171970100Y-129638151D01*
X171970100Y-133282700D01*
X171950415Y-133349739D01*
X171933781Y-133370381D01*
X170720381Y-134583781D01*
X170659058Y-134617266D01*
X170632700Y-134620100D01*
X165439894Y-134620100D01*
X165427073Y-134617044D01*
X165417419Y-134618046D01*
X165383973Y-134606774D01*
X165341228Y-134585176D01*
X165309468Y-134562183D01*
X165281035Y-134533750D01*
X165281027Y-134533744D01*
X165176671Y-134473495D01*
X165176666Y-134473492D01*
X165127037Y-134460194D01*
X165060257Y-134442300D01*
X164939743Y-134442300D01*
X164881539Y-134457896D01*
X164823333Y-134473492D01*
X164823328Y-134473495D01*
X164718972Y-134533744D01*
X164718964Y-134533750D01*
X164633750Y-134618964D01*
X164633744Y-134618972D01*
X164573495Y-134723328D01*
X164573492Y-134723333D01*
X164567841Y-134744423D01*
X164542300Y-134839743D01*
X164542300Y-134960257D01*
X164561283Y-135031100D01*
X164573492Y-135076666D01*
X164573495Y-135076671D01*
X164633744Y-135181027D01*
X164633748Y-135181032D01*
X164633749Y-135181034D01*
X164718966Y-135266251D01*
X164718968Y-135266252D01*
X164718972Y-135266255D01*
X164823328Y-135326504D01*
X164823335Y-135326508D01*
X164939743Y-135357700D01*
X164939745Y-135357700D01*
X165022100Y-135357700D01*
X165089139Y-135377385D01*
X165134894Y-135430189D01*
X165144838Y-135499347D01*
X165115813Y-135562903D01*
X165109781Y-135569381D01*
X164751025Y-135928136D01*
X164751023Y-135928139D01*
X164714175Y-135991962D01*
X164695100Y-136063151D01*
X164695100Y-137510105D01*
X164692044Y-137522925D01*
X164693046Y-137532583D01*
X164681773Y-137566028D01*
X164660174Y-137608773D01*
X164637185Y-137640529D01*
X164608748Y-137668967D01*
X164608744Y-137668973D01*
X164548495Y-137773328D01*
X164548492Y-137773333D01*
X164535096Y-137823328D01*
X164517300Y-137889743D01*
X164517300Y-138010257D01*
X164543072Y-138106437D01*
X164548492Y-138126665D01*
X164588369Y-138195735D01*
X164604840Y-138263635D01*
X164581988Y-138329662D01*
X164527066Y-138372852D01*
X164480981Y-138381734D01*
X160203750Y-138381734D01*
X160196263Y-138381508D01*
X159918260Y-138364691D01*
X159903395Y-138362886D01*
X159633141Y-138313359D01*
X159618602Y-138309775D01*
X159356294Y-138228035D01*
X159342293Y-138222725D01*
X159091748Y-138109962D01*
X159078489Y-138103003D01*
X158843364Y-137960861D01*
X158831041Y-137952355D01*
X158614765Y-137782910D01*
X158603557Y-137772980D01*
X158409278Y-137578696D01*
X158399348Y-137567487D01*
X158229906Y-137351202D01*
X158221400Y-137338879D01*
X158079268Y-137103754D01*
X158072309Y-137090495D01*
X157959549Y-136839940D01*
X157954240Y-136825939D01*
X157953842Y-136824662D01*
X157872503Y-136563617D01*
X157868925Y-136549100D01*
X157819404Y-136278834D01*
X157817600Y-136263983D01*
X157809838Y-136135604D01*
X158478532Y-136135604D01*
X158478532Y-136364421D01*
X158514327Y-136590423D01*
X158585033Y-136808037D01*
X158585034Y-136808040D01*
X158644782Y-136925300D01*
X158688916Y-137011918D01*
X158823412Y-137197035D01*
X158985210Y-137358833D01*
X159170327Y-137493329D01*
X159261243Y-137539653D01*
X159374204Y-137597210D01*
X159374207Y-137597211D01*
X159436399Y-137617418D01*
X159591823Y-137667918D01*
X159817823Y-137703713D01*
X159817824Y-137703713D01*
X160046640Y-137703713D01*
X160046641Y-137703713D01*
X160272641Y-137667918D01*
X160490259Y-137597210D01*
X160694137Y-137493329D01*
X160879254Y-137358833D01*
X161041052Y-137197035D01*
X161175548Y-137011918D01*
X161279429Y-136808040D01*
X161350137Y-136590422D01*
X161385932Y-136364422D01*
X161385932Y-136135604D01*
X161350137Y-135909604D01*
X161279429Y-135691986D01*
X161279429Y-135691985D01*
X161199861Y-135535825D01*
X161175548Y-135488108D01*
X161041052Y-135302991D01*
X160879254Y-135141193D01*
X160694137Y-135006697D01*
X160671377Y-134995100D01*
X160490259Y-134902815D01*
X160490256Y-134902814D01*
X160272642Y-134832108D01*
X160154246Y-134813356D01*
X160046641Y-134796313D01*
X159817823Y-134796313D01*
X159742489Y-134808244D01*
X159591821Y-134832108D01*
X159374207Y-134902814D01*
X159374204Y-134902815D01*
X159170326Y-135006697D01*
X159064710Y-135083432D01*
X158985210Y-135141193D01*
X158985208Y-135141195D01*
X158985207Y-135141195D01*
X158823414Y-135302988D01*
X158823414Y-135302989D01*
X158823412Y-135302991D01*
X158769361Y-135377385D01*
X158688916Y-135488107D01*
X158585034Y-135691985D01*
X158585033Y-135691988D01*
X158514327Y-135909602D01*
X158478532Y-136135604D01*
X157809838Y-136135604D01*
X157809395Y-136128270D01*
X157800726Y-135984878D01*
X157800500Y-135977394D01*
X157800500Y-133096310D01*
X167321299Y-133096310D01*
X167355627Y-133224422D01*
X167355628Y-133224423D01*
X167421937Y-133339275D01*
X167421939Y-133339278D01*
X167421940Y-133339279D01*
X167515721Y-133433060D01*
X167630579Y-133499373D01*
X167758687Y-133533700D01*
X167758690Y-133533700D01*
X167891310Y-133533700D01*
X167891313Y-133533700D01*
X168019421Y-133499373D01*
X168134279Y-133433060D01*
X168228060Y-133339279D01*
X168294373Y-133224421D01*
X168328700Y-133096313D01*
X168328700Y-132963687D01*
X168294373Y-132835579D01*
X168228060Y-132720721D01*
X168134279Y-132626940D01*
X168134278Y-132626939D01*
X168134275Y-132626937D01*
X168019423Y-132560628D01*
X168019422Y-132560627D01*
X167987394Y-132552045D01*
X167891313Y-132526300D01*
X167758687Y-132526300D01*
X167681822Y-132546896D01*
X167630577Y-132560627D01*
X167630576Y-132560628D01*
X167515724Y-132626937D01*
X167515719Y-132626941D01*
X167421941Y-132720719D01*
X167421937Y-132720724D01*
X167355628Y-132835576D01*
X167355627Y-132835577D01*
X167338463Y-132899633D01*
X167321300Y-132963687D01*
X167321300Y-132963689D01*
X167321300Y-133096310D01*
X167321299Y-133096310D01*
X157800500Y-133096310D01*
X157800500Y-127652104D01*
X158336300Y-127652104D01*
X158336300Y-127797896D01*
X158355174Y-127868334D01*
X158374034Y-127938720D01*
X158398156Y-127980501D01*
X158414627Y-128048401D01*
X158398156Y-128104499D01*
X158374034Y-128146279D01*
X158374034Y-128146280D01*
X158336300Y-128287104D01*
X158336300Y-128432896D01*
X158370165Y-128559279D01*
X158374034Y-128573720D01*
X158398156Y-128615501D01*
X158414627Y-128683401D01*
X158398156Y-128739499D01*
X158374034Y-128781279D01*
X158374034Y-128781280D01*
X158336300Y-128922104D01*
X158336300Y-129067896D01*
X158366840Y-129181871D01*
X158374034Y-129208720D01*
X158398156Y-129250501D01*
X158414627Y-129318401D01*
X158398156Y-129374499D01*
X158374034Y-129416279D01*
X158374034Y-129416280D01*
X158336300Y-129557104D01*
X158336300Y-129702896D01*
X158356267Y-129777412D01*
X158374034Y-129843721D01*
X158374035Y-129843722D01*
X158446927Y-129969976D01*
X158446929Y-129969979D01*
X158446930Y-129969980D01*
X158550020Y-130073070D01*
X158550021Y-130073071D01*
X158550023Y-130073072D01*
X158607117Y-130106035D01*
X158676280Y-130145966D01*
X158817104Y-130183700D01*
X158817107Y-130183700D01*
X158962893Y-130183700D01*
X158962896Y-130183700D01*
X159103720Y-130145966D01*
X159145498Y-130121844D01*
X159213398Y-130105371D01*
X159269501Y-130121844D01*
X159311280Y-130145966D01*
X159452104Y-130183700D01*
X159452107Y-130183700D01*
X159597893Y-130183700D01*
X159597896Y-130183700D01*
X159738720Y-130145966D01*
X159864980Y-130073070D01*
X159968070Y-129969980D01*
X160040966Y-129843720D01*
X160078700Y-129702896D01*
X160078700Y-129557104D01*
X160040966Y-129416280D01*
X160016844Y-129374501D01*
X160000371Y-129306602D01*
X160016845Y-129250498D01*
X160040966Y-129208720D01*
X160078700Y-129067896D01*
X160078700Y-128922104D01*
X160040966Y-128781280D01*
X160016844Y-128739501D01*
X160000371Y-128671602D01*
X160016845Y-128615498D01*
X160023508Y-128603958D01*
X160040966Y-128573720D01*
X160078700Y-128432896D01*
X160078700Y-128287104D01*
X160040966Y-128146280D01*
X160016844Y-128104501D01*
X160000371Y-128036602D01*
X160016845Y-127980498D01*
X160032231Y-127953849D01*
X160040966Y-127938720D01*
X160078700Y-127797896D01*
X160078700Y-127652104D01*
X160040966Y-127511280D01*
X159968070Y-127385020D01*
X159864980Y-127281930D01*
X159864979Y-127281929D01*
X159864976Y-127281927D01*
X159738722Y-127209035D01*
X159738721Y-127209034D01*
X159682508Y-127193972D01*
X159597896Y-127171300D01*
X159452104Y-127171300D01*
X159367492Y-127193972D01*
X159311279Y-127209034D01*
X159269499Y-127233156D01*
X159201599Y-127249627D01*
X159145501Y-127233156D01*
X159103720Y-127209034D01*
X159103721Y-127209034D01*
X159047508Y-127193972D01*
X158962896Y-127171300D01*
X158817104Y-127171300D01*
X158732609Y-127193940D01*
X158676278Y-127209034D01*
X158676277Y-127209035D01*
X158550023Y-127281927D01*
X158550018Y-127281931D01*
X158446931Y-127385018D01*
X158446927Y-127385023D01*
X158374035Y-127511277D01*
X158374034Y-127511278D01*
X158356450Y-127576904D01*
X158336300Y-127652104D01*
X157800500Y-127652104D01*
X157800500Y-126116310D01*
X161846299Y-126116310D01*
X161880627Y-126244422D01*
X161880628Y-126244423D01*
X161946937Y-126359275D01*
X161946939Y-126359278D01*
X161946940Y-126359279D01*
X162040721Y-126453060D01*
X162155579Y-126519373D01*
X162283687Y-126553700D01*
X162283690Y-126553700D01*
X162416310Y-126553700D01*
X162416313Y-126553700D01*
X162544421Y-126519373D01*
X162659279Y-126453060D01*
X162753060Y-126359279D01*
X162819373Y-126244421D01*
X162853700Y-126116313D01*
X162853700Y-125983687D01*
X162819373Y-125855579D01*
X162753060Y-125740721D01*
X162659279Y-125646940D01*
X162659278Y-125646939D01*
X162659275Y-125646937D01*
X162544423Y-125580628D01*
X162544422Y-125580627D01*
X162512394Y-125572045D01*
X162416313Y-125546300D01*
X162283687Y-125546300D01*
X162206822Y-125566896D01*
X162155577Y-125580627D01*
X162155576Y-125580628D01*
X162040724Y-125646937D01*
X162040719Y-125646941D01*
X161946941Y-125740719D01*
X161946937Y-125740724D01*
X161880628Y-125855576D01*
X161880627Y-125855577D01*
X161863463Y-125919633D01*
X161846300Y-125983687D01*
X161846300Y-125983689D01*
X161846300Y-126116310D01*
X161846299Y-126116310D01*
X157800500Y-126116310D01*
X157800500Y-125336310D01*
X171266299Y-125336310D01*
X171300627Y-125464422D01*
X171300628Y-125464423D01*
X171366937Y-125579275D01*
X171366939Y-125579278D01*
X171366940Y-125579279D01*
X171460721Y-125673060D01*
X171575579Y-125739373D01*
X171703687Y-125773700D01*
X171703690Y-125773700D01*
X171836310Y-125773700D01*
X171836313Y-125773700D01*
X171964421Y-125739373D01*
X172079279Y-125673060D01*
X172173060Y-125579279D01*
X172239373Y-125464421D01*
X172273700Y-125336313D01*
X172273700Y-125203687D01*
X172239373Y-125075579D01*
X172173060Y-124960721D01*
X172079279Y-124866940D01*
X172079278Y-124866939D01*
X172079275Y-124866937D01*
X171964423Y-124800628D01*
X171964422Y-124800627D01*
X171929650Y-124791310D01*
X171836313Y-124766300D01*
X171703687Y-124766300D01*
X171626822Y-124786896D01*
X171575577Y-124800627D01*
X171575576Y-124800628D01*
X171460724Y-124866937D01*
X171460719Y-124866941D01*
X171366941Y-124960719D01*
X171366937Y-124960724D01*
X171300628Y-125075576D01*
X171300627Y-125075577D01*
X171286564Y-125128062D01*
X171266300Y-125203687D01*
X171266300Y-125203689D01*
X171266300Y-125336310D01*
X171266299Y-125336310D01*
X157800500Y-125336310D01*
X157800500Y-123722604D01*
X172514170Y-123722604D01*
X172514170Y-123843118D01*
X172526084Y-123887581D01*
X172545362Y-123959527D01*
X172545365Y-123959532D01*
X172605614Y-124063888D01*
X172610565Y-124070340D01*
X172608805Y-124071690D01*
X172636746Y-124122860D01*
X172631762Y-124192552D01*
X172622967Y-124211217D01*
X172563651Y-124313956D01*
X172563648Y-124313961D01*
X172558618Y-124332734D01*
X172532456Y-124430371D01*
X172532456Y-124550885D01*
X172550564Y-124618465D01*
X172563648Y-124667294D01*
X172563651Y-124667299D01*
X172623900Y-124771655D01*
X172623904Y-124771660D01*
X172623905Y-124771662D01*
X172709122Y-124856879D01*
X172709124Y-124856880D01*
X172709128Y-124856883D01*
X172813484Y-124917132D01*
X172813491Y-124917136D01*
X172929899Y-124948328D01*
X172929901Y-124948328D01*
X173050411Y-124948328D01*
X173050413Y-124948328D01*
X173166821Y-124917136D01*
X173271190Y-124856879D01*
X173336759Y-124791310D01*
X181446299Y-124791310D01*
X181480627Y-124919422D01*
X181480628Y-124919423D01*
X181546937Y-125034275D01*
X181546939Y-125034278D01*
X181546940Y-125034279D01*
X181640721Y-125128060D01*
X181755579Y-125194373D01*
X181883687Y-125228700D01*
X181883690Y-125228700D01*
X182016310Y-125228700D01*
X182016313Y-125228700D01*
X182144421Y-125194373D01*
X182259279Y-125128060D01*
X182353060Y-125034279D01*
X182419373Y-124919421D01*
X182453700Y-124791313D01*
X182453700Y-124658687D01*
X182419373Y-124530579D01*
X182353060Y-124415721D01*
X182259279Y-124321940D01*
X182259278Y-124321939D01*
X182259275Y-124321937D01*
X182144423Y-124255628D01*
X182144422Y-124255627D01*
X182112394Y-124247045D01*
X182016313Y-124221300D01*
X181883687Y-124221300D01*
X181806822Y-124241896D01*
X181755577Y-124255627D01*
X181755576Y-124255628D01*
X181640724Y-124321937D01*
X181640719Y-124321941D01*
X181546941Y-124415719D01*
X181546937Y-124415724D01*
X181480628Y-124530576D01*
X181480627Y-124530577D01*
X181475186Y-124550883D01*
X181446300Y-124658687D01*
X181446300Y-124658689D01*
X181446300Y-124791310D01*
X181446299Y-124791310D01*
X173336759Y-124791310D01*
X173356407Y-124771662D01*
X173416664Y-124667293D01*
X173447856Y-124550885D01*
X173447856Y-124430371D01*
X173416664Y-124313963D01*
X173382984Y-124255627D01*
X173356411Y-124209600D01*
X173356408Y-124209597D01*
X173356407Y-124209594D01*
X173356404Y-124209591D01*
X173351461Y-124203149D01*
X173353220Y-124201798D01*
X173325279Y-124150628D01*
X173330263Y-124080936D01*
X173339050Y-124062285D01*
X173398378Y-123959526D01*
X173429570Y-123843118D01*
X173429570Y-123732318D01*
X173449255Y-123665279D01*
X173502059Y-123619524D01*
X173553570Y-123608318D01*
X173635275Y-123608318D01*
X173635277Y-123608318D01*
X173751685Y-123577126D01*
X173856054Y-123516869D01*
X173941271Y-123431652D01*
X174001528Y-123327283D01*
X174032720Y-123210875D01*
X174032720Y-123090361D01*
X174001528Y-122973953D01*
X174001524Y-122973946D01*
X173941275Y-122869590D01*
X173941269Y-122869582D01*
X173929694Y-122858007D01*
X173896209Y-122796684D01*
X173901193Y-122726992D01*
X173929694Y-122682645D01*
X173952020Y-122660319D01*
X174018333Y-122545461D01*
X174052660Y-122417353D01*
X174052660Y-122377700D01*
X174072345Y-122310661D01*
X174125149Y-122264906D01*
X174176660Y-122253700D01*
X174216310Y-122253700D01*
X174216313Y-122253700D01*
X174344421Y-122219373D01*
X174459279Y-122153060D01*
X174553060Y-122059279D01*
X174619373Y-121944421D01*
X174653700Y-121816313D01*
X174653700Y-121683687D01*
X174619373Y-121555579D01*
X174553060Y-121440721D01*
X174459279Y-121346940D01*
X174459278Y-121346939D01*
X174459275Y-121346937D01*
X174344423Y-121280628D01*
X174344422Y-121280627D01*
X174312394Y-121272045D01*
X174216313Y-121246300D01*
X174083687Y-121246300D01*
X174006822Y-121266896D01*
X173955577Y-121280627D01*
X173955576Y-121280628D01*
X173840724Y-121346937D01*
X173840719Y-121346941D01*
X173746941Y-121440719D01*
X173746937Y-121440724D01*
X173680628Y-121555576D01*
X173680627Y-121555577D01*
X173673078Y-121583750D01*
X173646300Y-121683687D01*
X173646300Y-121683689D01*
X173646300Y-121723340D01*
X173626615Y-121790379D01*
X173573811Y-121836134D01*
X173522300Y-121847340D01*
X173482647Y-121847340D01*
X173405782Y-121867936D01*
X173354537Y-121881667D01*
X173354536Y-121881668D01*
X173239684Y-121947977D01*
X173239679Y-121947981D01*
X173145901Y-122041759D01*
X173145897Y-122041764D01*
X173079588Y-122156616D01*
X173079587Y-122156617D01*
X173074215Y-122176666D01*
X173045260Y-122284727D01*
X173045260Y-122284729D01*
X173045260Y-122417350D01*
X173045259Y-122417350D01*
X173079587Y-122545462D01*
X173079588Y-122545463D01*
X173145897Y-122660315D01*
X173145901Y-122660320D01*
X173195435Y-122709854D01*
X173228920Y-122771177D01*
X173223936Y-122840869D01*
X173212152Y-122862152D01*
X173212832Y-122862545D01*
X173148515Y-122973946D01*
X173148512Y-122973951D01*
X173117320Y-123090362D01*
X173117320Y-123201161D01*
X173097635Y-123268200D01*
X173044831Y-123313955D01*
X172993320Y-123325161D01*
X172911613Y-123325161D01*
X172853409Y-123340757D01*
X172795203Y-123356353D01*
X172795198Y-123356356D01*
X172690842Y-123416605D01*
X172690834Y-123416611D01*
X172605620Y-123501825D01*
X172605614Y-123501833D01*
X172545365Y-123606189D01*
X172545362Y-123606194D01*
X172539398Y-123628453D01*
X172514170Y-123722604D01*
X157800500Y-123722604D01*
X157800500Y-122306310D01*
X166996299Y-122306310D01*
X167030627Y-122434422D01*
X167030628Y-122434423D01*
X167096937Y-122549275D01*
X167096939Y-122549278D01*
X167096940Y-122549279D01*
X167190721Y-122643060D01*
X167190722Y-122643061D01*
X167190724Y-122643062D01*
X167220616Y-122660320D01*
X167305579Y-122709373D01*
X167433687Y-122743700D01*
X167433690Y-122743700D01*
X167566310Y-122743700D01*
X167566313Y-122743700D01*
X167694421Y-122709373D01*
X167809279Y-122643060D01*
X167903060Y-122549279D01*
X167969373Y-122434421D01*
X168003700Y-122306313D01*
X168003700Y-122173687D01*
X167969373Y-122045579D01*
X167913025Y-121947981D01*
X167903062Y-121930724D01*
X167903058Y-121930719D01*
X167809280Y-121836941D01*
X167809275Y-121836937D01*
X167694423Y-121770628D01*
X167694422Y-121770627D01*
X167662394Y-121762045D01*
X167566313Y-121736300D01*
X167433687Y-121736300D01*
X167356822Y-121756896D01*
X167305577Y-121770627D01*
X167305576Y-121770628D01*
X167190724Y-121836937D01*
X167190719Y-121836941D01*
X167096941Y-121930719D01*
X167096937Y-121930724D01*
X167030628Y-122045576D01*
X167030627Y-122045577D01*
X167015598Y-122101666D01*
X166996300Y-122173687D01*
X166996300Y-122173689D01*
X166996300Y-122306310D01*
X166996299Y-122306310D01*
X157800500Y-122306310D01*
X157800500Y-117342104D01*
X158326300Y-117342104D01*
X158326300Y-117487896D01*
X158339270Y-117536300D01*
X158364034Y-117628720D01*
X158388156Y-117670501D01*
X158404627Y-117738401D01*
X158388156Y-117794499D01*
X158364034Y-117836279D01*
X158364034Y-117836280D01*
X158326300Y-117977104D01*
X158326300Y-118122896D01*
X158361866Y-118255628D01*
X158364034Y-118263720D01*
X158388156Y-118305501D01*
X158404627Y-118373401D01*
X158388156Y-118429499D01*
X158364034Y-118471279D01*
X158353827Y-118509371D01*
X158326300Y-118612104D01*
X158326300Y-118757896D01*
X158364034Y-118898720D01*
X158388156Y-118940501D01*
X158404627Y-119008401D01*
X158388156Y-119064499D01*
X158364034Y-119106279D01*
X158358198Y-119128060D01*
X158326300Y-119247104D01*
X158326300Y-119392896D01*
X158354178Y-119496937D01*
X158364034Y-119533721D01*
X158364035Y-119533722D01*
X158436927Y-119659976D01*
X158436929Y-119659979D01*
X158436930Y-119659980D01*
X158540020Y-119763070D01*
X158540021Y-119763071D01*
X158540023Y-119763072D01*
X158592666Y-119793465D01*
X158666280Y-119835966D01*
X158807104Y-119873700D01*
X158807107Y-119873700D01*
X158952893Y-119873700D01*
X158952896Y-119873700D01*
X159093720Y-119835966D01*
X159135498Y-119811844D01*
X159203398Y-119795371D01*
X159259501Y-119811844D01*
X159301280Y-119835966D01*
X159442104Y-119873700D01*
X159442107Y-119873700D01*
X159587893Y-119873700D01*
X159587896Y-119873700D01*
X159728720Y-119835966D01*
X159854980Y-119763070D01*
X159931740Y-119686310D01*
X167326299Y-119686310D01*
X167360627Y-119814422D01*
X167360628Y-119814423D01*
X167426937Y-119929275D01*
X167426939Y-119929278D01*
X167426940Y-119929279D01*
X167520721Y-120023060D01*
X167635579Y-120089373D01*
X167763687Y-120123700D01*
X167763690Y-120123700D01*
X167896310Y-120123700D01*
X167896313Y-120123700D01*
X168024421Y-120089373D01*
X168139279Y-120023060D01*
X168196029Y-119966310D01*
X199371299Y-119966310D01*
X199405627Y-120094422D01*
X199405628Y-120094423D01*
X199471937Y-120209275D01*
X199471939Y-120209278D01*
X199471940Y-120209279D01*
X199565721Y-120303060D01*
X199680579Y-120369373D01*
X199808687Y-120403700D01*
X199808690Y-120403700D01*
X199941310Y-120403700D01*
X199941313Y-120403700D01*
X200069421Y-120369373D01*
X200184279Y-120303060D01*
X200278060Y-120209279D01*
X200344373Y-120094421D01*
X200378700Y-119966313D01*
X200378700Y-119833687D01*
X200344373Y-119705579D01*
X200278060Y-119590721D01*
X200184279Y-119496940D01*
X200184278Y-119496939D01*
X200184275Y-119496937D01*
X200069423Y-119430628D01*
X200069422Y-119430627D01*
X200037394Y-119422045D01*
X199941313Y-119396300D01*
X199808687Y-119396300D01*
X199731822Y-119416896D01*
X199680577Y-119430627D01*
X199680576Y-119430628D01*
X199565724Y-119496937D01*
X199565719Y-119496941D01*
X199471941Y-119590719D01*
X199471937Y-119590724D01*
X199405628Y-119705576D01*
X199405627Y-119705577D01*
X199388463Y-119769633D01*
X199371300Y-119833687D01*
X199371300Y-119833689D01*
X199371300Y-119966310D01*
X199371299Y-119966310D01*
X168196029Y-119966310D01*
X168233060Y-119929279D01*
X168299373Y-119814421D01*
X168333700Y-119686313D01*
X168333700Y-119553687D01*
X168299373Y-119425579D01*
X168233060Y-119310721D01*
X168139279Y-119216940D01*
X168139278Y-119216939D01*
X168139275Y-119216937D01*
X168024423Y-119150628D01*
X168024422Y-119150627D01*
X167992394Y-119142045D01*
X167896313Y-119116300D01*
X167763687Y-119116300D01*
X167686822Y-119136896D01*
X167635577Y-119150627D01*
X167635576Y-119150628D01*
X167520724Y-119216937D01*
X167520719Y-119216941D01*
X167426941Y-119310719D01*
X167426937Y-119310724D01*
X167360628Y-119425576D01*
X167360627Y-119425577D01*
X167359274Y-119430627D01*
X167326300Y-119553687D01*
X167326300Y-119553689D01*
X167326300Y-119686310D01*
X167326299Y-119686310D01*
X159931740Y-119686310D01*
X159958070Y-119659980D01*
X160030966Y-119533720D01*
X160068700Y-119392896D01*
X160068700Y-119247104D01*
X160030966Y-119106280D01*
X160006844Y-119064501D01*
X159990371Y-118996602D01*
X160006845Y-118940498D01*
X160030966Y-118898720D01*
X160045009Y-118846310D01*
X172266299Y-118846310D01*
X172300627Y-118974422D01*
X172300628Y-118974423D01*
X172366937Y-119089275D01*
X172366939Y-119089278D01*
X172366940Y-119089279D01*
X172460721Y-119183060D01*
X172460722Y-119183061D01*
X172460724Y-119183062D01*
X172518150Y-119216216D01*
X172575579Y-119249373D01*
X172703687Y-119283700D01*
X172703690Y-119283700D01*
X172836310Y-119283700D01*
X172836313Y-119283700D01*
X172964421Y-119249373D01*
X173079279Y-119183060D01*
X173173060Y-119089279D01*
X173239373Y-118974421D01*
X173273700Y-118846313D01*
X173273700Y-118808578D01*
X173278770Y-118791310D01*
X198496299Y-118791310D01*
X198530627Y-118919422D01*
X198530628Y-118919423D01*
X198596937Y-119034275D01*
X198596939Y-119034278D01*
X198596940Y-119034279D01*
X198690721Y-119128060D01*
X198805579Y-119194373D01*
X198933687Y-119228700D01*
X198933690Y-119228700D01*
X199066310Y-119228700D01*
X199066313Y-119228700D01*
X199194421Y-119194373D01*
X199309279Y-119128060D01*
X199403060Y-119034279D01*
X199469373Y-118919421D01*
X199503700Y-118791313D01*
X199503700Y-118658687D01*
X199469373Y-118530579D01*
X199418843Y-118443058D01*
X199403062Y-118415724D01*
X199403058Y-118415719D01*
X199309280Y-118321941D01*
X199309275Y-118321937D01*
X199194423Y-118255628D01*
X199194422Y-118255627D01*
X199162394Y-118247045D01*
X199066313Y-118221300D01*
X198933687Y-118221300D01*
X198856822Y-118241896D01*
X198805577Y-118255627D01*
X198805576Y-118255628D01*
X198690724Y-118321937D01*
X198690719Y-118321941D01*
X198596941Y-118415719D01*
X198596937Y-118415724D01*
X198530628Y-118530576D01*
X198530627Y-118530577D01*
X198513463Y-118594633D01*
X198496300Y-118658687D01*
X198496300Y-118658689D01*
X198496300Y-118791310D01*
X198496299Y-118791310D01*
X173278770Y-118791310D01*
X173293385Y-118741539D01*
X173346189Y-118695784D01*
X173397700Y-118684578D01*
X173458962Y-118684578D01*
X173458965Y-118684578D01*
X173587073Y-118650251D01*
X173701931Y-118583938D01*
X173795712Y-118490157D01*
X173862025Y-118375299D01*
X173896352Y-118247191D01*
X173896352Y-118114565D01*
X173894140Y-118106310D01*
X179546299Y-118106310D01*
X179580627Y-118234422D01*
X179580628Y-118234423D01*
X179646937Y-118349275D01*
X179646939Y-118349278D01*
X179646940Y-118349279D01*
X179740721Y-118443060D01*
X179855579Y-118509373D01*
X179983687Y-118543700D01*
X179983690Y-118543700D01*
X180116310Y-118543700D01*
X180116313Y-118543700D01*
X180244421Y-118509373D01*
X180359279Y-118443060D01*
X180453060Y-118349279D01*
X180519373Y-118234421D01*
X180553700Y-118106313D01*
X180553700Y-117973687D01*
X180519373Y-117845579D01*
X180480250Y-117777815D01*
X180453062Y-117730724D01*
X180453058Y-117730719D01*
X180359280Y-117636941D01*
X180359275Y-117636937D01*
X180244423Y-117570628D01*
X180244422Y-117570627D01*
X180212394Y-117562045D01*
X180116313Y-117536300D01*
X179983687Y-117536300D01*
X179906822Y-117556896D01*
X179855577Y-117570627D01*
X179855576Y-117570628D01*
X179740724Y-117636937D01*
X179740719Y-117636941D01*
X179646941Y-117730719D01*
X179646937Y-117730724D01*
X179580628Y-117845576D01*
X179580627Y-117845577D01*
X179573655Y-117871597D01*
X179546300Y-117973687D01*
X179546300Y-117973689D01*
X179546300Y-118106310D01*
X179546299Y-118106310D01*
X173894140Y-118106310D01*
X173862025Y-117986457D01*
X173795712Y-117871599D01*
X173701931Y-117777818D01*
X173701930Y-117777817D01*
X173701927Y-117777815D01*
X173587075Y-117711506D01*
X173587074Y-117711505D01*
X173555046Y-117702923D01*
X173458965Y-117677178D01*
X173326339Y-117677178D01*
X173249474Y-117697774D01*
X173198229Y-117711505D01*
X173198228Y-117711506D01*
X173083376Y-117777815D01*
X173083371Y-117777819D01*
X172989593Y-117871597D01*
X172989589Y-117871602D01*
X172923280Y-117986454D01*
X172923279Y-117986455D01*
X172920279Y-117997653D01*
X172888952Y-118114565D01*
X172888952Y-118114567D01*
X172888952Y-118152300D01*
X172869267Y-118219339D01*
X172816463Y-118265094D01*
X172764952Y-118276300D01*
X172703687Y-118276300D01*
X172638575Y-118293747D01*
X172575577Y-118310627D01*
X172575576Y-118310628D01*
X172460724Y-118376937D01*
X172460719Y-118376941D01*
X172366941Y-118470719D01*
X172366937Y-118470724D01*
X172300628Y-118585576D01*
X172300627Y-118585577D01*
X172293519Y-118612106D01*
X172266300Y-118713687D01*
X172266300Y-118713689D01*
X172266300Y-118846310D01*
X172266299Y-118846310D01*
X160045009Y-118846310D01*
X160068700Y-118757896D01*
X160068700Y-118612104D01*
X160030966Y-118471280D01*
X160006844Y-118429501D01*
X159990371Y-118361602D01*
X160006845Y-118305498D01*
X160030966Y-118263720D01*
X160068700Y-118122896D01*
X160068700Y-117977104D01*
X160030966Y-117836280D01*
X160006844Y-117794501D01*
X159990371Y-117726602D01*
X160006845Y-117670498D01*
X160030966Y-117628720D01*
X160061086Y-117516310D01*
X198546299Y-117516310D01*
X198580627Y-117644422D01*
X198580628Y-117644423D01*
X198646937Y-117759275D01*
X198646939Y-117759278D01*
X198646940Y-117759279D01*
X198740721Y-117853060D01*
X198740722Y-117853061D01*
X198740724Y-117853062D01*
X198772837Y-117871602D01*
X198855579Y-117919373D01*
X198983687Y-117953700D01*
X198983690Y-117953700D01*
X199116310Y-117953700D01*
X199116313Y-117953700D01*
X199244421Y-117919373D01*
X199359279Y-117853060D01*
X199453060Y-117759279D01*
X199519373Y-117644421D01*
X199553700Y-117516313D01*
X199553700Y-117383687D01*
X199519373Y-117255579D01*
X199453060Y-117140721D01*
X199359279Y-117046940D01*
X199359278Y-117046939D01*
X199359275Y-117046937D01*
X199244423Y-116980628D01*
X199244422Y-116980627D01*
X199211953Y-116971927D01*
X199116313Y-116946300D01*
X198983687Y-116946300D01*
X198906822Y-116966896D01*
X198855577Y-116980627D01*
X198855576Y-116980628D01*
X198740724Y-117046937D01*
X198740719Y-117046941D01*
X198646941Y-117140719D01*
X198646937Y-117140724D01*
X198580628Y-117255576D01*
X198580627Y-117255577D01*
X198563463Y-117319633D01*
X198546300Y-117383687D01*
X198546300Y-117383689D01*
X198546300Y-117516310D01*
X198546299Y-117516310D01*
X160061086Y-117516310D01*
X160068700Y-117487896D01*
X160068700Y-117342104D01*
X160030966Y-117201280D01*
X159958070Y-117075020D01*
X159854980Y-116971930D01*
X159854979Y-116971929D01*
X159854976Y-116971927D01*
X159728722Y-116899035D01*
X159728721Y-116899034D01*
X159693514Y-116889600D01*
X159587896Y-116861300D01*
X159442104Y-116861300D01*
X159336486Y-116889600D01*
X159301279Y-116899034D01*
X159259499Y-116923156D01*
X159191599Y-116939627D01*
X159135501Y-116923156D01*
X159093720Y-116899034D01*
X159093721Y-116899034D01*
X159058514Y-116889600D01*
X158952896Y-116861300D01*
X158807104Y-116861300D01*
X158722609Y-116883940D01*
X158666278Y-116899034D01*
X158666277Y-116899035D01*
X158540023Y-116971927D01*
X158540018Y-116971931D01*
X158436931Y-117075018D01*
X158436927Y-117075023D01*
X158364035Y-117201277D01*
X158364034Y-117201278D01*
X158345167Y-117271692D01*
X158326300Y-117342104D01*
X157800500Y-117342104D01*
X157800500Y-115865310D01*
X172466299Y-115865310D01*
X172500627Y-115993422D01*
X172500628Y-115993423D01*
X172566937Y-116108275D01*
X172566939Y-116108278D01*
X172566940Y-116108279D01*
X172660721Y-116202060D01*
X172660722Y-116202061D01*
X172660724Y-116202062D01*
X172666816Y-116205579D01*
X172775579Y-116268373D01*
X172903687Y-116302700D01*
X172903690Y-116302700D01*
X173044441Y-116302700D01*
X173044441Y-116305466D01*
X173100127Y-116314139D01*
X173152392Y-116360508D01*
X173171300Y-116426323D01*
X173171300Y-116466310D01*
X173171299Y-116466310D01*
X173205627Y-116594422D01*
X173205628Y-116594423D01*
X173271937Y-116709275D01*
X173271939Y-116709278D01*
X173271940Y-116709279D01*
X173365721Y-116803060D01*
X173480579Y-116869373D01*
X173608687Y-116903700D01*
X173608690Y-116903700D01*
X173741310Y-116903700D01*
X173741313Y-116903700D01*
X173869421Y-116869373D01*
X173984279Y-116803060D01*
X174078060Y-116709279D01*
X174144373Y-116594421D01*
X174178700Y-116466313D01*
X174178700Y-116333687D01*
X174153947Y-116241310D01*
X198546299Y-116241310D01*
X198580627Y-116369422D01*
X198580628Y-116369423D01*
X198646937Y-116484275D01*
X198646939Y-116484278D01*
X198646940Y-116484279D01*
X198740721Y-116578060D01*
X198740722Y-116578061D01*
X198740724Y-116578062D01*
X198798150Y-116611216D01*
X198855579Y-116644373D01*
X198983687Y-116678700D01*
X198983690Y-116678700D01*
X199116310Y-116678700D01*
X199116313Y-116678700D01*
X199244421Y-116644373D01*
X199359279Y-116578060D01*
X199453060Y-116484279D01*
X199519373Y-116369421D01*
X199553700Y-116241313D01*
X199553700Y-116108687D01*
X199519373Y-115980579D01*
X199469121Y-115893539D01*
X199453062Y-115865724D01*
X199453058Y-115865719D01*
X199359280Y-115771941D01*
X199359275Y-115771937D01*
X199244423Y-115705628D01*
X199244422Y-115705627D01*
X199209411Y-115696245D01*
X199116313Y-115671300D01*
X198983687Y-115671300D01*
X198925598Y-115686864D01*
X198855577Y-115705627D01*
X198855576Y-115705628D01*
X198740724Y-115771937D01*
X198740719Y-115771941D01*
X198646941Y-115865719D01*
X198646937Y-115865724D01*
X198580628Y-115980576D01*
X198580627Y-115980577D01*
X198563463Y-116044633D01*
X198546300Y-116108687D01*
X198546300Y-116108689D01*
X198546300Y-116241310D01*
X198546299Y-116241310D01*
X174153947Y-116241310D01*
X174144373Y-116205579D01*
X174078060Y-116090721D01*
X173984279Y-115996940D01*
X173984278Y-115996939D01*
X173984275Y-115996937D01*
X173869423Y-115930628D01*
X173869422Y-115930627D01*
X173837394Y-115922045D01*
X173741313Y-115896300D01*
X173608687Y-115896300D01*
X173600559Y-115896300D01*
X173600559Y-115893539D01*
X173544835Y-115884842D01*
X173492585Y-115838455D01*
X173473700Y-115772676D01*
X173473700Y-115732689D01*
X173473700Y-115732687D01*
X173439373Y-115604579D01*
X173404642Y-115544423D01*
X173373062Y-115489724D01*
X173373058Y-115489719D01*
X173279280Y-115395941D01*
X173279275Y-115395937D01*
X173164423Y-115329628D01*
X173164422Y-115329627D01*
X173133382Y-115321310D01*
X175131299Y-115321310D01*
X175165627Y-115449422D01*
X175165628Y-115449423D01*
X175231937Y-115564275D01*
X175231939Y-115564278D01*
X175231940Y-115564279D01*
X175325721Y-115658060D01*
X175440579Y-115724373D01*
X175568687Y-115758700D01*
X175568690Y-115758700D01*
X175701310Y-115758700D01*
X175701313Y-115758700D01*
X175829421Y-115724373D01*
X175944279Y-115658060D01*
X176038060Y-115564279D01*
X176104373Y-115449421D01*
X176138700Y-115321313D01*
X176138700Y-115244296D01*
X176158385Y-115177257D01*
X176211189Y-115131502D01*
X176280347Y-115121558D01*
X176294782Y-115124518D01*
X176403687Y-115153700D01*
X176403690Y-115153700D01*
X176536310Y-115153700D01*
X176536313Y-115153700D01*
X176664421Y-115119373D01*
X176779279Y-115053060D01*
X176841029Y-114991310D01*
X198546299Y-114991310D01*
X198580627Y-115119422D01*
X198580628Y-115119423D01*
X198646937Y-115234275D01*
X198646939Y-115234278D01*
X198646940Y-115234279D01*
X198740721Y-115328060D01*
X198740722Y-115328061D01*
X198740724Y-115328062D01*
X198798150Y-115361216D01*
X198855579Y-115394373D01*
X198983687Y-115428700D01*
X199116313Y-115428700D01*
X199244421Y-115394373D01*
X199359279Y-115328060D01*
X199453060Y-115234279D01*
X199519373Y-115119421D01*
X199553700Y-114991313D01*
X199553700Y-114858687D01*
X199519373Y-114730579D01*
X199453060Y-114615721D01*
X199359279Y-114521940D01*
X199359278Y-114521939D01*
X199359275Y-114521937D01*
X199244423Y-114455628D01*
X199244422Y-114455627D01*
X199212394Y-114447045D01*
X199116313Y-114421300D01*
X198983687Y-114421300D01*
X198906822Y-114441896D01*
X198855577Y-114455627D01*
X198855576Y-114455628D01*
X198740724Y-114521937D01*
X198740719Y-114521941D01*
X198646941Y-114615719D01*
X198646937Y-114615724D01*
X198580628Y-114730576D01*
X198580627Y-114730577D01*
X198569127Y-114773497D01*
X198546300Y-114858687D01*
X198546300Y-114858689D01*
X198546300Y-114991310D01*
X198546299Y-114991310D01*
X176841029Y-114991310D01*
X176873060Y-114959279D01*
X176939373Y-114844421D01*
X176973700Y-114716313D01*
X176973700Y-114583687D01*
X176939373Y-114455579D01*
X176873060Y-114340721D01*
X176779279Y-114246940D01*
X176779278Y-114246939D01*
X176779275Y-114246937D01*
X176664423Y-114180628D01*
X176664422Y-114180627D01*
X176629527Y-114171277D01*
X176536313Y-114146300D01*
X176403687Y-114146300D01*
X176326822Y-114166896D01*
X176275577Y-114180627D01*
X176275576Y-114180628D01*
X176160724Y-114246937D01*
X176160719Y-114246941D01*
X176066941Y-114340719D01*
X176066937Y-114340724D01*
X176000628Y-114455576D01*
X176000627Y-114455577D01*
X175983463Y-114519633D01*
X175966300Y-114583687D01*
X175966300Y-114583689D01*
X175966300Y-114660703D01*
X175946615Y-114727742D01*
X175893811Y-114773497D01*
X175824653Y-114783441D01*
X175810207Y-114780478D01*
X175737448Y-114760982D01*
X175701313Y-114751300D01*
X175568687Y-114751300D01*
X175491822Y-114771896D01*
X175440577Y-114785627D01*
X175440576Y-114785628D01*
X175325724Y-114851937D01*
X175325719Y-114851941D01*
X175231941Y-114945719D01*
X175231937Y-114945724D01*
X175165628Y-115060576D01*
X175165627Y-115060577D01*
X175149287Y-115121558D01*
X175131300Y-115188687D01*
X175131300Y-115188689D01*
X175131300Y-115321310D01*
X175131299Y-115321310D01*
X173133382Y-115321310D01*
X173036313Y-115295300D01*
X172903687Y-115295300D01*
X172826822Y-115315896D01*
X172775577Y-115329627D01*
X172775576Y-115329628D01*
X172660724Y-115395937D01*
X172660719Y-115395941D01*
X172566941Y-115489719D01*
X172566937Y-115489724D01*
X172500628Y-115604576D01*
X172500627Y-115604577D01*
X172486296Y-115658062D01*
X172466300Y-115732687D01*
X172466300Y-115732689D01*
X172466300Y-115865310D01*
X172466299Y-115865310D01*
X157800500Y-115865310D01*
X157800500Y-115416310D01*
X161616299Y-115416310D01*
X161650627Y-115544422D01*
X161650628Y-115544423D01*
X161716937Y-115659275D01*
X161716938Y-115659276D01*
X161716940Y-115659279D01*
X161810721Y-115753060D01*
X161810722Y-115753061D01*
X161810724Y-115753062D01*
X161843417Y-115771937D01*
X161925579Y-115819373D01*
X162053687Y-115853700D01*
X162053690Y-115853700D01*
X162186310Y-115853700D01*
X162186313Y-115853700D01*
X162314421Y-115819373D01*
X162429279Y-115753060D01*
X162523060Y-115659279D01*
X162589373Y-115544421D01*
X162623700Y-115416313D01*
X162623700Y-115283687D01*
X162589373Y-115155579D01*
X162523060Y-115040721D01*
X162429279Y-114946940D01*
X162429278Y-114946939D01*
X162429275Y-114946937D01*
X162314423Y-114880628D01*
X162314422Y-114880627D01*
X162282394Y-114872045D01*
X162186313Y-114846300D01*
X162053687Y-114846300D01*
X161976822Y-114866896D01*
X161925577Y-114880627D01*
X161925576Y-114880628D01*
X161810724Y-114946937D01*
X161810719Y-114946941D01*
X161716941Y-115040719D01*
X161716937Y-115040724D01*
X161650628Y-115155576D01*
X161650627Y-115155577D01*
X161641755Y-115188689D01*
X161616300Y-115283687D01*
X161616300Y-115283689D01*
X161616300Y-115416310D01*
X161616299Y-115416310D01*
X157800500Y-115416310D01*
X157800500Y-110799000D01*
X157820185Y-110731961D01*
X157872989Y-110686206D01*
X157924500Y-110675000D01*
X164894879Y-110675000D01*
X164908687Y-110678700D01*
G37*
%TD.AperFunction*%
%TA.AperFunction,Conductor*%
G36*
X173079159Y-134026259D02*
G01*
X173090288Y-134036127D01*
X173703133Y-134648973D01*
X173703135Y-134648974D01*
X173703137Y-134648976D01*
X173739986Y-134670249D01*
X173766963Y-134685825D01*
X173838150Y-134704900D01*
X173861048Y-134704900D01*
X173879101Y-134710538D01*
X173893067Y-134719855D01*
X173909175Y-134724585D01*
X173921528Y-134738841D01*
X173937225Y-134749313D01*
X173943937Y-134764703D01*
X173954930Y-134777389D01*
X173957614Y-134796061D01*
X173965158Y-134813356D01*
X173962484Y-134829930D01*
X173964874Y-134846547D01*
X173957037Y-134863707D01*
X173954033Y-134882334D01*
X173942822Y-134894832D01*
X173935849Y-134910103D01*
X173929817Y-134916581D01*
X172468721Y-136377675D01*
X172407398Y-136411160D01*
X172337706Y-136406176D01*
X172281773Y-136364304D01*
X172273653Y-136351994D01*
X172244983Y-136302336D01*
X172244979Y-136302331D01*
X172159765Y-136217117D01*
X172159757Y-136217111D01*
X172055401Y-136156862D01*
X172055396Y-136156859D01*
X172008790Y-136144371D01*
X171938987Y-136125667D01*
X171818473Y-136125667D01*
X171771644Y-136138215D01*
X171702063Y-136156859D01*
X171702058Y-136156862D01*
X171597703Y-136217111D01*
X171597691Y-136217119D01*
X171585470Y-136229340D01*
X171575153Y-136235806D01*
X171569846Y-136242573D01*
X171538495Y-136258784D01*
X171498168Y-136272797D01*
X171457467Y-136279667D01*
X168964229Y-136279667D01*
X168964213Y-136279666D01*
X168956617Y-136279666D01*
X168876650Y-136279666D01*
X168799409Y-136300363D01*
X168799407Y-136300363D01*
X168799407Y-136300364D01*
X168730157Y-136340346D01*
X168730154Y-136340348D01*
X167583128Y-137487373D01*
X167579891Y-137489675D01*
X167578749Y-137491544D01*
X167549497Y-137511292D01*
X167511076Y-137529900D01*
X167457026Y-137542300D01*
X167439743Y-137542300D01*
X167381539Y-137557896D01*
X167323333Y-137573492D01*
X167323328Y-137573495D01*
X167218972Y-137633744D01*
X167218964Y-137633750D01*
X167133750Y-137718964D01*
X167133744Y-137718972D01*
X167073495Y-137823328D01*
X167073492Y-137823333D01*
X167055698Y-137889743D01*
X167042300Y-137939743D01*
X167042300Y-138060257D01*
X167071551Y-138169420D01*
X167073492Y-138176665D01*
X167084502Y-138195735D01*
X167100973Y-138263636D01*
X167078120Y-138329662D01*
X167023199Y-138372852D01*
X166977114Y-138381734D01*
X165469019Y-138381734D01*
X165401980Y-138362049D01*
X165356225Y-138309245D01*
X165346281Y-138240087D01*
X165361631Y-138195735D01*
X165376823Y-138169421D01*
X165401508Y-138126665D01*
X165432700Y-138010257D01*
X165432700Y-137889743D01*
X165401508Y-137773335D01*
X165370122Y-137718972D01*
X165341255Y-137668972D01*
X165341252Y-137668968D01*
X165341251Y-137668966D01*
X165312813Y-137640528D01*
X165311268Y-137638395D01*
X165310055Y-137637681D01*
X165289820Y-137608769D01*
X165268223Y-137566024D01*
X165254900Y-137510107D01*
X165254900Y-136267300D01*
X165274585Y-136200261D01*
X165291219Y-136179619D01*
X165879619Y-135591219D01*
X165940942Y-135557734D01*
X165967300Y-135554900D01*
X171320289Y-135554900D01*
X171320291Y-135554900D01*
X171391478Y-135535825D01*
X171455303Y-135498976D01*
X172894576Y-134059703D01*
X172898976Y-134055303D01*
X172898979Y-134055296D01*
X172903926Y-134048852D01*
X172906646Y-134050939D01*
X172945674Y-134013651D01*
X173014267Y-134000357D01*
X173079159Y-134026259D01*
G37*
%TD.AperFunction*%
%TD*%
%TA.AperFunction,Conductor*%
%TO.N,+5V*%
G36*
X186944098Y-134002456D02*
G01*
X186948616Y-134010188D01*
X186948616Y-134013362D01*
X186910996Y-134288114D01*
X186906478Y-134295846D01*
X186906313Y-134295969D01*
X186772946Y-134393550D01*
X186764245Y-134395670D01*
X186757764Y-134392381D01*
X186556418Y-134191035D01*
X186552991Y-134182762D01*
X186555247Y-134175856D01*
X186652831Y-134042486D01*
X186660480Y-134037834D01*
X186660664Y-134037807D01*
X186935439Y-134000183D01*
X186944098Y-134002456D01*
G37*
%TD.AperFunction*%
%TD*%
%TA.AperFunction,Conductor*%
%TO.N,+5V*%
G36*
X187192409Y-133821571D02*
G01*
X187357250Y-133894125D01*
X187363441Y-133900594D01*
X187364236Y-133904833D01*
X187364236Y-134092766D01*
X187360809Y-134101039D01*
X187357249Y-134103475D01*
X187192414Y-134176026D01*
X187183462Y-134176222D01*
X187180627Y-134174636D01*
X187083678Y-134101039D01*
X186961274Y-134008117D01*
X186956757Y-134000387D01*
X186959030Y-133991726D01*
X186961272Y-133989483D01*
X187180628Y-133822962D01*
X187189288Y-133820690D01*
X187192409Y-133821571D01*
G37*
%TD.AperFunction*%
%TD*%
%TA.AperFunction,Conductor*%
%TO.N,+5V*%
G36*
X168767235Y-137606418D02*
G01*
X168968581Y-137807764D01*
X168972008Y-137816037D01*
X168969750Y-137822946D01*
X168872169Y-137956312D01*
X168864519Y-137960965D01*
X168864314Y-137960995D01*
X168589562Y-137998616D01*
X168580901Y-137996343D01*
X168576383Y-137988611D01*
X168576383Y-137985443D01*
X168614005Y-137710684D01*
X168618523Y-137702953D01*
X168618636Y-137702868D01*
X168752056Y-137605248D01*
X168760753Y-137603129D01*
X168767235Y-137606418D01*
G37*
%TD.AperFunction*%
%TD*%
%TA.AperFunction,Conductor*%
%TO.N,+5V*%
G36*
X196029069Y-134460574D02*
G01*
X196029121Y-134460626D01*
X196104840Y-134538084D01*
X196174791Y-134609642D01*
X196178123Y-134617954D01*
X196177705Y-134620926D01*
X196104795Y-134885850D01*
X196099295Y-134892917D01*
X196090409Y-134894026D01*
X196087494Y-134892777D01*
X195852005Y-134751450D01*
X195846675Y-134744254D01*
X195846585Y-134738969D01*
X195876484Y-134599267D01*
X195879649Y-134593448D01*
X196012524Y-134460573D01*
X196020796Y-134457147D01*
X196029069Y-134460574D01*
G37*
%TD.AperFunction*%
%TD*%
%TA.AperFunction,Conductor*%
%TO.N,VCC*%
G36*
X167683168Y-137687177D02*
G01*
X167812822Y-137816831D01*
X167816249Y-137825104D01*
X167815079Y-137830204D01*
X167751849Y-137960768D01*
X167745159Y-137966720D01*
X167742910Y-137967259D01*
X167514572Y-137998609D01*
X167505910Y-137996340D01*
X167501390Y-137988609D01*
X167501390Y-137985433D01*
X167532740Y-137757087D01*
X167537260Y-137749358D01*
X167539226Y-137748153D01*
X167669797Y-137684919D01*
X167678735Y-137684398D01*
X167683168Y-137687177D01*
G37*
%TD.AperFunction*%
%TD*%
%TA.AperFunction,Conductor*%
%TO.N,VCC*%
G36*
X171681841Y-136433545D02*
G01*
X171683813Y-136434753D01*
X171867440Y-136574045D01*
X171871960Y-136581776D01*
X171869691Y-136590438D01*
X171867440Y-136592689D01*
X171683813Y-136731980D01*
X171675151Y-136734249D01*
X171672902Y-136733710D01*
X171535871Y-136686097D01*
X171529181Y-136680144D01*
X171528011Y-136675045D01*
X171528011Y-136491688D01*
X171531438Y-136483415D01*
X171535871Y-136480636D01*
X171672904Y-136433023D01*
X171681841Y-136433545D01*
G37*
%TD.AperFunction*%
%TD*%
%TA.AperFunction,Conductor*%
%TO.N,IA+*%
G36*
X194125030Y-113539071D02*
G01*
X194150662Y-113548814D01*
X194293982Y-113603296D01*
X194300497Y-113609437D01*
X194301416Y-113612644D01*
X194338768Y-113885437D01*
X194336495Y-113894098D01*
X194328763Y-113898616D01*
X194325589Y-113898616D01*
X194052796Y-113861264D01*
X194045064Y-113856746D01*
X194043449Y-113853833D01*
X193979223Y-113684878D01*
X193979486Y-113675927D01*
X193981883Y-113672451D01*
X194112601Y-113541733D01*
X194120873Y-113538307D01*
X194125030Y-113539071D01*
G37*
%TD.AperFunction*%
%TD*%
%TA.AperFunction,Conductor*%
%TO.N,IA+*%
G36*
X192074764Y-108980286D02*
G01*
X192081003Y-108986709D01*
X192081753Y-108989685D01*
X192113025Y-109260131D01*
X192110571Y-109268743D01*
X192104889Y-109272643D01*
X191981705Y-109311101D01*
X191978218Y-109311633D01*
X191793118Y-109311633D01*
X191784845Y-109308206D01*
X191781418Y-109299933D01*
X191781494Y-109298601D01*
X191785903Y-109260131D01*
X191805370Y-109090259D01*
X191809716Y-109082432D01*
X191812670Y-109080721D01*
X192065812Y-108980156D01*
X192074764Y-108980286D01*
G37*
%TD.AperFunction*%
%TD*%
%TA.AperFunction,Conductor*%
%TO.N,IB+*%
G36*
X180584764Y-108980286D02*
G01*
X180591003Y-108986709D01*
X180591753Y-108989685D01*
X180623025Y-109260131D01*
X180620571Y-109268743D01*
X180614889Y-109272643D01*
X180491705Y-109311101D01*
X180488218Y-109311633D01*
X180303118Y-109311633D01*
X180294845Y-109308206D01*
X180291418Y-109299933D01*
X180291494Y-109298601D01*
X180295903Y-109260131D01*
X180315370Y-109090259D01*
X180319716Y-109082432D01*
X180322670Y-109080721D01*
X180575812Y-108980156D01*
X180584764Y-108980286D01*
G37*
%TD.AperFunction*%
%TD*%
%TA.AperFunction,Conductor*%
%TO.N,IB+*%
G36*
X189156705Y-113554419D02*
G01*
X189279889Y-113592876D01*
X189286765Y-113598612D01*
X189288025Y-113605388D01*
X189256753Y-113875833D01*
X189252398Y-113883658D01*
X189243786Y-113886112D01*
X189240810Y-113885362D01*
X188987673Y-113784798D01*
X188981250Y-113778559D01*
X188980370Y-113775261D01*
X188956494Y-113566917D01*
X188958957Y-113558310D01*
X188966786Y-113553963D01*
X188968118Y-113553887D01*
X189153218Y-113553887D01*
X189156705Y-113554419D01*
G37*
%TD.AperFunction*%
%TD*%
%TA.AperFunction,Conductor*%
%TO.N,/FDCAN_TX*%
G36*
X165206431Y-134750896D02*
G01*
X165344295Y-134820554D01*
X165350134Y-134827344D01*
X165350719Y-134830997D01*
X165350719Y-134969002D01*
X165347292Y-134977275D01*
X165344295Y-134979445D01*
X165206431Y-135049103D01*
X165197502Y-135049775D01*
X165194084Y-135047982D01*
X165011289Y-134909322D01*
X165006769Y-134901591D01*
X165009038Y-134892929D01*
X165011289Y-134890678D01*
X165089966Y-134830997D01*
X165194085Y-134752016D01*
X165202746Y-134749748D01*
X165206431Y-134750896D01*
G37*
%TD.AperFunction*%
%TD*%
%TA.AperFunction,Conductor*%
%TO.N,/FDCAN_TX*%
G36*
X173010487Y-128998194D02*
G01*
X173018491Y-129002208D01*
X173021314Y-129010706D01*
X173020695Y-129013706D01*
X172946010Y-129228520D01*
X172940057Y-129235209D01*
X172935692Y-129236355D01*
X172792354Y-129245349D01*
X172783882Y-129242447D01*
X172783348Y-129241945D01*
X172685859Y-129144456D01*
X172682432Y-129136183D01*
X172684171Y-129130047D01*
X172772158Y-128987306D01*
X172779415Y-128982063D01*
X172782953Y-128981777D01*
X173010487Y-128998194D01*
G37*
%TD.AperFunction*%
%TD*%
%TA.AperFunction,Conductor*%
%TO.N,/FDCAN_RX*%
G36*
X173021689Y-129781259D02*
G01*
X173026209Y-129788990D01*
X173026209Y-129792172D01*
X172995002Y-130019477D01*
X172990482Y-130027208D01*
X172987064Y-130029001D01*
X172840322Y-130077229D01*
X172831393Y-130076557D01*
X172828396Y-130074387D01*
X172730812Y-129976803D01*
X172727385Y-129968530D01*
X172727970Y-129964877D01*
X172776199Y-129818133D01*
X172782037Y-129811346D01*
X172785717Y-129810199D01*
X173013029Y-129778990D01*
X173021689Y-129781259D01*
G37*
%TD.AperFunction*%
%TD*%
%TA.AperFunction,Conductor*%
%TO.N,/FDCAN_RX*%
G36*
X165052276Y-137602708D02*
G01*
X165054446Y-137605705D01*
X165124103Y-137743568D01*
X165124775Y-137752497D01*
X165122982Y-137755915D01*
X164984322Y-137938710D01*
X164976591Y-137943230D01*
X164967929Y-137940961D01*
X164965678Y-137938710D01*
X164827017Y-137755915D01*
X164824748Y-137747253D01*
X164825896Y-137743568D01*
X164895554Y-137605705D01*
X164902344Y-137599866D01*
X164905997Y-137599281D01*
X165044003Y-137599281D01*
X165052276Y-137602708D01*
G37*
%TD.AperFunction*%
%TD*%
%TA.AperFunction,Conductor*%
%TO.N,/IB*%
G36*
X189782071Y-122009038D02*
G01*
X189784322Y-122011289D01*
X189922982Y-122194084D01*
X189925251Y-122202746D01*
X189924103Y-122206431D01*
X189854446Y-122344295D01*
X189847656Y-122350134D01*
X189844003Y-122350719D01*
X189705997Y-122350719D01*
X189697724Y-122347292D01*
X189695554Y-122344295D01*
X189625896Y-122206431D01*
X189625224Y-122197502D01*
X189627015Y-122194087D01*
X189765678Y-122011288D01*
X189773409Y-122006769D01*
X189782071Y-122009038D01*
G37*
%TD.AperFunction*%
%TD*%
%TA.AperFunction,Conductor*%
%TO.N,/IB*%
G36*
X180431431Y-132000896D02*
G01*
X180569295Y-132070554D01*
X180575134Y-132077344D01*
X180575719Y-132080997D01*
X180575719Y-132219002D01*
X180572292Y-132227275D01*
X180569295Y-132229445D01*
X180431431Y-132299103D01*
X180422502Y-132299775D01*
X180419084Y-132297982D01*
X180236289Y-132159322D01*
X180231769Y-132151591D01*
X180234038Y-132142929D01*
X180236289Y-132140678D01*
X180314966Y-132080997D01*
X180419085Y-132002016D01*
X180427746Y-131999748D01*
X180431431Y-132000896D01*
G37*
%TD.AperFunction*%
%TD*%
%TA.AperFunction,Conductor*%
%TO.N,/IC*%
G36*
X179958671Y-131411109D02*
G01*
X180096535Y-131480767D01*
X180102374Y-131487557D01*
X180102959Y-131491210D01*
X180102959Y-131629215D01*
X180099532Y-131637488D01*
X180096535Y-131639658D01*
X179958671Y-131709316D01*
X179949742Y-131709988D01*
X179946324Y-131708195D01*
X179763529Y-131569535D01*
X179759009Y-131561804D01*
X179761278Y-131553142D01*
X179763529Y-131550891D01*
X179842206Y-131491210D01*
X179946325Y-131412229D01*
X179954986Y-131409961D01*
X179958671Y-131411109D01*
G37*
%TD.AperFunction*%
%TD*%
%TA.AperFunction,Conductor*%
%TO.N,/IC*%
G36*
X184657071Y-121959038D02*
G01*
X184659322Y-121961289D01*
X184797982Y-122144084D01*
X184800251Y-122152746D01*
X184799103Y-122156431D01*
X184729446Y-122294295D01*
X184722656Y-122300134D01*
X184719003Y-122300719D01*
X184580997Y-122300719D01*
X184572724Y-122297292D01*
X184570554Y-122294295D01*
X184500896Y-122156431D01*
X184500224Y-122147502D01*
X184502015Y-122144087D01*
X184640678Y-121961288D01*
X184648409Y-121956769D01*
X184657071Y-121959038D01*
G37*
%TD.AperFunction*%
%TD*%
%TA.AperFunction,Conductor*%
%TO.N,/SPI3_MOSI*%
G36*
X173166878Y-127507598D02*
G01*
X173174608Y-127512118D01*
X173176401Y-127515536D01*
X173224629Y-127662277D01*
X173223957Y-127671206D01*
X173221787Y-127674203D01*
X173124203Y-127771787D01*
X173115930Y-127775214D01*
X173112277Y-127774629D01*
X172965536Y-127726401D01*
X172958746Y-127720562D01*
X172957599Y-127716881D01*
X172926390Y-127489570D01*
X172928659Y-127480910D01*
X172936390Y-127476390D01*
X172939567Y-127476390D01*
X173166878Y-127507598D01*
G37*
%TD.AperFunction*%
%TD*%
%TA.AperFunction,Conductor*%
%TO.N,/SPI3_MOSI*%
G36*
X196917474Y-134529924D02*
G01*
X196929006Y-134532964D01*
X197102773Y-134578773D01*
X197109898Y-134584195D01*
X197111381Y-134588499D01*
X197148616Y-134860437D01*
X197146343Y-134869098D01*
X197138611Y-134873616D01*
X197135437Y-134873616D01*
X196863499Y-134836381D01*
X196855767Y-134831863D01*
X196853774Y-134827774D01*
X196804924Y-134642474D01*
X196806128Y-134633600D01*
X196807960Y-134631222D01*
X196906219Y-134532963D01*
X196914491Y-134529537D01*
X196917474Y-134529924D01*
G37*
%TD.AperFunction*%
%TD*%
%TA.AperFunction,Conductor*%
%TO.N,/IA*%
G36*
X194869089Y-121928659D02*
G01*
X194873609Y-121936390D01*
X194873609Y-121939572D01*
X194842402Y-122166877D01*
X194837882Y-122174608D01*
X194834464Y-122176401D01*
X194687722Y-122224629D01*
X194678793Y-122223957D01*
X194675796Y-122221787D01*
X194578212Y-122124203D01*
X194574785Y-122115930D01*
X194575370Y-122112277D01*
X194623599Y-121965533D01*
X194629437Y-121958746D01*
X194633117Y-121957599D01*
X194860429Y-121926390D01*
X194869089Y-121928659D01*
G37*
%TD.AperFunction*%
%TD*%
%TA.AperFunction,Conductor*%
%TO.N,/IA*%
G36*
X179956431Y-132700896D02*
G01*
X180094295Y-132770554D01*
X180100134Y-132777344D01*
X180100719Y-132780997D01*
X180100719Y-132919002D01*
X180097292Y-132927275D01*
X180094295Y-132929445D01*
X179956431Y-132999103D01*
X179947502Y-132999775D01*
X179944084Y-132997982D01*
X179761289Y-132859322D01*
X179756769Y-132851591D01*
X179759038Y-132842929D01*
X179761289Y-132840678D01*
X179839966Y-132780997D01*
X179944085Y-132702016D01*
X179952746Y-132699748D01*
X179956431Y-132700896D01*
G37*
%TD.AperFunction*%
%TD*%
%TA.AperFunction,Conductor*%
%TO.N,/IC+*%
G36*
X184026705Y-113544419D02*
G01*
X184149889Y-113582876D01*
X184156765Y-113588612D01*
X184158025Y-113595388D01*
X184126753Y-113865833D01*
X184122398Y-113873658D01*
X184113786Y-113876112D01*
X184110810Y-113875362D01*
X183857673Y-113774798D01*
X183851250Y-113768559D01*
X183850370Y-113765261D01*
X183826494Y-113556917D01*
X183828957Y-113548310D01*
X183836786Y-113543963D01*
X183838118Y-113543887D01*
X184023218Y-113543887D01*
X184026705Y-113544419D01*
G37*
%TD.AperFunction*%
%TD*%
%TA.AperFunction,Conductor*%
%TO.N,/IC+*%
G36*
X169294764Y-108980286D02*
G01*
X169301003Y-108986709D01*
X169301753Y-108989685D01*
X169333025Y-109260131D01*
X169330571Y-109268743D01*
X169324889Y-109272643D01*
X169201705Y-109311101D01*
X169198218Y-109311633D01*
X169013118Y-109311633D01*
X169004845Y-109308206D01*
X169001418Y-109299933D01*
X169001494Y-109298601D01*
X169005903Y-109260131D01*
X169025370Y-109090259D01*
X169029716Y-109082432D01*
X169032670Y-109080721D01*
X169285812Y-108980156D01*
X169294764Y-108980286D01*
G37*
%TD.AperFunction*%
%TD*%
%TA.AperFunction,Conductor*%
%TO.N,PGND*%
G36*
X179754183Y-108980154D02*
G01*
X179998650Y-109077274D01*
X180007325Y-109080720D01*
X180013748Y-109086959D01*
X180014629Y-109090261D01*
X180038505Y-109298601D01*
X180036042Y-109307210D01*
X180028213Y-109311557D01*
X180026881Y-109311633D01*
X179841782Y-109311633D01*
X179838295Y-109311101D01*
X179715110Y-109272643D01*
X179708234Y-109266907D01*
X179706974Y-109260134D01*
X179738246Y-108989683D01*
X179742601Y-108981860D01*
X179751213Y-108979406D01*
X179754183Y-108980154D01*
G37*
%TD.AperFunction*%
%TD*%
%TA.AperFunction,Conductor*%
%TO.N,PGND*%
G36*
X193410121Y-113464631D02*
G01*
X193460442Y-113513040D01*
X193558111Y-113606996D01*
X193561698Y-113615201D01*
X193561352Y-113618261D01*
X193494590Y-113885756D01*
X193489262Y-113892953D01*
X193480405Y-113894275D01*
X193477460Y-113893096D01*
X193239441Y-113757903D01*
X193233939Y-113750838D01*
X193233706Y-113745645D01*
X193259779Y-113601694D01*
X193263016Y-113595511D01*
X193393738Y-113464789D01*
X193402010Y-113461363D01*
X193410121Y-113464631D01*
G37*
%TD.AperFunction*%
%TD*%
%TA.AperFunction,Conductor*%
%TO.N,PGND*%
G36*
X168464183Y-108980154D02*
G01*
X168708650Y-109077274D01*
X168717325Y-109080720D01*
X168723748Y-109086959D01*
X168724629Y-109090261D01*
X168748505Y-109298601D01*
X168746042Y-109307210D01*
X168738213Y-109311557D01*
X168736881Y-109311633D01*
X168551782Y-109311633D01*
X168548295Y-109311101D01*
X168425110Y-109272643D01*
X168418234Y-109266907D01*
X168416974Y-109260134D01*
X168448246Y-108989683D01*
X168452601Y-108981860D01*
X168461213Y-108979406D01*
X168464183Y-108980154D01*
G37*
%TD.AperFunction*%
%TD*%
%TA.AperFunction,Conductor*%
%TO.N,PGND*%
G36*
X183570154Y-113547314D02*
G01*
X183573581Y-113555587D01*
X183573505Y-113556919D01*
X183549629Y-113765257D01*
X183545282Y-113773086D01*
X183542325Y-113774798D01*
X183289189Y-113875362D01*
X183280235Y-113875232D01*
X183273996Y-113868809D01*
X183273246Y-113865833D01*
X183241974Y-113595385D01*
X183244428Y-113586776D01*
X183250107Y-113582877D01*
X183373295Y-113544419D01*
X183376782Y-113543887D01*
X183561881Y-113543887D01*
X183570154Y-113547314D01*
G37*
%TD.AperFunction*%
%TD*%
%TA.AperFunction,Conductor*%
%TO.N,PGND*%
G36*
X188700154Y-113557314D02*
G01*
X188703581Y-113565587D01*
X188703505Y-113566919D01*
X188679629Y-113775257D01*
X188675282Y-113783086D01*
X188672325Y-113784798D01*
X188419189Y-113885362D01*
X188410235Y-113885232D01*
X188403996Y-113878809D01*
X188403246Y-113875833D01*
X188371974Y-113605385D01*
X188374428Y-113596776D01*
X188380107Y-113592877D01*
X188503295Y-113554419D01*
X188506782Y-113553887D01*
X188691881Y-113553887D01*
X188700154Y-113557314D01*
G37*
%TD.AperFunction*%
%TD*%
%TA.AperFunction,Conductor*%
%TO.N,PGND*%
G36*
X191244183Y-108980154D02*
G01*
X191488650Y-109077274D01*
X191497325Y-109080720D01*
X191503748Y-109086959D01*
X191504629Y-109090261D01*
X191528505Y-109298601D01*
X191526042Y-109307210D01*
X191518213Y-109311557D01*
X191516881Y-109311633D01*
X191331782Y-109311633D01*
X191328295Y-109311101D01*
X191205110Y-109272643D01*
X191198234Y-109266907D01*
X191196974Y-109260134D01*
X191228246Y-108989683D01*
X191232601Y-108981860D01*
X191241213Y-108979406D01*
X191244183Y-108980154D01*
G37*
%TD.AperFunction*%
%TD*%
M02*
