%TF.GenerationSoftware,KiCad,Pcbnew,9.0.0-rc3-101-g1c85751bf0*%
%TF.CreationDate,2025-12-24T13:29:29+08:00*%
%TF.ProjectId,M4310_Drv,4d343331-305f-4447-9276-2e6b69636164,rev?*%
%TF.SameCoordinates,Original*%
%TF.FileFunction,Paste,Top*%
%TF.FilePolarity,Positive*%
%FSLAX46Y46*%
G04 Gerber Fmt 4.6, Leading zero omitted, Abs format (unit mm)*
G04 Created by KiCad (PCBNEW 9.0.0-rc3-101-g1c85751bf0) date 2025-12-24 13:29:29*
%MOMM*%
%LPD*%
G01*
G04 APERTURE LIST*
G04 Aperture macros list*
%AMRoundRect*
0 Rectangle with rounded corners*
0 $1 Rounding radius*
0 $2 $3 $4 $5 $6 $7 $8 $9 X,Y pos of 4 corners*
0 Add a 4 corners polygon primitive as box body*
4,1,4,$2,$3,$4,$5,$6,$7,$8,$9,$2,$3,0*
0 Add four circle primitives for the rounded corners*
1,1,$1+$1,$2,$3*
1,1,$1+$1,$4,$5*
1,1,$1+$1,$6,$7*
1,1,$1+$1,$8,$9*
0 Add four rect primitives between the rounded corners*
20,1,$1+$1,$2,$3,$4,$5,0*
20,1,$1+$1,$4,$5,$6,$7,0*
20,1,$1+$1,$6,$7,$8,$9,0*
20,1,$1+$1,$8,$9,$2,$3,0*%
%AMRotRect*
0 Rectangle, with rotation*
0 The origin of the aperture is its center*
0 $1 length*
0 $2 width*
0 $3 Rotation angle, in degrees counterclockwise*
0 Add horizontal line*
21,1,$1,$2,0,0,$3*%
%AMFreePoly0*
4,1,13,0.235355,0.685355,0.250000,0.650000,0.250000,-0.650000,0.235355,-0.685355,0.200000,-0.700000,-0.250000,-0.700000,-0.285355,-0.685355,-0.300000,-0.650000,-0.300000,0.650000,-0.285355,0.685355,-0.250000,0.700000,0.200000,0.700000,0.235355,0.685355,0.235355,0.685355,$1*%
G04 Aperture macros list end*
%ADD10R,1.200000X2.200000*%
%ADD11R,0.810000X0.860000*%
%ADD12R,0.800000X0.900000*%
%ADD13R,0.900000X0.800000*%
%ADD14O,0.350000X1.450000*%
%ADD15R,0.860000X0.810000*%
%ADD16R,0.600000X1.000000*%
%ADD17R,4.410000X4.000000*%
%ADD18R,1.100000X0.600000*%
%ADD19R,0.600000X1.700000*%
%ADD20R,1.000000X2.800000*%
%ADD21R,1.070000X0.530000*%
%ADD22R,0.700000X0.900000*%
%ADD23R,1.250000X0.700000*%
%ADD24R,1.730000X1.490000*%
%ADD25R,0.600000X1.400000*%
%ADD26R,0.900000X0.700000*%
%ADD27R,0.710000X0.360000*%
%ADD28R,1.600000X2.400000*%
%ADD29RoundRect,0.366667X-3.133333X-0.733333X3.133333X-0.733333X3.133333X0.733333X-3.133333X0.733333X0*%
%ADD30R,1.100000X0.700000*%
%ADD31R,1.280000X3.460000*%
%ADD32RotRect,0.280000X0.660000X45.000000*%
%ADD33RotRect,0.660000X0.280000X45.000000*%
%ADD34RotRect,2.550000X2.550000X45.000000*%
%ADD35FreePoly0,90.000000*%
%ADD36R,1.300000X0.300000*%
%ADD37R,1.700000X0.600000*%
%ADD38R,2.700000X1.000000*%
%ADD39O,0.280000X0.850000*%
%ADD40O,0.850000X0.280000*%
%ADD41R,5.500000X5.500000*%
G04 APERTURE END LIST*
D10*
%TO.C,L3*%
X161470000Y-122140000D03*
X163530000Y-122140000D03*
%TD*%
D11*
%TO.C,R10*%
X191434640Y-130475000D03*
X192934640Y-130475000D03*
%TD*%
D12*
%TO.C,C14*%
X187550000Y-125275000D03*
X188950000Y-125275000D03*
%TD*%
D13*
%TO.C,C29*%
X180950000Y-119765000D03*
X180950000Y-121165000D03*
%TD*%
D12*
%TO.C,C10*%
X163200000Y-130370000D03*
X161800000Y-130370000D03*
%TD*%
D14*
%TO.C,U11*%
X184655000Y-114970000D03*
X183995000Y-114970000D03*
X183345000Y-114970000D03*
X182695000Y-114970000D03*
X182695000Y-120830000D03*
X183345000Y-120830000D03*
X183995000Y-120830000D03*
X184655000Y-120830000D03*
%TD*%
D15*
%TO.C,R32*%
X170815000Y-111125000D03*
X170815000Y-109625000D03*
%TD*%
D12*
%TO.C,C26*%
X184925000Y-127825000D03*
X183525000Y-127825000D03*
%TD*%
D15*
%TO.C,R35*%
X162325000Y-109625000D03*
X162325000Y-111125000D03*
%TD*%
D11*
%TO.C,R37*%
X163150000Y-114520000D03*
X161650000Y-114520000D03*
%TD*%
D16*
%TO.C,Q6*%
X192540000Y-103250000D03*
X193820000Y-103250000D03*
X195080000Y-103250000D03*
X196350000Y-103250000D03*
X196350000Y-97410000D03*
X195080000Y-97410000D03*
X193820000Y-97410000D03*
X192540000Y-97410000D03*
D17*
X194450000Y-99720000D03*
%TD*%
D15*
%TO.C,R22*%
X166550000Y-109625000D03*
X166550000Y-111125000D03*
%TD*%
D18*
%TO.C,U3*%
X186965000Y-128660000D03*
X186965000Y-129610000D03*
X186965000Y-130560000D03*
X189565000Y-130560000D03*
X189565000Y-128660000D03*
%TD*%
D15*
%TO.C,R31*%
X183950000Y-111125000D03*
X183950000Y-109625000D03*
%TD*%
D12*
%TO.C,C27*%
X163200000Y-119900000D03*
X161800000Y-119900000D03*
%TD*%
D16*
%TO.C,Q4*%
X181156000Y-103250000D03*
X182436000Y-103250000D03*
X183696000Y-103250000D03*
X184966000Y-103250000D03*
X184966000Y-97410000D03*
X183696000Y-97410000D03*
X182436000Y-97410000D03*
X181156000Y-97410000D03*
D17*
X183066000Y-99720000D03*
%TD*%
D19*
%TO.C,CN1*%
X182042500Y-133675000D03*
X183282500Y-133675000D03*
D20*
X180192500Y-136575000D03*
X185142500Y-136575000D03*
%TD*%
D12*
%TO.C,C25*%
X183500000Y-125275000D03*
X184900000Y-125275000D03*
%TD*%
%TO.C,C12*%
X184900000Y-130375000D03*
X183500000Y-130375000D03*
%TD*%
D15*
%TO.C,R23*%
X178120000Y-109625000D03*
X178120000Y-111125000D03*
%TD*%
D11*
%TO.C,R8*%
X163150000Y-125170000D03*
X161650000Y-125170000D03*
%TD*%
D15*
%TO.C,R12*%
X169412500Y-137225000D03*
X169412500Y-135725000D03*
%TD*%
D21*
%TO.C,U12*%
X163600000Y-128620000D03*
X163600000Y-127670000D03*
X163600000Y-126720000D03*
X161300000Y-126720000D03*
X161300000Y-127670000D03*
X161300000Y-128620000D03*
%TD*%
D15*
%TO.C,R25*%
X165000000Y-111125000D03*
X165000000Y-109625000D03*
%TD*%
D12*
%TO.C,C16*%
X169075000Y-127825000D03*
X170475000Y-127825000D03*
%TD*%
D21*
%TO.C,U13*%
X163600000Y-118322500D03*
X163600000Y-117372500D03*
X163600000Y-116422500D03*
X161300000Y-116422500D03*
X161300000Y-117372500D03*
X161300000Y-118322500D03*
%TD*%
D13*
%TO.C,C18*%
X163200000Y-137225000D03*
X163200000Y-135825000D03*
%TD*%
D22*
%TO.C,LED1*%
X196100000Y-137320000D03*
X197200000Y-137320000D03*
X197200000Y-135480000D03*
X196100000Y-135480000D03*
%TD*%
D12*
%TO.C,C15*%
X170475000Y-133020000D03*
X169075000Y-133020000D03*
%TD*%
D15*
%TO.C,R6*%
X159200000Y-126650000D03*
X159200000Y-125150000D03*
%TD*%
D16*
%TO.C,Q5*%
X190668000Y-97360000D03*
X189388000Y-97360000D03*
X188128000Y-97360000D03*
X186858000Y-97360000D03*
X186858000Y-103200000D03*
X188128000Y-103200000D03*
X189388000Y-103200000D03*
X190668000Y-103200000D03*
D17*
X188758000Y-100890000D03*
%TD*%
D16*
%TO.C,Q3*%
X179284000Y-97360000D03*
X178004000Y-97360000D03*
X176744000Y-97360000D03*
X175474000Y-97360000D03*
X175474000Y-103200000D03*
X176744000Y-103200000D03*
X178004000Y-103200000D03*
X179284000Y-103200000D03*
D17*
X177374000Y-100890000D03*
%TD*%
D13*
%TO.C,C31*%
X191325000Y-119765000D03*
X191325000Y-121165000D03*
%TD*%
D15*
%TO.C,R26*%
X176625000Y-111125000D03*
X176625000Y-109625000D03*
%TD*%
%TO.C,R9*%
X176400833Y-135825000D03*
X176400833Y-137325000D03*
%TD*%
D23*
%TO.C,D1*%
X172786667Y-135675000D03*
X172786667Y-137575000D03*
X174786667Y-136625000D03*
%TD*%
D10*
%TO.C,L2*%
X161470000Y-132720000D03*
X163530000Y-132720000D03*
%TD*%
D15*
%TO.C,R27*%
X188225000Y-111125000D03*
X188225000Y-109625000D03*
%TD*%
D24*
%TO.C,C9*%
X159175000Y-122240000D03*
X159175000Y-119060000D03*
%TD*%
D25*
%TO.C,X1*%
X176570000Y-133000000D03*
X175370000Y-133000000D03*
X174170000Y-133000000D03*
%TD*%
D13*
%TO.C,C20*%
X178225000Y-137225000D03*
X178225000Y-135825000D03*
%TD*%
D12*
%TO.C,C22*%
X170375000Y-114635000D03*
X168975000Y-114635000D03*
%TD*%
D15*
%TO.C,R33*%
X172350000Y-111125000D03*
X172350000Y-109625000D03*
%TD*%
D26*
%TO.C,D3*%
X171175000Y-120380000D03*
X168575000Y-120380000D03*
%TD*%
D14*
%TO.C,U9*%
X194880000Y-114970000D03*
X194220000Y-114970000D03*
X193570000Y-114970000D03*
X192920000Y-114970000D03*
X192920000Y-120830000D03*
X193570000Y-120830000D03*
X194220000Y-120830000D03*
X194880000Y-120830000D03*
%TD*%
D27*
%TO.C,U6*%
X165009167Y-135462500D03*
X165009167Y-136122500D03*
X165009167Y-136772500D03*
X165009167Y-137422500D03*
X167869167Y-137422500D03*
X167869167Y-136772500D03*
X167869167Y-136122500D03*
X167869167Y-135462500D03*
D28*
X166439167Y-136442500D03*
%TD*%
D24*
%TO.C,C11*%
X165825000Y-132820000D03*
X165825000Y-129640000D03*
%TD*%
D15*
%TO.C,R29*%
X194050000Y-111125000D03*
X194050000Y-109625000D03*
%TD*%
D29*
%TO.C,*%
X168850000Y-94900000D03*
%TD*%
%TO.C,*%
X180225000Y-94900000D03*
%TD*%
D15*
%TO.C,R7*%
X165750000Y-125150000D03*
X165750000Y-126650000D03*
%TD*%
D30*
%TO.C,U4*%
X168610000Y-129475000D03*
X168610000Y-130425000D03*
X168610000Y-131375000D03*
X171190000Y-131375000D03*
X171190000Y-129475000D03*
%TD*%
D12*
%TO.C,C17*%
X169075000Y-126093333D03*
X170475000Y-126093333D03*
%TD*%
D14*
%TO.C,U10*%
X189767500Y-114970000D03*
X189107500Y-114970000D03*
X188457500Y-114970000D03*
X187807500Y-114970000D03*
X187807500Y-120830000D03*
X188457500Y-120830000D03*
X189107500Y-120830000D03*
X189767500Y-120830000D03*
%TD*%
D15*
%TO.C,R39*%
X160850000Y-109625000D03*
X160850000Y-111125000D03*
%TD*%
D19*
%TO.C,U7*%
X188525000Y-133475000D03*
X189775000Y-133475000D03*
X191025000Y-133475000D03*
X192285000Y-133475000D03*
D20*
X194125000Y-136635000D03*
X186685000Y-136635000D03*
%TD*%
D31*
%TO.C,R21*%
X194725000Y-106550000D03*
X188585000Y-106550000D03*
%TD*%
D24*
%TO.C,C8*%
X159175000Y-132820000D03*
X159175000Y-129640000D03*
%TD*%
D11*
%TO.C,R13*%
X192934640Y-128708333D03*
X191434640Y-128708333D03*
%TD*%
D13*
%TO.C,C21*%
X180950000Y-116700000D03*
X180950000Y-118100000D03*
%TD*%
D12*
%TO.C,C23*%
X170425000Y-118465000D03*
X169025000Y-118465000D03*
%TD*%
D26*
%TO.C,D4*%
X171125000Y-124210000D03*
X168525000Y-124210000D03*
%TD*%
D15*
%TO.C,R24*%
X189775000Y-109625000D03*
X189775000Y-111125000D03*
%TD*%
D11*
%TO.C,R11*%
X192934640Y-125175000D03*
X191434640Y-125175000D03*
%TD*%
D31*
%TO.C,R19*%
X171950000Y-106550000D03*
X165810000Y-106550000D03*
%TD*%
D13*
%TO.C,C19*%
X171150000Y-137225000D03*
X171150000Y-135825000D03*
%TD*%
D26*
%TO.C,D2*%
X171225000Y-116550000D03*
X168625000Y-116550000D03*
%TD*%
D13*
%TO.C,C30*%
X186250000Y-119750000D03*
X186250000Y-121150000D03*
%TD*%
D31*
%TO.C,R20*%
X183240500Y-106550000D03*
X177100500Y-106550000D03*
%TD*%
D29*
%TO.C,*%
X191600000Y-94900000D03*
%TD*%
D24*
%TO.C,C34*%
X165825000Y-122240000D03*
X165825000Y-119060000D03*
%TD*%
D32*
%TO.C,U8*%
X176532233Y-120415361D03*
X176885787Y-120061808D03*
X177239340Y-119708255D03*
X177592894Y-119354701D03*
X177946447Y-119001148D03*
X178300000Y-118647594D03*
D33*
X178300000Y-117714214D03*
X177946447Y-117360660D03*
X177592894Y-117007107D03*
X177239340Y-116653553D03*
X176885787Y-116300000D03*
X176532233Y-115946447D03*
D32*
X175598853Y-115946447D03*
X175245299Y-116300000D03*
X174891746Y-116653553D03*
X174538192Y-117007107D03*
X174184639Y-117360660D03*
X173831086Y-117714214D03*
D33*
X173831086Y-118647594D03*
X174184639Y-119001148D03*
X174538192Y-119354701D03*
X174891746Y-119708255D03*
X175245299Y-120061808D03*
X175598853Y-120415361D03*
D34*
X176065543Y-118180904D03*
%TD*%
D35*
%TO.C,USBC1*%
X194977500Y-131225000D03*
X194977500Y-124825000D03*
X194972500Y-130425000D03*
X194977500Y-125625000D03*
D36*
X194977500Y-129275000D03*
X194977500Y-128275000D03*
X194977500Y-127775000D03*
X194977500Y-126775000D03*
X194977500Y-126275000D03*
X194977500Y-127275000D03*
X194977500Y-128775000D03*
X194977500Y-129775000D03*
%TD*%
D12*
%TO.C,C13*%
X187550000Y-127060000D03*
X188950000Y-127060000D03*
%TD*%
D16*
%TO.C,Q1*%
X167900000Y-97360000D03*
X166620000Y-97360000D03*
X165360000Y-97360000D03*
X164090000Y-97360000D03*
X164090000Y-103200000D03*
X165360000Y-103200000D03*
X166620000Y-103200000D03*
X167900000Y-103200000D03*
D17*
X165990000Y-100890000D03*
%TD*%
D15*
%TO.C,R28*%
X195605000Y-111125000D03*
X195605000Y-109625000D03*
%TD*%
D16*
%TO.C,Q2*%
X169772000Y-103200000D03*
X171052000Y-103200000D03*
X172312000Y-103200000D03*
X173582000Y-103200000D03*
X173582000Y-97360000D03*
X172312000Y-97360000D03*
X171052000Y-97360000D03*
X169772000Y-97360000D03*
D17*
X171682000Y-99670000D03*
%TD*%
D37*
%TO.C,CN2*%
X197600000Y-119930000D03*
X197600000Y-118680000D03*
X197600000Y-117430000D03*
X197600000Y-116180000D03*
X197600000Y-114930000D03*
X197600000Y-113680000D03*
D38*
X201100000Y-121770000D03*
X201100000Y-111830000D03*
%TD*%
D39*
%TO.C,U5*%
X174625000Y-130695000D03*
X175125000Y-130695000D03*
X175625001Y-130695000D03*
X176125000Y-130695000D03*
X176624999Y-130695000D03*
X177125000Y-130695000D03*
X177625000Y-130695000D03*
X178125001Y-130695000D03*
X178625000Y-130695000D03*
X179124999Y-130695000D03*
X179625000Y-130695000D03*
X180125000Y-130695000D03*
D40*
X180845000Y-129975000D03*
X180845000Y-129475000D03*
X180845000Y-128974999D03*
X180845000Y-128475000D03*
X180845000Y-127975001D03*
X180845000Y-127475000D03*
X180845000Y-126975000D03*
X180845000Y-126474999D03*
X180845000Y-125975000D03*
X180845000Y-125475001D03*
X180845000Y-124975000D03*
X180845000Y-124475000D03*
D39*
X180125000Y-123755000D03*
X179625000Y-123755000D03*
X179124999Y-123755000D03*
X178625000Y-123755000D03*
X178125001Y-123755000D03*
X177625000Y-123755000D03*
X177125000Y-123755000D03*
X176624999Y-123755000D03*
X176125000Y-123755000D03*
X175625001Y-123755000D03*
X175125000Y-123755000D03*
X174625000Y-123755000D03*
D40*
X173905000Y-124475000D03*
X173905000Y-124975000D03*
X173905000Y-125475001D03*
X173905000Y-125975000D03*
X173905000Y-126474999D03*
X173905000Y-126975000D03*
X173905000Y-127475000D03*
X173905000Y-127975001D03*
X173905000Y-128475000D03*
X173905000Y-128974999D03*
X173905000Y-129475000D03*
X173905000Y-129975000D03*
D41*
X177375000Y-127225000D03*
%TD*%
D15*
%TO.C,R36*%
X159200000Y-116000000D03*
X159200000Y-114500000D03*
%TD*%
D11*
%TO.C,R18*%
X192934640Y-126941667D03*
X191434640Y-126941667D03*
%TD*%
D15*
%TO.C,R38*%
X165750000Y-114500000D03*
X165750000Y-116000000D03*
%TD*%
D12*
%TO.C,C24*%
X170475000Y-122295000D03*
X169075000Y-122295000D03*
%TD*%
D15*
%TO.C,R30*%
X182460000Y-111125000D03*
X182460000Y-109625000D03*
%TD*%
M02*
